<mxfile modified="2020-03-13T06:24:44.005Z" host="app.diagrams.net" agent="Mozilla/5.0 (Windows NT 10.0; Win64; x64) AppleWebKit/537.36 (KHTML, like Gecko) Chrome/80.0.3987.132 Safari/537.36" etag="vITRt0CxwQQ32gVd9_w8" version="12.8.4" type="github">
  <diagram id="bAN8bBhPXxYgwuzKQ5v9" name="Page-1">
    <mxGraphModel dx="1221" dy="682" grid="1" gridSize="10" guides="1" tooltips="1" connect="1" arrows="1" fold="1" page="1" pageScale="1" pageWidth="827" pageHeight="1169" math="0" shadow="0">
      <root>
        <mxCell id="0" />
        <mxCell id="1" parent="0" />
        <mxCell id="eb6X6qhN3olK0OHb7I_1-39" value="&lt;span style=&quot;font-size: 20px&quot;&gt;&lt;br&gt;&lt;/span&gt;" style="rounded=1;whiteSpace=wrap;html=1;fillColor=#94A0F1;strokeColor=#6c8ebf;fillOpacity=25;align=center;opacity=70;arcSize=5;" parent="1" vertex="1">
          <mxGeometry x="69" y="679" width="160" height="320" as="geometry" />
        </mxCell>
        <mxCell id="eb6X6qhN3olK0OHb7I_1-34" value="" style="shape=image;verticalLabelPosition=bottom;labelBackgroundColor=#ffffff;verticalAlign=top;aspect=fixed;imageAspect=0;image=data:image/png,iVBORw0KGgoAAAANSUhEUgAAAgAAAAIACAYAAAD0eNT6AAAABHNCSVQICAgIfAhkiAAAAAlwSFlzAAAO1wAADtcBcYY/vAAAABl0RVh0U29mdHdhcmUAd3d3Lmlua3NjYXBlLm9yZ5vuPBoAAB4kSURBVHic7d19sCV3WSfw7+BAshDTiwaVFoTwEhWSIJmheBFlUUo2rsvWbqrU2lVeJDSGsLzpLuqyvisLqyAvwaXRBFC3CixXCsWAqBSKwcWZgGSAhfCaQC+aROhIUiZM5u4f57DgnTMz997T56XP7/OpugV1TveT5/Z5zunvdPfpu29rayunUjXdmUkuSnJw+nN+ktNPuSIAsGg3JTmU5HCSq/q2fstOVtp3qgBQNd3jklye5N7zdggALNzbkzy1b+vrT7bQCQNA1XR3SvKKJJck2Td4ewDAovRJmr6t33iiBe50kpWfl+QZsfMHgLGpkry+arpzT7TAzCMAVdM9KMnVSU5bXG8AwIJdneThfVsf3f7EiY4AvCZ2/gAwdhckee6sJ44LAFXTVUkeueiOAICluHDWg7OOAByI8/4AsCkuqJruuP36rABwcAnNAADLUSV54PYHZwWAsxffCwCwRMft22cFAIf/AWCz7OgUAACw4QQAACiQAAAABRIAAKBAswLA/qV3AQAs1awAcNbSuwAAlmpWALjH0rsAABbp67Y/MCsAVEtoBABYnnttf8CNgABg8x23v/ctAAAokAAAAAUSAACgQAIAABRIAACAAgkAAFAgAQAACrSw+/7f/+v35wkH7rao8gCw0e44tpWXv/XmhdVfWAD4xq/Znx98lAAAAHtx+9HFBgCnAACgQAIAABRIAACAAgkAAFAgAQAACiQAAECBBAAAKJAAAAAFEgAAoEACAAAUSAAAgAIJAABQIAEAAAokAABAgQQAACiQAAAABdo/47GtIQp/7pZjefe1tw1RCgCKc/SOQXbHX3Js+wOzAkA/xH/pmutuz3Ned9MQpQCA+Xx6+wOzTgHcsIRGAIDl+bvtD8wKADcuoREAYIVmBYCjS+8CAFgq3wIAgAIJAABQIAEAAAokAABAgWYFgEHvPAAArNxx+/ZZAeATS2gEAFie4/btswLAoSU0AgAsR5/k2u0PzgoAh+M0AABsiqv7tj71KYC+rfsk715KSwDAol0568ETfQvgaUn8KT8AGLerk7x01hMzA0Df1h9M8oJFdgQALNRtSZ7Ut/XMW/yf7D4AL0nyqrgeAADGpk/yxL6tj5xogX1bWyffv1dN97gklye597C9AQAL8PYkT+3b+vqTLXTKAJAkVdOdmeSiJAenP+cnOX2AJgGA+dyUyVf4Dye5qm/rt+xkpR0FAABgs/hbAABQIAEAAAokAABAgQQAACiQAAAABRIAAKBAAgAAFEgAAIACCQAAUCABAAAKJAAAQIEEAAAokAAAAAUSAACgQAIAABRIAACAAgkAAFCg/atuAGCVqqY7O8nB6c/ZST6Q5FCSw31bf3aVvcEi7dva2lp1DwBLVzXd/ZK8Nsl3nGSx307yrL6tP7eUpmCJnAIAilM13SVJ3p+T7/yT5IeSHKma7sLFdwXL5QgAUJSq6Z6R5LJdrnYsyWP7tv7zBbQEKyEAAMWYnu9/f5Iz9rD6x5Oc37f1LcN2BavhFABQkt/M3nb+SXK/JP99wF5gpRwBAIpQNd19k3xizjK3Jjmzb+s75u8IVssRAKAUBwaocdck3zJAHVg5AQAoxcE1qwMrJQAApTh3zerASgkAQCnuvGZ1YKUEAAAokAAAAAUSAACgQAIAABRIAACAAgkAAFAgAQAACiQAAECBBAAAKJAAAAAFEgAAoEACAAAUSAAAgAIJAABQIAEAAAokAABAgfavugFOrGq6/UkenOSOJB/q2/qOFbcES2P+x6lqujOSnJfkM31bX7fqfjgxAWDNVE1XJfkvSb4zyUOSnD596taq6d6X5B1JXti39S0rahEWpmq6r07yU0n+RZJvi/kfharpHpzk+UkeluScTI8uV013Q5JDSd7Yt/VrV9YgM+3b2tpadQ9MVU33PUl+M8m9TrHox5I8uW/rdy2+K1iOqukem+SKJPc5xaJ7mv+q6d6a5PF7bO8rvaxv6+cMUGf0qqa7U5IfT/LzSU47xeJXJrm4b+tu4Y2xI64BWBNV0/1Mkrfl1Dv/JLl/kndWTffcxXYFy1E13U8k+dOceuefmP+1UDXdXZL8WZIX5dQ7/yS5MMmRqukesdDG2DEBYA1UTffoJD+9y9XulOTFVdNdsICWYGmmO4RfTLJvF6uZ/9V7QZLH7HKduyf5rarp7rqAftglAWDFpm+EK7K312J/ktdVTbeT9A1rp2q6f5bkdUm+ag+rm/8VmQavn9zj6g/I5KgBKyYArN4lmbwh9urcJBcP1Ass2zMyuWhsr8z/arwo811EfmnVdA8cqhn2RgBYvUetSQ1YBfM/MtML/+Y9j79vgBrMSQBYvYNrUgNWwfyPzzcnOWOAOl63FRMAVqhqunsk+aYBSj2warozB6gDS2P+R2uoHbcAsGICwGp97UB19iX5moFqwbKY/3Ea6nUbqg57JAAAQIEEAAAokAAAAAUSAACgQAIAABRIAACAAgkAAFAgAQAACiQAAECBBAAAKJAAAAAFEgAAoEACAAAUSAAAgAIJAABQIAEAAAokAABAgQQAACiQAAAABRIAAKBAAgAAFEgAAIACCQAAUCABAAAKJAAAQIEEAAAokAAAAAUSAACgQAIAABRIAACAAgkAAFAgAQAACiQAAECBBAAAKJAAAAAFEgAAoEACAAAUSAAAgAIJAABQIAEAAAokAABAgQQAACiQAAAABRIAAKBA+1fdACxa1XRnJTmQ5J5J/ibJkb6tv7jargBWSwBgI1VNd9ckv5DkoiT32fb0bVXTvS/JT/dt/cdLbw5gDTgFwMapmu5RSd6X5Hk5fuefJKcleXiSt1VN9z+qpjtjmf0BrAMBgI1SNd0PJPmLJA/c4SpPT3JICABKIwCwMaqmq5P8enY/19+c5EXDdwSwvgQANslrktx9j+teUjXdY4dsBmCdCQBshKrpHpHke+cosS/JzwzUDsDaEwDYFA8boMaBqum8J4Ai+LBjUxwcoMYZmVwPALDx3Adgl6qmu3uSb03ysb6t/3bV/YxV1XSnJTkvyc1Jru3bemvOkg+dv6v/X+dD8xSYfqPgvCSf6dv6ukG6WhPmf5yqprtPJjfCuqZv61tW3c9Ybdr8CwA7UDXdtyd5Vib/yrzfVzz+6SSHk1zet/WbV9TeaEyv0n9BkkckOTfJnadP9VXTXZ3kyiQv7dv66B7KnzlMl3urUzXdg5M8P5NTEedkenStarobkhxK8sa+rV87UI9LZf7Hp2q6fUkuzuRGWAeSnDV96ljVdB9K8p4kv9S39cdW1OJobPL8CwAnUTXd6ZncTe55mX265F7Tn39TNd3rkzy7b+vPL7HF0aia7j8keUVmX6VfJXns9OcHq6Z7Ut/WR5bZ315Nrxn48SQ/n8kNhra7R5ILk1xYNd33J7m4b+tuiS3umfkfp6rp7p3k8iSPm/H0nZI8ePrz/VXTPT/JqwY4ArdxSph/1wCcwPRQz+FMPtx3sp2emOSaqunud8olC1M13RVJfjs7+4reBZncmOf7F9vV/Kqmu0uSP8vkHgKzdv7bXZjkyPQbC2vN/I9T1XTfmeRIZu/8t7tbklcm+QMXv/5Tpcy/F/3EXpnkQbtc515JLp8efiNJ1XQ/nOTJu1zttCSvnp4yWGcvSPKYXa5z9yS/Nf1bBevM/I9M1XRfneT12f1prH+V5MeG72jUiph/AWCGqukuSvLv97j6Y5I8c8B2Rqtqum9M8vI9rv7PM7mxz1qqmu6CJD+5x9UfkDW+86D5H62XZPbfvtiJX6iabrc7vI1U0vwLALP92pzrv3B6lXvpfjaTHflefW/VdN89UC9De1Hmu4bm0qrpdvr3CpbN/I9M1XTnZnLR316dljUOpUtWzPwLANtML6C515xl7pbk/AHaGbtHrUmNQU3Pl857Hn/fADUGZ/5H65FrUmPUSpt/AeB4B9aszihVTXe3JN8yQKl13I7nZHLToHmt4+9m/sdpiO39tVXT3XeAOmNW1PwLAMcb4o5yQ9YZq4dmmPlax+24yTOyyb/bJvO6DaOo7SgAHO+sUy+y1Dpjtcnb0e+2vDrsjNdtGEVtRwEAAAokAABAgQQAACiQAAAABRIAAKBAAgAAFEgAAIACCQAAUCABAAAKJAAAQIEEAAAokAAAAAUSAACgQAIAABRIAACAAgkAAFAgAQAACrR/1Q3sVdV090jy7UkOJjmQ5Iwkh6c/f9W39bUrbG80qqY7PckjM9mOB5OcneQDSQ5lsi3f07f1sdV1yCzmf5yqpvvmJA/P5HW7IMnNmbzXDiW5qm/rG1fY3miY/2GMLgBUTbcvySVJXpzkbtuefvT0f7eqpvv1JM/v2/oLy+xvTKqme3SSK5I8YNtTD0vy5On/f1fVdE/p2/qjy+yN2cz/OFVNd2aSX0nytBlPXzj935urpvvxvq1fs7zOxsX8D2tUpwCqprt3kj9NclmOf/G/0r4kz0jy/qrpvmMZvY1J1XR3qZru15K8M8fv/Ld7dJK/qZruWYvvjJMx/+NUNd13Jbkms3f+X+nMJG3VdG+rmq5efGfjYv6HN5oAUDXd/iT/K8ljd7Ha2Un+cDo4fNnPJHl2dv763zXJy6qm+4HFtcTJmP9xqprufknenOSbdrHa9yR5Q9V0o/l8XjTzvxhjGrCfyOR8z26dmeTy6aGj4lVNdzDJf97j6pdVTfcNQ/bDjpn/kZnuwF+bk/9r9UQeneQ/DtrQuJn/BRhFAKia7kFJfnqOEo9LcvFA7YzW9APpiuz92o+vzeTwG0tk/kfr0iTzHIL+5arp7jtQL6Nl/hdnFAEgyROS3HnOGhcN0cjInZPk3DlrfF/VdHcZohl2bIj5/7dDNMKuzPuZc9ck/3KIRkbO5/+CjCUAHFiTGmM3xDa4S5LzB6jDzg3xuj10gBrs0PSQ8wUDlPK5tbdD/9vZjjOMJQAMMQBnVU13nwHqjNkQ2zHxZlq2IV63b6ia7p4D1GFnzkny1QPUGeo9O2ZDfN74/J9h7QPA9HDzfQcqd85AdcZqqN+/9O24NAPP/wMHqsOpea8NwOf/Yq19AMiwPX7VgLXGaKjfv/TtuExDzv8Y3u+bwnttGD7/F8gHAgAUSAAAgAIJAABQIAEAAAokAABAgQQAACiQAAAABRIAAKBAAgAAFEgAAIACCQAAUCABAAAKJAAAQIEEAAAokAAAAAUSAACgQAIAABRIAACAAgkAAFAgAQAACiQAAECBBAAAKJAAAAAFEgAAoEACAAAUSAAAgAIJAABQIAEAAAokAABAgQQAACiQAAAABRIAAKBAAgAAFEgAAIACCQAAUCABAAAKJAAAQIEEAAAokAAAAAUSAACgQAIAABRIAACAAgkAAFAgAQAACiQAAECBBAAAKJAAAAAFEgAAoEACAAAUSAAAgAIJAABQIAEAAAokAABAgQQAACiQAAAABRIAAKBAAgAAFEgAAIACCQAAUCABAAAKJAAAQIEEAAAokAAAAAUSAACgQAIAABRIAACAAgkAAFAgAQAACiQAAECBBAAAKJAAAAAFEgAAoEACAAAUSAAAgAIJAABQIAEAAAokAABAgQQAACiQAAAABRIAAKBAAgAAFEgAAIACCQAAUCABAAAKJAAAQIEEAAAokAAAAAUSAACgQAIAABRoDAHg2IC17hiw1hgN9fuXvh2Xacj5H7IWJ+e9Ngyf/wu09gGgb+vbk3xyoHIfGajOWA31+5e+HZdm4Pm/dqA6nJr32gB8/i/W2geAqUMD1Lixb+tPDVBnzIbYjklyeKA67MwQr9tn+7b+vwPUYWc+kuQfBqgz1Ht2zIb4vPH5P8NYAsAQA2CnNcw2uD3J+weow84N8bq9d4Aa7FDf1ltJrh6glM+tYUKQ7TjDWALAm5N8cc4avzdEIyP3kSRH5qzxh9PDcizPEPP/+0M0wq7M+5lza5K3DtHIyPn8X5BRBIC+rT+Y5OfnKPEnSX5joHZGq2/rY0mekuToHkvclOTS4TpiJ8z/aF2W5C/mWP+n+rb+5EC9jJb5X5xRBICp/5a9HQq6OcmPTA/JFa9v60NJXrzH1S/t2/qzQ/bDjpn/kZkG7icnuWUPq78rySsGbWjczP8CjCYA9G19NMm/S/KOXaz2iSTf17f19YvparR+LsnLsvOv2Nya5Nl9W79hcS1xMuZ/nPq2/niSJyS5bher/XGSH5gGCGL+F2U0ASBJpi/kd2dyGPpkqXoryauSnN+39TyH4DZS39a39239nCSPSfLRUyz+riQP6dv65YvvjJMx/+PUt/WfJTkvyWtOsejNSZq+rR/ft3W3+M7GxfwPb/+qG9it6aGcV1VN97tJvj3JwSQHkpyRyZWeh5P8Vd/WvvN8Cn1bv6tquvOSPDKT7XgwydlJPpDJ4bbDSd7jXyLrw/yPU9/WNydpqqb71SQPz+R1uyCTnf6h6c9VfVvfuLou15/5H9boAsCX9G19Q5I3TX/Yo76t/zGTw2q7ObTGipn/cerb+sNJPpzk9avuZczM/zBGdQoAABiGAAAABRIAAKBAAgAAFEgAAIACCQAAUCABAAAKJAAAQIEEAAAokAAAAAUSAACgQAIAABRIAACAAgkAAFAgAQAACiQAAECBBAAAKJAAcLyb1qzOWG3ydvS7La8OO+N1G0ZR21EAON6hNaszVu9NcmyAOuu4HTd5Rjb5d9tkXrdhFLUdBYDjFTUAi9K39ReS/J8BSq3jdvxwki8MUGcdfzfzP05DbO+/79v6EwPUGbOi5l8A2KZv6+uTfHrOMrckef8A7YzdVWtSY1B9Wx9L8ldzltkaoMbgzP9ovXuAGmv3Xlu20uZfAJjtOXOu/5N9W982SCfj9rNJPj/H+n/Ut/WfDtTL0J6f5Ogc61/Wt/W1QzUzMPM/Mn1bH0nyG3OUuC2Tmaag+RcAZujb+veS/M89rv7OJK8csJ3R6tv6M0metcfVP5/kaQO2M6i+ra9O8sI9rv7RrPGHrfkfrecl+dQe1/2vfVt/cMhmxqqk+RcATuyZSXb7hvh0kh/p23prAf2MUt/Wv5Xktbtc7bYkT+/buhu+o0H9YiZv+N34XJIf7tv61gX0MyTzPzJ9W/9DkicmuXmXq74lya8O39GoFTH/AsAJ9G39uSQHkvxKdnY1++uTnNe39ccX2tgI9W39lCQ/lMnO71SuTnKwb+s3Lrar+fVtfXuS78rkX/M7OeR3ZZJz+7Zeu3P/25n/cerb+s+TnJvkT3aw+C2Z7Oj+9fS6FqZKmf/9q25gnfVt/Y9J/lPVdG/K5FD2wST3+4pFPp3kcJLL+7Z+8wpaHI2+rX+narp3JHlBkkdk8iF15y89ncmO/8okL+3bep5z60s1/eB8cdV0b8kkCDwsyTn5cri+IZMrgt/Yt/VrV9LkHpn/cerb+vqq6b4nycVJLspkR3bW9OljST6U5D1Jfqlv64+tpsv1V8L8CwA70Lf1Xyb5yySpmu7uSb41ycf6tv7blTY2MtND+s9IkqrpTktyXiaHK68d4LDZbg97Dlqnb+sPZHL4NVXTnZHJ7/aZvq2vG6ivlTH/4zN9P71m+pOq6e6T5J5Jrunb+pZV9jY2mzz/AsAuTQ8NFf91mXlNr5Id8ruy781kpztEnblM74EwxNey1o75H6e+rT+VvV8gyNSmzb9rANgUQ4SJL2Rykx+AjScAsCn+eoAah10MBZRCAGAjTK+s/6M5Smwl+bmB2gFYewIAm+Rp2dlXDWf59b6t3zFkMwDrTABgY0y/ZXBJdv9XCD+cNb4zH8AiCABslL6t35DkO5Ls9D77r87kxkND/HU/gNEQANg4fVtfleTbkrwks7/6dFuS/53k8X1b/6idP1Ai9wFgI03vtf9jSX6sarqzMrkb2j2T/E2SI31bf3GV/QGsmgDAxuvb+sYkb1t1HwDrxCkAACiQAAAABRIAAKBAAgAAFEgAAIACCQAAUCABAAAKJAAAQIEEAAAokAAAAAUSAACgQAIAABRIAACAAgkAAFAgAQAACiQAAECBBAAAKJAAAAAFEgAAoEACAAAUSAAAgAIJAABQIAEAAAokAABAgQQAACiQAAAABRIAAKBAAgAAFEgAAIACCQAAUCABAAAKJAAAQIEEAAAokAAAAAUSAACgQAIAABRIAACAAgkAAFAgAQAACiQAAECBBAAAKJAAAAAFEgAAoEACAAAUSAAAgAIJAABQIAEAAAokAABAgQQAACiQAAAABRIAAKBAAgAAFEgAAIACCQCrdfOa1oJlMP/jNNS29pqtmACwQn1bd0n+doBS1/Vt/fcD1IGlMf+j9d41q8MeCQCrd3iAGocGqAGrYP7H50iS2wao43VbMQFg9f56TWrAKpj/kenb+otJ3jdAKa/bigkAq3dZkhvmWL9L8uqBeoFle2WSv5tjffO/Gj875/q/37f1ECGCOQgAK9a39Q1JLp2jxMV9W39uqH5gmfq2vjHJ0+coYf5XoG/rtya5fI+r35DkRwdshz0SANZA39a/m+R39rDqZX1bXzl0P7BMfVu/Kclv7mFV879az0vy8V2uc0eSpm/reY76MBABYH38cJJnJbl1B8venOSpfVs/c7EtwXL0bX1xJv8q/MIOFjf/a6Bv6z7JQ5NcscNVPpTkkdPAxxoQANZE39ZbfVu/Ism3JfmDJJ+fsdhNSX4vyXl9W+/18Buspb6tX53k/CRvSjLrsL75XzN9W9/ct/WPJPm+TC7qu33GYp9I8qIkF/Rt7cK/NbJva2tr1T0wQ9V0+5LcP8mBTA6bHerb+pMrbQqWqGq6+yc5mIHmv2q6tyZ5/ACtvaxv6+cMUGfjVE135yTnJXlIks9k8rq5R8OaEgCAIggA8E85BQAABRIAAKBAAgAAFEgAAIACCQAAUCABAAAKJAAAQIEEAAAokAAAAAUSAACgQAIAABRIAACAAgkAAFAgAQAACiQAAECBBAAAKJAAAJTijjWrAyslAACl+Mia1YGVEgCAUhweqM6hgerASgkAQCmG2HHfnuSaAerAygkAQCk+kuTInDX+sG/r24doBlZNAACK0Lf1sSRPSXJ0jyVuSnLpcB3BagkAQDH6tj6U5MV7XP3Svq0/O2Q/sEoCAFCan0vysiTHdrj8rUme3bf1GxbXEizfvq2trVX3ALB0VdM9OskVSR5wksXeleQpfVt/dDldwfIIAECxqqY7Pckjkxyc/pyd5AOZfGPgcJL3TK8dgI0jAABAgVwDAAAFEgAAoEACAAAUSAAAgAIJAABQIAEAAAokAABAgQQAACjQ/p0sVDXdmUkuypfvlnV+ktMX2BcAsDM35ct3r7yqb+u37GSlU94JsGq6xyW5PMm95+0QAFi4tyd5at/W159soRMGgKrp7pTkFUkuSbJv8PYAgEXpkzR9W7/xRAuc7BqA5yV5Ruz8AWBsqiSvr5ru3BMtMPMIQNV0D0pydZLTFtcbALBgVyd5eN/WR7c/caIjAK+JnT8AjN0FSZ4764njAkDVdFUmfx8bABi/C2c9OOsIwIE47w8Am+KCqumO26/PCgAHl9AMALAcVZIHbn9wVgA4e/G9AABLdNy+fVYAcPgfADbLjk4BAAAbTgAAgAIJAABQIAEAAAo0KwDs6E8EAwDjNSsAnLX0LgCApZoVAO6x9C4AgEX6uu0PzAoA1RIaAQCW517bH3AjIADYfMft730LAAAKJAAAQIEEAAAokAAAAAUSAACgQAIAABRIAACAAi3svv/3//r9ecKBuy2qPABstDuObeXlb715YfUXFgC+8Wv25wcfJQAAwF7cfnSxAcApAAAokAAAAAUSAACgQAIAABRIAACAAgkAAFAgAQAACiQAAECBBAAAKJAAAAAFEgAAoEACAAAUSAAAgAIJAABQIAEAAAokAABAgfbPeGxriMKfu+VY3n3tbUOUAoDiHL1jkN3xlxzb/sCsANAP8V+65rrb85zX3TREKQBgPp/e/sCsUwA3LKERAGB5/m77A7MCwI1LaAQAWKFZAeDo0rsAAJbKtwAAoEACAAAUSAAAgAIJAABQoFkBYNA7DwAAK3fcvn1WAPjEEhoBAJbnuH37rABwaAmNAADL0Se5dvuDswLA4TgNAACb4uq+rU99CqBv6z7Ju5fSEgCwaFfOevBE3wJ4WhJ/yg8Axu3qJC+d9cTMANC39QeTvGCRHQEAC3Vbkif1bT3zFv8nuw/AS5K8Kq4HAICx6ZM8sW/rIydaYN/W1sn371XTPS7J5UnuPWxvAMACvD3JU/u2vv5kC50yACRJ1XRnJrkoycHpz/lJTh+gSQBgPjdl8hX+w0mu6tv6LTtZ6f8BonXU/H6QEAkAAAAASUVORK5CYII=;" parent="1" vertex="1">
          <mxGeometry x="320" y="793" width="103" height="103" as="geometry" />
        </mxCell>
        <mxCell id="eb6X6qhN3olK0OHb7I_1-33" value="" style="shape=image;verticalLabelPosition=bottom;labelBackgroundColor=#ffffff;verticalAlign=top;aspect=fixed;imageAspect=0;image=data:image/png,iVBORw0KGgoAAAANSUhEUgAAAgAAAAIACAYAAAD0eNT6AAAABHNCSVQICAgIfAhkiAAAAAlwSFlzAAAObQAADm0B1P1JnQAAABl0RVh0U29mdHdhcmUAd3d3Lmlua3NjYXBlLm9yZ5vuPBoAACAASURBVHic7J13mFTV3cc/d/rMzuzdvrD0XpQi0qSIoKigqCiisUWj3tgSE015kxiNmvYmppkYdU1ibG+MvcUYjQU1VgSsCCgCwqVsne0zO+X9Y5bEIGV35tw2cz7Psw88POy5v5m5c8/3/KqSTqeRSCT/QdX0/sDBPT8HAf2BABDcx08cqAfqen7qe37SgA/wAFVA6R6/F9jj722f+f26PdbcBKyK1tboBr50IaiargCjgcnAAKACqPzMn7v/7gM69/OzC2gEUmTeY/8ev18JlPdcdl9rdACfAO8D7wHvR2trWox67RKJk1CkAJAUKqqme4EZwET+e8Mvs9KuA7ATeAtY1fPnW9Hamk+tMkbVdBcwFjgUmNLz52QgYpVNveBTesRAz5+rorU171prkkRiPlIASAoKVdPDwCLgROA4oMRai4TwAfAw8HC0tuYtoy+maroPWAAsBU4A+hl9TRPYDDwCPAq8FK2tSVhsj0RiOFIASPIeVdP7AUuAk4AjybiS85Ut9IgB4OVobU1SxKKfEU5LyQinYhHr2pRG4AkyguDpaG1Nu8X2SCSGIAWAJC9RNb0COI/MhjUDcFlrkSXUkxECv4vW1rzT11/uce8fD1wILCS/hdO+6AKeAe4H/hqtrYlbbI9EIgwpACR5harpg4AryWxaIYvNsRPPAb8C/hatrdnvl77ntH8ucDkw0njTHMM24JfArdIrIMkHpACQ5AWqpo8Dvg2cAXgtNsfObAB+A/x5z01M1fTBwFeAC8iP3AijaAR+C/w2WlvTYLUxEkm2SAEgcTSqpk8HvkMmqU+x2Bwn0Qz8DvgZUA1cD5wKuK00ymG0A7XAL6K1NdusNkYi6StSAEgciarpC8ls/POttsXhdJCJ7cuNP3viwF3Az6K1NeutNkYi6S1SAEgcRY+rvxaYY7UtEskepIDbgG9Ha2uiVhsjkRwIKQAkjqCn9vw7wHfJdJCTSOyKDlwWra152GpDJJL9IQWAxPaomn4Y8AdgvNW2SCR94CEyQmC71YZIJHtDCgCJbVE1PQL8BLiYwqzjlzifKPAt4LYDlV9KJGYjBYDElqiafjxwMzDQalskEgG8CFwokwQldkIKAImtUDW9GrgRWG61LRKJYGJkyi1/Fq2t6bbaGIlECgCJbVA1fRmZDP9Sq22RSAzkXWB5tLbmQ6sNkRQ2UgBILKdnfvzVwDXIZj6SwiAKnBatrfmH1YZIChcpACSWomp6EPgzNnf5e90KVaqLfiUeSotcpFKQSqdJpfn339tjabY1JmloSyK/VnunyK/g8yi4XQoeN3hcCm4XeNyQTMH25iSx7oJ585LAldHamt9YbYikMJECQGIZqqYPIDN//VCrbdmNS4ExNV6mj/Azqr+Xfqqb/qVuysJuXL30TcS602xvTrKtMcHWxiRvb46z6pMYTe0pY423EeGAixHVHoZXeRlR7en58aKG9l/MkU5DQ1uSbY1J9Kbd72GCT3YlWL+9m1R+Pq5uAy6VeQESs5ECQGIJqqZPI7P597falsEVHqYN9zNtpJ+pw3xEgsZUHH6yK8Fbn8RYuTHGK+tjeXXS9XkUZoz0c/i4ANNH+OlXIr6zcFN7itc2xPjXui5e+yhGa2deCaoVwClyuJDETKQAkJiOqumnA7cDAatsqIi4OWlaiCVTQoZsVgeiPZbmufc6eXJNJ6s3xRwZMgh4FeYfFOCI8UFmjPQT9JmXvpFKwbufxvnXui5WrO1iU13CtGsbyEZgSbS25gOrDZEUBlIASEyjJ9nvOuAqK66vKDBtuJ+TZxRx+NgAbpu0FtrRnOT+19u5/7V2R3gFhlV5OHl6EYsnBwkH7PEmvrYhxl9eaeO1DTGrTcmVFuAL0dqaJ602RJL/SAEgMQVV04uAO4GTzb52cdDF8VNCnDw9xKByj9mX7zX1rUluf6GNR1d20J203/dy1ugA5xwe5pCh9h3F8MmuBPe+0saTazqJJ+z3HvaSFPDNaG3NL602RJLfSAEgyZmeTP4BPT9uMuNRY5/5CZJx+U820y6/V+GsOWHOnhs21T2dK9ubkvzh+VaeXNNBygZh7lH9vFy+qJhpI/xWm9JrmjtSPPRGxqvS2GaDNzE7bgd+RGb4lb/nZ/ff24GtwPZobU1exD8k5iMFgKTXqJo+DFgATCPTonf3T7mVdu2JosAxE4NccnQx1apzx9xvqktw23OtPPtepyU5ApXFbi46KsLiQ0K9roCwGx2xNLc918pfX20j6VgdsF9SwA4yYmAr8AnwMrAiWlvTZKVhEvsjBYBkn6iaPhCY3/OzABhirUUHZtIQH19brDJ+gNdqU4Sxdls3P3igybREt6BP4ey5Yc6cEybgdejOvwcf70zws8ebWbMpbrUpZpEC1gDPA88BL0Vra1qtNUliN6QAkPwXqqZXABcC5wKjrbWm99SUurnsmGKOPDhotSmGEOtO85u/t/DgG+2GXueYSUEuX6RSHrZHcp9o/r6mkxufijo5LJAtCeBV4BbggWhtTcEoIcm+kQJAAoCq6VOArwCnY2F5XjYsn1nEV44txufJj9Pq/njpwy5+9HCz8KZCQZ/CN5eoHHdISOi6dqStK8Wt/2zlgTfabZFjYQE7gFuBW6O1NdutNkZiHVIAFDCqpnuBU8hs/LMsNqfPqCEX3z+5hLljHaVXcqahLcXV9zex8mMxJW+j+3v54WmlDKmwb4WEEby7Jc73/trEzmjSalOsoht4APhttLbmVauNkZiPFAAFiqrp5wE/BGqstiUbpgzzcd2ppVQWOzfJLxdaOlMs/NGOnNepKXXz18urCsJ7sjeiHSl+8EATr6x3fP+AXHkD+Eq0tuYNqw2RmEd+Bvok+0TV9FGqpj8H/AkHbv4uF2hHRrjpSxUFu/lDptJBBCP7eQt284eMF+mXZ5dzycJiYe+pQ5kOvKpq+o2qpkesNkZiDlIAFAiqpntVTf8e8A6ZrH7HUa26ueX8Cs6fH3FsWZrEfigKLDk0RMQmXQ0txEUmHPiBquknWG2MxHgK/o4vBFRNPwxYRcbl78iA+ewxAe65rJJJQ+zbhU7iTFJpuOb+Jlrya7hQLgwEHlU1/X5V0y0f1iUxDikA8hhV08Oqpt9EpjHIwVbbky0nHBrihjPLDJvSJyls/ryilTcEJVTmGcuAtaqma1YbIjGGwkr7LSBUTa8GngSmWG1LLpw7L8zFC4utNkOSp6zeFOe252R/nP2gAreqmn4ocEm0tqZgSybyEXmkykNUTR8JvIKDN39FgSuPV+XmLzGM5o4U37+vqVB7AfQVDXhY1fT8bxRRQEgBkGeomj6NzOY/3GpbssXrVrj+1FKWzyyy2hRJnpJOw7UPNFHXIg+0fWAJ8Kyq6baa/SHJHikA8ghV0xeR6f1dabUt2RL0KfzynDIWTszPlr4Se3DPy22y9j87ZgKv9AwGkzgcKQDyBFXTzwUeAxx7bC4tcnHLBRVMd9DYWYnzeHdLnN8/02K1GU5mNBkRcIjVhkhyQwqAPEDV9O+QmR3u2KTOQeUe/qBVMLYmf6b4SexHa2eKq+5rytfRwGbSD1ihavpCqw2RZI8UAA5H1fSvAj+22o5cWHBQkDsuqWRguWP1i8QhXPdQMzuaZdxfEBHg8Z68I4kDkU9cB6Nq+jzgF1baUFPqpjziprTIRVmRi9KwG5cCDa1JGtpSNLalaGhL0tCaojv5n7kTPo/CrNF+ls8s4tDh0uUvMZ6/vtrOi2u7hK/rUjLNhHbj8yhUqW6qP/MT9iu0dKVo7UzT2pmipTPFxzsT1Lc6Xoz4gYdUTT80Wluzy2pjJH1DCgCHomr6IOA+TP4MKyJupo/0M32En+kj/b2eG59OQ0Nbkp3RJKVFbvqVuGU7X4lpfKh389unxMf9q1U3d15aSXtXmmhnimrVTVmRq9dzBbY1JlmzOcaaTXHWbI6zpT4h3EYTGAg8oGr6gmhtjSNfQKEiBYADUTU9ADwEVJlxvUjQxRdmFbHgoCDDqrK7ZRQlIx4qIoU7wEdiDe2xNN+9t/G/PFAicLvgh6eVUhJyURKCAfT93h5Q5mZAWYjjDsmU1++MJrn3lXYefrOdzrijJrXOBX5FZpaAxCFIAeBMbgamGn2R3Rv/6bPCFPnlcV3iTH78SDPbGsW72i86qpiJg8XOpqhW3Vy+qJhz54W577V27nu13UkzCi5TNX1ltLbmDqsNkfQOKQAchqrplwHnGnmNSMDFF2YXcdphRYTlhDSJg3nojXb++W6n8HUPG+Xn7Llh4evuRg25uHBBhLPmhHnojXb+71/tTskXuEXV9PejtTUrrTZEcmDk091BqJo+F/ilkdc4fVYRj3yjivPnR+TmL3E0G3Z086snxcf9K4vd/ODU0l7H+XMh6FM4c06Yh6+s4rTDiky5Zo4EyCQFOrYZWSEhn/AOQdX0gcD9gCGF8j6Pwg+WlfL1xarc+CWOpzOe5nv3NhFPiI2ju1xw/fJM3N9MfB6FK45TufHcciqLbZ9HMwi4X9V06WG2OfJJ7xxuA6qNWLgi4ubWCytYNFm235XkB//7WDObDciov3BBhEOGio3794XpI/z85SuVTLN/t8x5wJVWGyHZP1IAOABV048FjjVi7YMG+rjjkgrGD5Ad+CT5wROrOvj7GvFx/+kj/Jw7LyJ83b4SCbr41TllHDPJ9oL9u6qmm1KpJMkOKQBsTo8bzZC4/6LJQW65oFyW5knyhk92Jfj541Hh65aHXVx7aqlteld43QrXLivlLAMTEQVQDFxntRGSfSMFgP35MjBO9KIXHRXhB8tK8Xls8kSTSHIk1p2p9+/qFhz3V+C65aWU9bLplVkoCnzlmGLOn2+9V2I/XKBq+sFWGyHZO/a6oyX/harpJcC1otc97bAizjvC1g8NiaTP3PBElI27xMf9vzQ/wlQbt6vWjoxw0rSQ1WbsCzcWtyuX7BspAOzN1UC5yAUPHxfga4tVkUtKJJbzwbZuHnurQ/i6U4b57X7CBuDbS0qYNy5gtRn74mhV0xdbbYTk80gBYFNUTR8FXCZyzXEDvFy/3D5xTIlEFLe/0Cp8zdIiF9cvL3HE98XV05Z4guDOhAK5QZYF2g8pAOzLDQis+Y8EXfzszDICXgc8zSSSPvDxzgQvfSh2yp+iwLWnljoqQdbnUfjh8lIi9uzjMY5MPpPERtjyTil0VE1fAJwgcs3/OUGlyv4NRCSSPvPi2k7SgufmfPHwMDNG2jfuvy/6lbj59om2DfH9oCevSWITpACwGaqmu8hM1RLG4kNCHDXB9jXDEklWdAiemjd5qI8vH1ksdE0zWTgh+O/pgjajArjKaiMk/0HGZGyAqulDgOk9P3OAiaLWril1883jbXsikEhyRuTY3JKQK5Mn4/Cj0TeOV1mzOWbIFMQc+WpPftMbwJvAm9HamiaLbSpYpAAwGVXTy4Bp/GfDnw4Y1i3ruyeVEJKjfCV5jCj3v6LANctK8iJUFvIrfOP4Er5+Z4PVpuyJl0x4c3eIM61q+kdkBMHunzXR2hqxSR2SvSIFgAmomh4BTgHOBo7ApNDL3LEBJ/QMl0hyYvaYAA+83p7zOmfOCTNrtG1L6frMrNF+Zo3288r6mNWm7A8FGNXzc2bPv7Wrmv4wcBfwbLS2xnZujHxBCgCD6Cl5OYbMpn8CYGoQ3uNWuHyRc+OYEklvmTHST0nIRXNHKus1Jgz2ccnC/Pu+LJlSxKsbYsKTJA2mCDir52eHqul/Ae6K1tasttas/EMKAMGomj6DzI17GmDZTOxlM0IMKpcfryT/cbvgmElB/vpqdl6ASNDFD5eX4nZ43P+zvL05zh+ea+WNj219+u8N/YCvA19XNf0D4G7gnmhtzRZrzcoP5A4hAFXThwLnkNn4R1lrDaghFxc4oHuZRCKKS44u5v2t3bz3abxPv+dywbXLSuhX4vy4P8A7W+Lc9lwrb3zk+I1/b4wHfgz8SNX0F8mIgb9Ga2vEd4EqEKQAyAFV04eTKWs5Gxu9l2fODhMJ5tFxRiI5AAGvwi/PLkO7rZ5Ndb2bB6Ao8L2TSpg9xvlx/3d7Nv7X83Pj3xMFmNfz87+qpv8CuDFaW9NmrVnOwzablpPoOfF/DzgXm72HQZ/CydNtWQMskRiKGnJx47nl/Pzx6AE7A/YrcfPtE1THJ/2992lm439tQ0Fs/HujDPgRcIWq6T8Hfhetrck9I7RAsNXmZXdUTR8IfB84D4FtekWyZEpInv4lBUu16uaGs8p479M4d7/cxobtCfSmBCgwqtrL5KE+Jg/1cdioAEGfc8tj61uT3PB4lOc/kNVyPZQDPwWuVDX9Z2SEgHxzDoAUAL1A1XQ3cDlwHZkMVVvicsEXZoetNkMisZyDB/n46RfKAIgn0iRTOHrD3006DY+u7OC3/2ihrSv7qoc8phL4OXCRqukXR2trnrHaIDsjBcABUDV9GnArcIjVthyII8YFqSnNj2QmiUQUPo/zN36ALfUJfvxIM6s39S3RsUAZATytavr/AVdEa2t2Wm2QHZECYB+oml5MJrZ0CQ6ZmXDWXNs6JyQSSZYkU3DXS2388flW4glnFfTbgDOARaqm/w9wW7S2Rr6Bn8ERG5vZqJq+BFgLXIZD3qP54wMcNNC2s8AlEkkWrN3WzRd/X8fNz7TIzT97Ssl4cV/umUMg6cERm5tZqJruVjX9J8CjQI3V9vQWv1fha4vlwB+JJJ944PV2LqitZ8OObqtNyRdmAStVTT/JakPsggwB9KBqeiVwL7DAalv6gtet8IM8amQikRQ68USanz8e5bG3Oqw2JR8pBh5WNf1/ge8V+pwB6QEAVE2fCazCYZt/kV/hl+eUseAgU8cMSCQSg6hvTXLRHxrk5m883yaTJGjYJFYnUPACQNX0S4AVwECrbektkaCL8+dHeOQb1UyX0/4kkrzgnS1xzrmpjve3yix/k1gArOo5ABYkBRsCUDXdRSYx5AKrbdkb1aqbEdVeysIuysMuyiNuakrdDKnwMKDMk1eDSySSQueRNzu44Yko3UnrE/36l7gZWumhOOiipTPFhh0J6lvz1lM+AHhR1fQvRWtr7rbaGLMpSAHQM6r3LuB0q23ZzZAKD5OH+jhkqJ/JQ3z0l/X8EklBUPtsK3983tp5NuVhF4sOCbFkSoihlZ/fFrY2JlizKc7qTXHWbI6ztaF38xYcghe4Q9X0YLS25jarjTGTghMAqqb7yCT7LbXSjlH9vEwZ1rPhD/VRWiSP9BJJoXHT0y3c+aI1M2xcLpg7JsCSQ0PMGh3Yr1dxYJmHgWUejp+SmTPS0JZizaYYqzfFWfVJjI93Ol4QuIBbe0TAjVYbYxYFJQBUTQ8ADwGLrLh+JOhi8eQgJ04NMaLalqMEJBKJSfz6yRb+8or5m7/LBYsmhfjSEWEGlme3BZSHXRx5cJAjD84kIG/Y0c2jKzt4ak0nrc5tUawAv+kRAf9rtTFmoKTT1seczEDV9CLgMSzI9J8yzM9JU0PMPyiQN21Jc6W1M0UyDWrQhSLfkj7T2pXiqB/uyHmdw8cF+PmZZQIskvSWdBpueCLKA6+bO7TO5YJjJgY5f36EQVlu/Acinkjz3PtdPLqynVWfODqZ8dpobc0PrDbCaArCA9DT1vdJYLaZ1501OsAlR0cY1a/wTvvdyTRvbYyzfns39a1J6ltT1LcmqWvJ/H13VzOvW6E84qIi4qYy4qKi2E1lxM3wag/TR/jxe6U6kOQP6TT89LFmHnnTvDK/3Rv/l46IMLjC2Ee+z6Nw7KQgx04KsmFHN79/upVX1jtyKN81qqaHorU137LaECPJewHQk/D3CCZu/pOG+Lj06GImDSms1rxtXSleWR9jxdouXl3fRXvswN6l7mSaHc1JdjR/PsvY71WYMdLPvHEB5owNUBKSeRISZ3PDE1FTN/9Dh/v51hJ1r4l9RjOqn5dfnVPG25vj3PR0C29vdpxH4JuqpjdHa2t+bLUhRpH3AgD4BTDfjAuN6ufl4oURZo8JmHE5W9DVneZvqzt44f0uVm2KkxBYxhTrTvPi2i5eXNuFS4GJQ3zMGxfghENDhANSDEicxQOvt5vm9ldDLi5fVMxxh4RMud7+mDTER+2FFfxrXRc3P9PqtNbG16ua/na0tuZvVhtiBHmdA6Bq+rnA7UZfJ+hT+NoilROnhgomnp1KweOrOqh9ttX0GmE15OK8I8Ism1GE110gb/geyBwA6Iyn8XsVXA64Bd74KMbX7mwgaUJ+3HGHhPjqomJbeszSaXh0ZQe//nuUzrhj9p4oMCNaW7POakNEk7cCQNX0GWQ6/BnaKu+ggT6uPbXEsKQaO/LSh13c9HQLn+yytvSnf6mbi48q5uiJwYIRXrspRAGQSKZ56u1O1myO8/6ncTbVJfB7FcbUeBlX42P+QQFbht021yc4/5Z6w7PjB5Z7+M6JKlOH27876Jb6BFff38TabY7xBqwjIwKiVhsikrwUAKqm9wdWYuBEP5cLzpsX4fz5kYLpyvf+1jg3PtXCmk32iuWNqfHylWOKmVZAbZELTQBsqktwzf1NfKjve8NQFDh1RhGXHF1M0GcPRdjameK8W+r51ODGOUceHOT7J5fY5nX3hkQyzW3PtXLni22knLEN/Q04IVpb49g6xz3Ju62rp9HPgxi4+deUurn1ggq0Iwtn87/zxTYuuLXedps/wDq9m8tub+DGp1qc8iCR9IEnV3dwzu/r9rv5Q8a9fN9r7Zz1uzr0Jutb16ZS8J17mwzd/N0u+NriYn58eqmjNn8Aj1vh4oXF3Hx+hVOmmR4HXG+1ESLJx+3r98BhRi1+9MQg91xWxcTB9nM1GkE8keYHDzRx09P231zvebmNK+9qoM25jUgke7CpLsFPHo0S6+79zbe1McG1DzZZfr/e/XIbb34cM2z9ioibm8+v4AuzwoZdwwwmD/Vxz2WVzD/IEcnT31U1/VSrjRBFXgkAVdMvBc43av3TDiviulNLCfnNU9qKklH5XjemJzs1tKW46A8N/H1Np7kXzoFX1sc4/1bjXa4S40ml4fqHmv/dM6IvrNkU5y//sqbFLsDHOxPc9pxx/f0nD/Vx16WVtsx5yIZwwMWPTy9j6bQiq03pDbermj7RaiNEkDcCQNX0ucCvjVr/S0dEuOI41ZRksyIf9IvAqAoYU5n5c0R55s8BKkT8GG7HOr2bc3/vzNGkm+oSnHdzPW98ZNzpS2I8f1/TwXufZn//3fLPVrr64DkQRTIF1z7YlJVw6Q2HjfJz4xfLKQvnzeMbyBxw/udElTPn2N6jUQQ8qmp6qdWG5Epe3EGqpvuBP2JQX4OvHFPMl4+KGLH0fxHxw9AyGFQCJUE+l1+gKJn/M0CFoaXgMejTe3tzHO22ena1WB9HzZbWrhSX39nAs+85x3sh+W/e2ZKb+Iwn0pZkmf/phVbWHSBfIVvmjQvw87PK8rpD5lePNed5myNDgZ9abUSu5IUAAL4FjBK96G5FetZc4xSpAqgBGF6e2dgDvZQwfg8MKQWf4NyZHc1Jvv1/jZacnESTSsF1DzYb9jCWGMtHO3IP4+TiQciGdXo3t79gjOt/4YQgP/lCWUH0vjDT45oDF/aUmzsWxwsAVdOHA98Vva7bBdcsKzU0JhXyZTb+/sXZbeRed0YEiHoedMbTXHl3I03t+ZNE19Wd5pv3NNLYlj+vqRBIp+HjnbkLtw+2mif+Umn40cPNhjT7Oe6QENctLy2YqiPI5FxdtbQEl31fswLcrGq6I0oY9oZ939re81tAaPqoosCPTivj2ElBkcv+1/pVYRhcktnEc8HtghIB3T7Tabjm/iY+clabzl6xM5rxanQLbFMsMZbOeFpIp7iEiaUAT67uYN128d+fWaP9mY3Q3qdhQzh+SogfnGLrUPshwCVWG5EtjhYAqqYvBRaLXveC+RHDSlICnkz8vkxgi+6yYO5Jgbf8s4UVax05tatXvLMlzk8fzasmXnlNp6AQlFmx8s54mpufEe/6H9nPy49OK7PzKdhwjpkU5IuH2zox8HpV0/tZbUQ2OPa2UjW9CPiN6HXnjAlw/nxjElDKi2BIWSZ+LxK3K5McmC3Pf9DFn1dYVzJlFk+s6uDBN8ydwS7Jji5BfeL9HnMEwN0vtwmfiVERcfPLs8tMLTu2KxctLGb6SNt2+lTJDJ1zHI4VAMDVwCCRCw4s9/CDU0uEJ574emL1lUWZoJERZFsREE+k+c3fC+dkfPMzrYb3ZJfkjqgk1IAJHoC6liR3vyRWQAe8Cr84u4xq1bHhZaG4FPjh8lI7dww8Q9V0U6bOisSRAkDV9PHA10WuGfQp/OyMMiKCx8wGvZlTf9ArdNnPkW188IHX29luUttUj1uhNOxmcKWPgwYHmDAkyNAqH2URD16TTmqtnamC8HY4na5uMSLNjBDAbc+J7zdw6THFjK0x+KHhMNSQi5+dUYbvM8+KIr/CrFE+Fk8KMKDMcnHwe1XTHfWhOXWE3e8BoW/0904qYUS12Lcj7IcBxcY37YHsBEBrV4rbXzB2M1RDbsYNCjB+YIBh1T7c+zA0nYbNdXE++LSLtVu7aGg1rpPffa+2s3xmkTxd2Zi+tP7dH0Z7AFo7Uzz1ttheExMG+1g2wxEd8UxnTI2X7y1VSXanWDIlwMhqz389++pbU7z+cZxrHmphg4Ay0j4yFrgSB/UHcJwAUDX9NGCeyDXPmB1m4USxGf8lwUw3P7OIZXGv3/liGy2dxrjDS4rcHD25mEnDgr0KeygKDK3yMbTKx+JDi1m3rYunVrews1n8lzieSHPrP1u5+pQS4WtLxCDqRG10DsDfVncKEysAXrdSsBn/vSHggYvnh/aZR1URcXHc5AALDvJz3cMt3PxsOyYPvP2+qul3RGtrtpt61SxxYgjg2yIXmzLMx2XHFItckrKQuZt/Og2tfex6u6slyb2viE+I87oVFk0pKtGl1wAAIABJREFU5ooTqpjcy81/b4wZEOArx1WxdGYJAa/42/TvazrysuQxXxAmAAz2ADwkOKn0vCPCDK103LnMFIp8vU+iDnoVfrJc5dbzTC8hDAFfNfui2eIoAaBq+gIydZdC8HkUrloqtrmGGsjU+JtJa4w+Tz774/OtwnuVF4fcaEdXMHd8GI+A7kQuBaaNDHHJogoqisU+FFPpTK94iT0RVgVgYET2rY0xNteL81CNqPbavdzNMtxKpmFaX58qp80MsnSqMf1c9sOXe6rUbI+jBACZ+IowzpwTFpo4EvZBP7HOhAOSSkNDR99+J5mCZ98TW/M/sNzLpYsqGFAu/olbUezhkmMrGNlfbBnQqxtisiLApnQ4oAzwwTf6+MXbDy4XXHVyiRDhnI9UR7KvdPrlmSpVxaZudaXAl8y8YLY4RgD0ZP4vErVeVbFbqNoOeqFGNa7Mb2+k07A12vf4/5pNMVoFxv7LIh7OO7KcSNC4pLqAz8XZR5QJFRiJZJqXP5QTA+2IqHbURoUAGtpSQhtnnX5YmPEDHJVAbhoeFxTn0JetrMjFGbMEdl7rHV93QotgxwgA4AoE7q9fPbaYoE/Mcj43DFSzL8XLhlQatrdCRxazTkQ+uPxehXOOKCPoM/5W8roVzj6ijGKBQmPFWjkt0I40tIoRAKLLenfz2Mp2EoJaSw8oczth+p1l9HZA2v44ZIjp4moYsNTsi/YVRwgAVdOrgbNErTd5qE9Y1r+iZKb4mTWkI5mG+nb4uB5astzHX/xQnAA4eWYJVap5SUvFQTdnzisVpgRf2xAzbG67JHsa28T0piiPiP9iptLwyEpx7v8LFxSb0rDIqQQE7N2TB/tyX6TvfMOKi/YFRwgA4DJASADYpcCVx6kilgKgOiy+te/eiCVgZ2tm469vzwiBbNiwo1tY45+hVT4mDDE9wYZBFT4mDhVz3c54mtc/kmEAu9EgaHpjWVi8F/aV9V3saBbzHSotcnHUBGPmjuQLIp6vQyvdwjy+fWCGqumzzb5oX7C9AFA1PQRcLGq9k6YVMbq/GHdQcSBT728kiRRsb4FPGqGps+/Z/nvyokD3/6IpJmc8foaFk4v32VSor7zwQf4OQXIqIjwALleme5xoHhV4+l86rQivTPzbL6LeHZ9J3Ub3QGjiumhsLwCAc4FyEQtFgi4uEhRr87mNrfVPp6GhHTY2QFTg/rTqkyySBvbCmAEBBlVY4lYDMie7KcPFqK/Vm6QHwG40CvAAlIZcwvNykilYuVHM/eJ2wcnTTU9Ok5jLiaqmj7TaiH1hawGgaroLgT3/zz08LOREsDvub1TSXyIFW5qhrj33E/+e1LWIcV1OtMD1vyeiwg91LbIU0E50xNJCGgGVR8S7/9dui9MRE/OlnH9QkMpi2yeKS3JD6B4mGlsLAOBoQIh68nsVTpwqRm2XhYyL+3clYFMjdBrUpK5OwMhSlwJjB1o/mnNYtU9Il8B4Im1YS2RJ3xGWABgW/3hbuVGMBw3gVNnvv1A4166NgewuAE4RtdAxE4NEgrm/XK8byg3y2rV0weamjAfACDrjaSGnl6FVflPK/g6E26UweoAYISK9APbBzgmAbwly/4/u72XyUOtCaBJTCQHHWm3E3rD+Kb4PepoonChqvWUzxQiw6rAxrv/6dtBbMHRwhSj3f6WJZX8HolqQLfUCPCMSMTTYtASwO5nm7S1iPAAy9l9wnGy1AXvDtgIAmANUilhowmAfYwRk/od9mRG/omnqzAgAo6kX1VxFgCdFFMUhMac8KQDsw9YGUSEAsR6A9z7tFjb5b/YYWfpXYBynarrtXD72eZJ/HmGKSUSsTVEy/ahF0x7P1PebgahNzsiWv31FVFfAehkCsA1bGsQM2CkTnAMgyv0/tNJDlUz+KzRUYIHVRuyJfXy5n0dIG8WysIsFB+eutstDmfi/SOIJ2BYVu+b+EDX4xk5dywKCmnvIoUD2YYugCXsVgqsARJX/zRhpfQKtlbiUTHvfgDdTTq0c4CssohUwwC/PUInvp4NaOg16U5I1m7tZvaWbbY3CvYInA0+JXjQXbCkAVE2fBgwSsdZJU3NvtOF2ZTL/RZJMwadR8WV++0NUUlS7jTbLNkG2iD4tSrJHlAAYXCFWAKzbLqY0Z+aowhQArh4vqmpR9GPZ9L6VDX+4PcElf27mLUG9U8j0BLgoWltjmweoXZ96Qtz/bhcsFZBsUxoUm/iXTmdO/t0mh50rBG1yIicJ5kpLh5g3UfRpUZIdbV0pIZMAQ35F6Gfa1J4SUkHjdSscMrTwBECRD4aVWbf5Z8PY/h6e+XYF3z8pIqpbYxWZ3DbbkNcC4PCxgZxjbS4FSgWf/ne0QodBdf77Q1TTkZZO+yTMtXSIESNSANiDLYISAIdUiHVubmsU45WYMNhrRU96Swl6YVCJ+BCqGbhd8I3FEX6yXFjbc1tNCLSdAFA1/SBgtIi1jpqQe6e40iCIbNXdGhPb2rcvlEdcB4y39YatDeKaoeTKlnoxtlQW2+6rUJBsrhOz0YoWAFsFxYOHVZo+ltZSFAX6WzcyRBgXHFHE4WOFeG5sVQ5ox6eeMPf/jBxjbS5FbOw/lTYv439veN0KqoASvp3NCRpbxTyoc6ErnmLTLjECQHoA7MGngioAhlTa0wNQU1pY91llUSbRz+koCtx8bgkhf84nqMGqph8qwiYR5K0AmDjYRySQ28srCWaEhCjq2ozr8tdbKgSFAT7Yav0EvXV6jKSALMoiv1Jwblm7IioBUHwIQIwHoH+BCYBiB8X8D8TAMjfThwsp5beNF8BWAkDV9H7AZBFr5dpoQxF8+u/szjT8sZr+JWIeQKs3dmJiAcNeWbVRzFjW/qW2LIYpSEQJgKGCPQCiuhPWFNC95nFlfvKJyUOEhHAWiVhEBHb7eGaIWihXARDxi715d7aJWysXDhstJgN5e1M3b39inaLZuDPGBl1MXfZsQe+JJHdENAFyKTCoXOxG29YlRu4WUgjAqIFpVjJ5sBABMEHVdOvHqWI/ATBdxCL9StwMr8rt7hNZrtIWgy4Lsv73xuFjA0ISAQGeXtNCYj+NNYwiDTy1qkXYevPG55Gf0sHUtSTpjOd+P/UrcePziA3piGgBXORXhIwjdwr5dvoHYZVUHmCKiIVyxW4fkRABMHt0bg90jytTtyoKM/r895bKYjdja8RkIje3J3n2HfOzGt9Y387WBjGKqiLiZvwA27XoLkg2CaoAEO3+Bxia44ECYExNYd1nMevzhIXzzhZhJzlh3u5csI0AUDVdAaaJWGv2mNxcuiJP/60x6LLZF+HwceJe4Ir323hnk3mhgI07YzyxUtzp//Bx4jwiktx471MxFR2DBScAAhw0MHfRLGINJxFLGDvd1ArWCJoGiaDDbq7YRgAAY8gMTMgJn0dh6vDcBIDIzFU7nf53M0+gAAB48NVmtgk6ke+PhtYE96xoEpL5vxvR74Uke979VMw9ZIQHQISXaHyBCYA09jv85EI6DSs3CnvOSQGwB0LekKnDffhzGFYT8IhLXmmL29MNNqLaKzQZqTuZ5o/PNrBhu5ikvL3xaX2c2qfr6YyLq6Ms8iscKqasRyIAUR4A0SWAAAcP8jFuQPYb+MAyD7NyDE06kV02SX4WwR9eaOfjXcIe6MNUTRcy7j4X8k4AzByV25dMFZib2WyDsr99ccKhYvsbd8VT3PFcA6+uE+/yeHtTJ7c90yB8BsHiQ0KienxLcmRzfYKooLbOQw3otud2wdWnlGaVXKgo8P2TS2w1RdMsOruhQUy1rqVsqkty9UPiQo89WO4FsJMAEJIUMaZ/9l9+RYFiQRVh3clM9r9d+cLssPDud6k0PP5mlDueb2RHc+6ussa2JPe+3MRfX24SXm0Q8iucPz8idE1J9rwrKLbar8Rt2GTH4VUetCP7fs+cfliYyUML19NU3w4d9uke3mca2lJof2oSMgxqDywXALao1FQ13Q9MzHUdRYFROQiAIq+4zn/N1jfK2y8Br4J2ZIQfP9IsfO1127pYr3cxeViQuePD9Cvp22fS2JrglXXtvL6+Q2i8/7OcPTdMaZGd9G9h864g9//EwcZutGfPDVNV7OaGJ6K0HMAjFfQpXHZMMadMLzLUJruTTsOW5sxclcqw2MmqRvP4qi6+fk8zda2GtHCVAqCHyUDO39z+JW6KcujVXCTo9J8GojZ2/+9myZQQ977SxkZxca1/k05nugWu3thJWcTD+IEBRtf4KQ27KQ65/+16TyTTtHamaGpP8NH2GGu3drGz2djEiYqImzNmhw29hqRviPIATBpi/En7mElBpo7w8+sno7y6PkZr139vDkFfJhH5iuPUgmr8cyCaOjN5USUBCHgz+VYiW62LoDuZ5oNtCVZtivP0uzGefNvQk5wUAD0Icf+PzuH0DxkPgAjaYtb3/O8NLhdcekwxV97VaOh1GlsTvLy2jZfX/icjaPcpwKAD/n7RjowUZDzWrrTH0nwiSISaIQAAysMurl9eSjoNWxsTfLC1m+5kmvEDfQyt9DjqlGsm3Umo+0yakMfFActw+0cgJOBj3dQI1z3YzJsb9x6bTQO7oiliCdMeSmWqpo+M1tZ8ZNYF98QuAkCIEspFAHhc4BP0brTY3P3/WeaMCTBlmI9Vn5gbpLNi44dMHHfJFLEJkJLceP/TuJD7ocivMKLa3FI7paftsOjWw4VCbw5Kop4V3UlQi9xsaRAz10EQ0wHLBIBdHDA5x/8BRvXLIf4v6OCQTkO7wxJevrVEyJhL2+NxK/zPiSW47HLXSwB4R5D7f8Jgnzx5S/ZLrl5iA5hk5cXt8igcLGKRXD5cUQKgo9u60222DKvycN2ppXn/8PzmEtU0F7Gk9zglAVDifGwoAIZYeXHLBYCq6cUI6AAYCbjol8OoW1ECoNXGpX/7Y+7YABcdVWy1GYaxbEYRJ02Vrn+7kU7D+4I6AEpxJzkQNaW5JYobQGELAAS9AaP6Zx+DE5mNaufa/wPxxXlhjplkiymVQjm0JyNbYj821SU+l0WfDW4XHDRQCgDJ/sm1VNwAhHi/s8UOAkDIG2CH+H9ntzOy//fHVUtLcmp5ajdqSt385PRS25UbSTKIiv+P7u8l6LPVyU5iU3JpFmcA/VVNt0y52uGxmDfx/zaHJf/tDZ9H4Yazygzpp242FRE3N5xVXlAz2J3Gq+vFlMwMKHP+/SoxB5vlASjAIKsubocnoxABkEsZTkDQ/eDkdpefpSLi5o8XVTBzlKDOSBYwboCXP19cwYhquTHYla7uNK9uEBMz++e7nZz5uzoeXdlBrNthWbgSU7FhyaZleQB5IwCy7WvvdYtpTZlO59foy0jAxa/OLue0w5zXxvToiUFuvaCCymLZhc3OvLYhRpfAzfqjHd38+JFmlvx8J79/uoU2AbkFEusREVZNpWH3OJHyiB22vf+ioAWAkBdfkeWHGhAkBrsSGRGQT7hccMVxKt89qQSPA6bmKQpcsrCY65eX5jQSWmIOL3xgTL/saEeKO15s46yb6oSNGJZYh4iD1WfHspeHbXcwsCwR0A4CIOcXHw64sn7gixIAnWIqmWzJiVND3HReuWFT1kQQDrj4+ZllfHGe7PHvBBLJNC9/aGzJzPamJNpt9dyxos1xvTkk/6FLwLP1s8/noE+xW+OzwvQAqJruAWpyXSfb0z+AX5AA6MhjAQAweaiPh66o5oIFEVtlW/s8CmfMDvPQFVXMHRuw2hxJL1m5MS6k/O9AJFPw+2dauPKuBroFj5SWmEMskXsYYM/urKJHoedIYQoAMpt/zp9ELh+mqATAfPYA7CboU7hwQYSHrqhm2YwiS8MCLgUWHxLi/q9VcfmiYpnp7zCeN8j9vy9eWR/jmvubpSfAgaSBHS3Z/35r7PMCoNxe3syCFQCWxv/drswQoFyJJzMnjUKhLOzim0tU/np5JQsnBA84zUs0s0YHuPuySq45pSSn7o8Sa0ilYcUH5k/Meva9Tn7xRNT060pypy0O0SxumWQKdrR+/t9t5gEYpGq6Jacpq+shhCQ/lGf5YQpLACyA0//eGFjm4YenlXLRwggrPujihQ+6eE/QZLc9GVvjZd74AEeMDzK8yurbVpIL72yO09RujWJ+4PV2KovdnCtzRRzHztaM5y/Sy+rk7iToLXs/nNmsEsAH9AO2m31hq5+k1SIWqSzO7sMUFf+P2Wq6pPkMLPNw5pwwZ84J09iW4sW1Xdz4VJT2WG5KwO2Cry1WOXxsQJ708wiz3f97cuuzLUwf6Wd8HnW8LARSadgWheIAVEdgfxHIaFdGMOzrMGLDSoD+WCAArJZBQorMK7L8MEV5AOJ5VP+fK2VhFydNC1FTmvubG/S5WD6zSG7+ecYLFrj/P0sqBT98qJmETAp0JC1dsLEhc7pv7Mg0YOtK/GfT39QI21v2P5U1l8Rxg7BkUpnVHgAhLzrbEIAoD0C8wD0AEklv+VDvZkez9V+Yj3d28+cVbVywIGK1KZIsSKYyQiDb3ECb5QCARQLAahkk5EVnq+a8gu4BKQAkkt7x/PvWuv8/y59XtLGpTrrvChGb5QCAIG94X7H6XRAkAPq+k7sUMS2A48n86wAokRiF1e7/z9KdTHPLMznUl0kcS5n9cgCkByBbAll0ARRR/gcy/i+R9JZNdQnbnbhfWNvF+u0FWsZTwGSzZxiMFADZ4FIyPev7ikeQACz0CgCJpLf8bXWH1SZ8jnQaap/dS6G4JK8RFf4ViBQA2ZBtNzrpAZBIzCOeSPP4W/YTAAAvfdjFh7r0AhQSNhxuJgVANmSr5LyCXrmIUZUSSb7z3Ptdwpr/GPHwvvvlNuFrSuyN114iQAqAbMj2QxQVAiikFsASSbY8+Hq7sLXuuLiCM2aL7eT3gkCBInEGovYAQUgBkA1WhwCkB0Ai2T8bdnTzzpb4gf9jLxhR7WFkPy+XLypm2QxxlVPdyTRP2jBHQWIc0gOQFwIgy98T9MqlB0Ai2T8PCDz9Lzgo+O+/f+N4ldljxI2AfvjNDlnSW0BID0AeCICsQwACXnkynRlVKZFI9k57LM0/3hbX/Gf+ZwSAosClR0eETaP8tCHBqk9iYhaT2B7pAbBeAOTsw8s2CVCE+pOnf4lk/zyxqoPOuBiZPKLaw4hqzx7/5uWI8QK9ACtlGKBQkALAQgHQM/84529uNh+ixwUiPnoZ/5dI9k13Ms3dL4nLrt9XzP/CBeK8ADIZsHCQIQBrPQAeBOzD2SQBimgBDNIDIJHsj8ff6mBXi5hOWZGAi0WT9/6MFOkFkMmAhYPNPAA+Ky5qmQCI1tZ0IyCE7s1iop+o04IUABLJ3kkk09zxorjT/5JDQwR9+/7injVHXFmgTAYsDGzWDdCS5BOrcwByftHZqDhRAkCGACSSvfPE6k5hY39dyr7d/7s5eJCPEdVeIdeTyYCFgddjKw+AJVOyHC8AstnMRb1oeUqQSD5PMgV/XiGuv/7sMQEGlB34uLZ0mrgw6qM2bVssEYeog6AgClIA5PyiY91934VFffBy/5dIPs+TqzvY3iRuStbymb0rFjp2chC/oClvz7/fRWundPHlM9nsHQZSkAIgZw9ANiVGwgSAre4ficR6Mqd/cbH/oZUepo/09+r/RgIujjw4eOD/2AviiTR/F9i/QGI/RJWnCqIgBUDOLzorAZDrRXuw1e0jkdiAB99oZ2ujuBGZyw/rW6uQk6aKCwM8JnsC5DVd0gNguQCwxAMgqgwwZav7RyKxlqb2FLX/FBf7r4i4WTKlbxv6pCE+hlVlURq0Fzbs6GbtNjkmOF/pspcHoCCrAHJWPdmoOBkCkEjEc9PTLbR2iYubn3N4GF8WmdpLp4kbEvSo9ALkLdIDYL0AEOAB6PsDRyYBSiRieX9rnCdWidssKyLurLP6F00OZiUc9sbT73TYbaOQCCCdhljCVp9rQQqAnF90MpXp3tUXZBmgRCKOVBp+/nhU6Pfh3HnZnf4BioMu5o0T0xmwPZbm2fdkMmC+EUuk7fb8LkgBICTu0ddYjgwBSCTieOytDqGx8qpiNyfmmMx3gsBkwAdfl2GAfMOGXh0pALKlrx+mDAFIJGJo7Uxx89MtQtf8Yg6n/91MG+6nf6mYXq/vb43z9ua4kLUk9sBmCYBQoAJAyIu2qp5TVgFICp1f/C1Kc4e4xL9qNffTP2REfl8rCPbHX14R19tAYj3SA5DBagEgxAPQ2ccPMyagTDmdhri4cmeJxHE8/U4nf18jNj5+7rywsCltx08JCSv5XbG2C11gd0OJtUgBkMFqASDkRffVndMlYOPuSsgQgKRw2d6U5H8fiwpdc0iFhxMOFXdqr1bdzOhlF8EDkUrBvdILkDfYrAsgFKgAKBOxSF8/zHgid/d9p+wPIilQUim45oEm2gTW/AN8Y4mKR/CM9hOniusJ8PiqDuGvWWINNvQAiJtn3QcsEwCqpo8HlolYq68hAIDGHBJ7U2lokpVBkgLlTy+0Ck+KO/LgINNHiDmtf5a5Y/2UFol5zHXE0rIxUJ5gQwHwTVXTTZ9PaKUH4CeAkDRdXxarNLRnHwqoa4NuGQ6UFCDvbInzxxfEtfsFCPoUvra4WOiau/G4FU4S2BnwvtfaSUkngOPxiikQEckk4DSzL2qJAFA1fTZwgqj1KiJ9/zTTwPaWvocC2uPy9C8pTNpjaa65v0n4BvilIyJUFRv3RF42IyQssXBHc5Ln3pcPAKcjyiskmOtUTRczyKKXWPUu/EzkYuWR7F5GLAGbGnsXz08D9e2wtTmrS0kkjufOF1uFZ8IPrfRwxmxxJ/S9URFxc/REMWOCAe55WSYDOp2yIvu5AIBRwLlmXtB0AaBq+knALFHrjRvgzcoDsJt4EjY3wa62jCDY0yGQTGdO/ZsbMwLAdpEjicQEmjtS/PXVduHrfuN48Yl/e+MLAkXGB9u6ef59S5K2JYLoX+pmRLWph+3eco2q6eKTYfaBqQJA1XQ38GORa54xW0zyZGMHfNII6+tgUxNsi8LHDbChDj5tFlM6KJE4lbteahNeOnXUhCDTDEj82xuj+nmFXuump1tI9HEGicReiNo7BDMQuMSsi5ntAVgOjBO1WE2pmyMPFufag0yDn65uaI3JRD+JZDcvrRV74lVDLr5uUOLfvvjCLHFegE8bEjwiKwIczdETg1QamHuSA99RNd0UdWK2ALhC5GJfX6zitmUuh0SSX0QFtvsFuGppSU6hu2yYNTrA0Epxbt8/PNdKR0x6AZyKz6Nw+SJzRWgvqQQuNuNCpm2fqqbPBaaKWm/2mACHCxr5KZFI9k06DS0CG+CcPL3Iku+uosDpAr0ATe0p7npJJgQ6mYUmhqH6yMWqphu+P5t5fv66qIV8HoUrj1NFLSeRSPZDIpXGJWiE5tBKD1+z8NS1eHIINSTusfd//2qjvlXGCp2MWYmofWQYsMjoi5giAFRNHwGcKGq9M2YXMaDMlrEbiSTv8LoVDh3my3kdn0fhh6eV4vda97D1exVOmS7OC9DVnab2WbGNkSTmMrTSw/KZxpaiZsmlRl/ALA/A5aKuFfQpnDnHltmbEknecsT43F32lxwdYVQ/rwBrcuPUmUUEBIqQx1d1sHGXLBNyMmfPDQu9JwRxbM/h2TAMFwCqppcA54lab/nMIoqDMvNPIjGTeeOD+DzZPyBnjvJz+mH2EO5lYZfQErBUCm76R4uw9STmUxZ2cbJAz5AgFAxOBjRjJ70QQZOOgj6FL9izdlMiyWvKwy6uPrmEbFIBSotcXH1KaVa/axRnzw0LbQf78rouVn0SE7aexHzOmhu2NDy1D85TNV1srftnMLQVUk9f46+IWu/k6UV27eG8X1JpaGxLUteSor41SX3rZ/+ewqVAZbGbioiLioibyuLdf7od+Xol+cnCiUG2NCT6FPMeUe3hZ2eUUR62130c8iucPz/CDU9Eha3500ej3HVppR03EUkvKA+7WDotxL2viO94mQNlwOnA7UYsbnQvxGXAIBEL+b0KZzko9t8ZT/Pahhgr1nbyr3UxWjqzK6OqLHYzb1ym5HHKMJ+woSYSSTacPz8CwJ0vth1wpOpRE4JctbSEoM+e9+zSaSHufbWdrQ1i4veb6xPc/EyrYZMNJcZz9twwD73RQTxhq/4Ol+JQAfBlUQstnRaizGaniD1pbEvx4oddvLi2izc/jgm5iepakjzwejsPvN5OkV9h1ugA88YFOGy0n3DA3u+HJD85f36EE6eGuO3ZVlas7aKp/T/itl+Jm4mDfcwaHWDRZMM8l0LwuBUuWRjhu/c2CVvzr6+2ccT4AJOH5l41ITGfioibpdNChsy9yIFDVU2fEa2teV30woYJAFXTq4HDRazl8yicPde+p/+d0SS3/rOVv6/p6PN44b7QHkvzzLudPPNuJz6PwqkzizhvXpiITIqUmExFxM13TirhOydlugRurk/Qv8Rt19aq++TIg4McNLCd97fGhayXSsP1DzVz92WVtvV8SPbPOYeHefhNW3oBhAsAI3eOpaLWP3FqyPS2ob2htSvFb//RwrJf7eJvq43d/Pcknkhzz8ttLP3lLu55uc1uN6ukgFBDLiYO9jlu89/NZceIddlvbUzwO1kV4FgqIm5OnBqy2ow9Wa5qeoXoRY0UAKeKWuj0w+xVnvHvzfcXu7j7JWs339bOFDc+1cKpv97FkyaLEIkkH5gyzMecMWJbEz/4RjsrN8qqAKditz0H8ANnil7UEAGganolME/EWhMG+xhYbp+5ze9uiXPqr3dx41MttGaZ2GcEO5qTXPtgM+f+vk5YUpNEUihcekwxLoFPw3RPKEAOC3ImA8s9TBhsuzyOZaIXNMoDsBQQ4g9cbKNEoidXd3DJnxrY0Wzf3t/rtndz3i31vPmxPH1IJL1leJWH4w4R6/bd0Zzk138XV2YoMRc77T09zFI1vb/IBY0SAEJy+V+hAAAgAElEQVSUitetcNQE6z+EVBp++48Wrn2w2RGx9pbOFJff0cD9r9kqk1UisTVfPjIivIb/0ZUdvLpBinEnctSEoN3Krl3AyaIXFIqq6eXAfBFrzRnjt7ztb0cszTfubuRuh439TKbghiei/OSRZhJJ+4sWicRqKovdXLggInzdHz3cTKvAccoScygOupgzxnajgk8RuZgRu+tJCCovXCTYJddXdrUk+dKtdfxrXZelduTCIys7uPT2BtrkA0giOSBnzg4Lj/3WtST55d9kVYATsXoP2guH9+TYCcEIASAk+18NuZg92jr11RlPc+VdjXySB1O+1myK8/37mmSFgERyAFwuuPrkEuGhgCdXd/D4Wx1C15QYz+zRftSQrfqsuMnk2AlB6CtTNb0UWCBirYUTgngsir+k03DtA02s395tyfWN4JX1MVmbLJH0gsEVHi49Wnw7358+FuUNmZzrKDxuhYU2yEPbA3sKADLufyEDvxcfYt2bfttzrTz/gXPd/vvinpfbeHK1PIVIJAdi+cwiDhHczjeRTPOdvzSxMQ+8ioWElXvRPpirarqQfVa0ABCS/T+4wsNBA62pwXzm3U7++Hzvp505jZ88GhXW9lQiyVcUBb5/cqnwdr5tXSm+fmcDDW0yJ8cpHDTQx+AK+/SiAYqAGSIWEiYAVE33Icj9b9UQkQ/1bq5/qNmSa5tFPJHmW/c0Uddi314GEokdGFDm5ivHig8F7GhOcsWdDXTGZVKOU7BhT4AjRSwi0gMwFci5n6aiwOLJ5mdeptLww4eaiR1gxGk+UN+a5FdPynwAieRAnDK9iOkjxCcjf6h3c+XdjbI80CEsmhxCsVVLADGHbZECYI6IRSYO9tGvxPyhIv94u5MNO/In6e9APPtepwwFSCS94KqTSyjyi3/6v7UxxgW31qM3SW+c3dk95tpGzFQ1PeeTssjAhhABMGOk+aV/8USaW/5p/Im4yO9i7MAAo2r8qCE3kYCLSNBNKg2tnUlaO1M0tSdYty3Gum1dhncd/O1TLdxygfABUxJJXlGtuvn6YpUfPiw+PLipLsGXbqnjhrPKOHiQrTYYyR7MGOnn7c22OTT5gNnAM7ksIkQAqJqu9BiTM1OHmy8A7n+t3dD+/uMHBZg1toihVX5c+zhI+L0eKophGD6mDA+RSKb5aEeMF99vY9MuY2661ZvivLyuS/gkNIkk31hyaIjnP+gypClYU3uKi//YwDWnlNii9blk7xwy1A/YKkH8SHIUAKJCAOOAslwX8XsVxg8UUt3Qa1o7U9y+wpg2v0OrfFx0TAVnzStjePW+N/+94XErjB0QQDu6gnOOKKNKNSYL9aZ/tJCSYUiJ5IB89ySViEGtyeOJNFfd18RNT7c4Yt5IIXLwIC8+j60SAebmuoCouzlnQwAmDfaZPnzhzy+2CR/r61LguEOL0Y6uYHBl7m69sQMDfPX4Kg4bI35G9cZdCf4mewNIJAekIuLmW0tUw9ZPp+HOF9s483d1rN5kG1ezpAefR+HgQeYeUA/AxB7ve9aIEgAzRSwyZZi5MbBEMs2jb4rd/AI+F19cUM7scWGh67oUWDJNZenMEtx9cSX0ggdel1MDJZLecPTEIOccLva7vSdb6hNc/Md6fvpolPaY9AbYiSnDbDUcKAwMy2UBUQLgIBGLHGpy/H/1prjQMhyfR0E7upxR/Y17HdNGhjhrXqnQkpQP9W52yb4AEkmvuGRhseHtYdNpePjNdk77zS6eeadTzvGwCVMEd4cUwMRcfjlnAdDjghiX6zpBn8L4Aea6V1asFZfQowDLZ5fSr8T41zBmQIBFU8Q2KHlR4HshkeQzigJXn1LCpCHGbwZ1LUmuuq+JU3+9i4ffbJf5ARYzYbDPbnkAOQkAEZllg8i4InJidH+v6cN/XvpQ3Ka3YGKE8YPMy6afMy7M9qYEqzeKCWGsWNvFshnicwwkknzE51G44awyzr+1ni31xvf239qQ4KePRql9tpXTDwtz8owQkYCtptT1im2NSd78OMZHO7vZXJ9gS30Cj0vh0OE+pg73M2Ok7abv/Rc+j8LwKg8f6rbpGWO5ABgvYA2GmNxred32bmGlf5XFHuZPiAhZqy8smVbMh1u76IznHsZY9Umcj3d2E/KL+fIlBLy16TRsF/AZdcZSDK704rHvc0XiQIqDLn59Tjnn31pHU7s5pTSNbSl+/0wLt69oZdboAPMPCjBnTED4zAJRdMbTrNwY47UNMV77KMbWhr2Lpa2NCR5d2YEacnHV0hIOH2ff0uShlbYSABNy+WXbCIChleYKgBUCp/0tmlLcpxI/UQS8LuZPCPPkW7k3MUok05zx2zoBVomjPZbipBt2CluvyK8woMzDWXPCHDNJ1ltLcmdAmZsbzirjkj81mNpGvDOe5tn3Onn2vU58HoUZI/0sOCjAjFEBysPWKd1Yd5qPdnazcmOc1zbEeGdLnESy9+9LtCPFN+9pZNmMIr62uNj0qrDeYPZedQBGqpoeitbWZOUKto0AGFZl7psqqqHHsCofYwdap1Znji7ilQ/baW6XSXwHoj2WZv32bq6+v4kHX2/n1+eWEfJJt4AkNw4e5OO6U0v57r2NJC3oqRFPpHnpw65/hzT7lbgZP8DHwYO8jB/oY2yNV7iHIJWCLQ0JPt7Zzcc7//PntsaEkITFB15vRw250I4037N6IIZW2aoU0EUmCf/NbH7ZNgJgSIW5b+q2RjEb5rRR1sbNPW6FQ4aFeP49W3Wosj1vb4lzzI93cvdllaaHnyT5xxHjA9xwVjnfvbfR8il/O5qT7Gju5Ln3O//9b0GfghpyURJyZf4s+s/fP/vvbpdCW1eKls4UrV0pWjvTtH72710poh0p9Kak4QmJd73UxrGTgnYbxctQm9lDphTQMgGQUx0iZBIr+peaNwAo1p0WUv7nUmDMAOvrQscNCkgBkAXxRJqv3N7AY9+sttoUSR4wa7SfWy+s4Io7G6lvtZdHrjOepjOeNLTluWjiiTQ/ezzK784rt9qU/2JQuRu3C0u8Pfugf7a/KML/mfOnM6TCY2oMvb5VzCc3tMpP0AYu5AHlXoqD5k9QzAd2RpP87ik5GlkihjH9vfzxyxUMNzmkma+8+XHMdiOTPW6FgWW2+nz7ZfuLOe1eqqYXAzn77s1OqhClzodW2aMphIJ9bHEi//eKMbMgJIVJvxI3tVqF6Y3N8hUzyiz7yhB7JQJa5gEQMku2usTc02udoK53xTaqVy0OSQ9AtiRT8NFO+z1kJM4lEnDxmy+WcaysNsmZzXX2+272U231vLVMAAgJzhT5zS31aGgT41KK2MjtHjL5Pcw3nn2388D/SSLpA163wrWnlnLRURHTm5zlE61d9ut+aNRUyCyxJgSAIA9AkaDmM72lQVAIIGyjTlx9qbWVfJ41m2NWmyDJU847IsKdl1QwzuRW5/nCxMH2C2+afWg9ANID0BcCgmpi7dSX2+WyjxhxIi6R05Ukkj0YUe3lT1+u5LJjiu3WS97WhAMuxvS3n3Cy0+EPqFA1PaukBHsIAJPfzIqIGNd9a6d9slNTafuIESdiZfc0SWHgcsHZc8Pcc1mlKYOE8oHpI/zY8WwTDthKxClAVrXMtggBhE32AIgSAG1d9qmpbe2wjy1OxM4DSCT5xeAKD7deUMGVx6u27eFvByIBF5cvEjv1VBQ28wAAZNUyMddXUZrj7wPmewAqi8Vcr77FPtmpdrLFicgIgMRMFAWWzyzi4SurOXde2G4xZVvwPyeq9DO5Qqy32MwDkDW57oRCjp1m3/yiPAAfbothB8d7ZzzF5rq41WZIJJI+Ulrk4uKFxTz2zWouOipCifRE4XUrXHRUhKMm2LeE0uzEdaPItZuBkNTpkMlusJKQC49byTlzvqUjid7QzYBya5NU1m2LCRnAIZFIrCEccHHeERFOnxXmkZXt3P1Su+3aCZvBlGF+vn2CareJe58jX8qubSEAukwcowkZ91t52MXOaO5fsPe2dFouAN7bImvYJZJ8IOhT+MKsMKdML+Lpdzp5+p1OVm6M2anvvHAGlnmYOcrP7DEBZo12RvfELosHPonCFgKgzYJGDxMH+3hGQPOX19a3M2dc2PQ8ht1sb+pm7VYxo40lEok98HkUjp8S4vgpIZo7Ujz/fifPvNvF6k+c7+0L+hSmDvczc1Tmx2Z99XuF3eYTZItNBID5b+bh4wJCBECsO82z77ZywjRVgFV95x+rWxBVATh3TMDw9sZd8TTRzhTR9hSpNP8eR5qtS62lM/XvOegSST5SEnKxdFoRS6cV0diW4rn3O3n2vS7e+zRuq14k+0JRYGS1l8NG+5k50s/EIT68Du+MaMWh1QhsIgDMfzNnjfYLyQMAeGN9OzNHF1GlmqtkN2yPsV4X08GuX4mbG84uE7KWmazf3i0FgKRgKAu7WDajiGUzikgk06zfkeDdLXHe/TTOu1vilo/7LS1yMazKy4hqD8OrPIyo9jK8ymO31rk5Y6ceMLlgEwFg/psZDriYMszHGx/l/hJSabh7RSOXHFtBwKTxwE1tSe77V5Ow9Q4fGxC2lkQiMR6PW2H8AC/jB3g57bAiIDPp9L1Pu9lSn2D7/7N331FSFfkCx7/dPTn1zDBDuIigogLqIgbMoOia1pxzdsy6pl11V1d33aCurgFQrwkDYsCcABFJoiRJkiXDMEy+3TPTue/7Y2Cfq4AwXbdv3dv1OecdzzvvTd1ipvvWr6p+9avmBDXNcaqbEtQ0J1LOtfJ62o9sl+R7KMrz4s/30r08i927ZLFH5yx275JNWaG7BvptUSsA7cQEABF7oqnBffOEBADQfg5/1NQmLj+mE16LV7ciMZPXJjbQKjBwGtRXBQCK4nQVxT6O7rf1Y85NrUlqmhMEQkkiMZNIzCQcM4nETcLR9v/m53goyfdS9JOBvv1/91CY61X1MjaTMAegQ4Vg5AgAbIqmjuqTx2OfGMLaW14d4b1vmznrUD8+i6KAcDTJG5Oa2NQsrvBPcZ6XA3ZzRvatoigdU1bozZgZutUk3ALY2JEfSvXTIGTz1a5fZhe/j317iK3JPWdlGy+Pb6DVglWNhmCc4WPqWblJ7M11g/vl4VPvBUVRlB0i2RXFzYautXbkB1N97a9P8eeB9kxuu1x3bIdKKG/Xqtoow7+oY0WNmIHaBOatDjH8i3rhJX+zfB6uPLpIaJuKoihu1twq1QpAh8fhVLcAlqf48wCs2GRfHfuBvXMZ2DtXWC7AFk0tCV4a30DvbrmcOKAErbxjxYJW1EQY832ADY0xof3b4qyDCxx5DldRFMUuK2uteR93kD0BgKFrzf6q6jqgMpV2VtbGiSVM286G3nJCCZetqBN2nv6nftwYYdjGOnp2zqFfjzz67ZJHefH2f+01TTEWrQ+zaF2YaosGfmi/g+GqY8SvgCiKorhVKGqytl6qy9c2dPQHRUz9lpFiABBPmKysjbN3N3tK6u7VLZsT++fzxVxrSuqawOraKKtro3w+O0BZkY/SAh8lm/8nmTQJhJIYbQmaWhIEQ+k5y3vpUUUqKUhRFGUn/FgTk60ao21bANAeAByRciPVMdsCAIDrjyvhqx/Caams1dTSPtDbqaLYx4VHqL1/RVGUnbF0o1TL/5BCACBi+rdMQBu2/1K7lvq48PBCW/uQTjceX0xetjrUqyiKsjOWqQDgf4gJAKrt/6Ved1wJA/dw/3n4Mw4u4HcDCuzuhqIoiuMskWCs+hlbAwAhJwGWS7Cv4vPCPy4oo0cn92bFD+iVw92n2HNxkaIoipPFEyaraqVKAEwAqzr6wyICgB9pz3NLSShqsq7B/l9scb6Xf19STpFN1/taqVuZj39eWE6Ww2/iUhRFscOqurhsNzDO62gRIBAQABi6FgLWpdoOwJINciyt9KrM4u/nl+F1UQyQn+Ph3xeXq6x/RVGUDpJljPqJqan8sKjRYLGIRiYukuda10P3zOX3J7ljqdzrgQfPKaN3V/tOWSiKojidTGPUZt+k8sOiAoDxIhr5ZlmYtog8yyvnH1bIn84sta1AkQiFuR4ev7Sco/up2/4URVE6KhBK8p3girECSLEC8LmIRiIxk0mL5YqwTjuwgGFXdXLk0vkunbJ4+fpKDt9LDf6KoiipmLAwTDwhzwQVWG3oWnUqDQgZ1QxdWwSsEdHWuPltIpoRqn/PHF65vpI9ujhnCX3gHrmMuL6CXpXuPdGgKIqSLuPmW1MpNgUpzf5B3AoACFoFmP5jhOY2qW5aAtoz6F+6roJBfeWfTZ93aCFPXd6J4nznrVooiqLIpj6YYM4q6Zb/U9r/BwkDgEQSJvwgXaQFtGfSP3pROX88zU+nIvkG110rsnj04nLuPMXvqhMMiqIodhq/IGx7nZqtSHkFQOT68AQgDKQ8RR43P8RZA+Usy+vxwFkDCzlp/wJGTm3hjakthKL2fjLKi7xcM6SYMw4qxKcGfkVRFKEkXP5vBham2oiw4cLQtTZgkoi25q6JUhuw97KcX5Of4+GaIcV8cGcXzjnEnoE3P8fDtUOKef+OLpw9UA3+iqIooq1vjLNwfdTubvzcOEPXUp55ih4yhGwDmCZ8KV/EtVVlhV7uPtXP27d15pxDCqks8Vn+zJ4VWVw+uIj37+jCNUOKyc9x7jFFRVEUmUk4+wd4TUQjolPEPweeEtHQO9+1cu6hheRkOWNw69Epi7tP9XPXKX6WVMeYvDjMpMUhVmxKvbyxxwP79shhUJ88BvfLo2eFyuxXFEWxWiRm8t506U6mbQLGimhI6Ehi6NqP/qrq5cCeqbZV05zgg5ltnH+YnLkA2+LxQN/u2fTtns11xxWzoTHBlCVhVtXGqAsmqQ8mqA8kaGpN/iKpxOeF8iIflcVeKkp8VBb72EvLZlCfPMolTDpUFEVxs7e/baU+KN129EhD14RcnGPFVPJT4HYRDb0yMchpBxY4eom7e7mPCw7/ZRCTTEJDS4L6YBKvFyqLfZQWevE695+qKIriGi3hJK9NabG7G1vzqqiGrJhWPo+A2wEBmlqTjJom5R8gZV4vVJb46Ns9m727ZVNepAZ/RVEUWbwxtZVgSLqaNHMNXZsvqjHhAYCha0uBT0S1N3JqKwH5/giKoiiKSzW2JHlLzsmnsNk/WLMCAPBvUQ21hJO8OlnKP4SiKIriQq9MDNpe32Ur4sCbIhu0JAAwdG0KMENUe+9+J2UihqIoiuIyG5vaE9AlNMbQtVqRDVqZWi5sFSASM3lxgloFUBRFUaz1woQgMblu/dtC6PI/WBsAvA+sEtXYx7NbWd8g5OSDoiiKovzCqto4X8yVcva/FvhYdKOWBQCGriWA/4hqL5GExz41MKUMzBRFUX5pxaY4Y+eFeG58kPveamLYuADTloVpjagXmWySJjz6iSHjpT8AfzF0TXg9YqtLyr0MPASUiWjsu+URXp/SwmWDikQ0pyiKYonaQIInPjX4elH4F/+31ya3HwM+46BCfn9SCbnZ6vyvDF6ZGOR7+a78hfZLf4SU/v05S8vLGbrWCjwrss3nxgeYv1a6ixkURVEAGD29lfOerN3q4L9FMgnvz2jlsuF1LNsYS2PvlK35flWUF78O2t2NbfmToWuWnIVPR33ZZwBhYVUiCfe/06RqA2Q404SF66O8812rkPam/xjh64VhGY/+KA4yeXGYxz4xdvhztLouTtUL9dQ0q1NOdmluS/LAu00k5RxSphm69pFVjVt+q4yhazX+quqRwFWi2qxpTvDX95r59yXloppUHCCeMJmxIsrkxWGmLAkLPRq6ui7OPaMaycnycNDuuQzum8egvuoOBmXH1QYS/O395p3+uVDU5N+fGup9ZgPThIdGN1Mn7/Xz91jZeLqulXsYuBDIF9XglCVh3prWutU6+4q7mCaMXxDi2fEBNjRa+0WNxk2mLQszbVmYxz/zcO6hhVw5uIjifBUIKNv32CdGh1cmpywJM3lxmEF98wT3StmeN79pYdqybW/V2OyzzTV1LJOWt5qha6uAf4lud+jYAIs3qP0zN5u9MsKVz9Xx53eaLB/8fy4aNxk5tYUzn6hl5NQWonG1PaBsXTxhMuPH1HY6h44NqFNOabRwfZThX0q7758E7rP6Iemc1jwKrBDZYCxh8qe3G2kJy7l5o3Tcik0xbn+tgRtfbrA9yAuGkjw9JsC5T9YyZl5IvaSVX1i8IUY4ltoHY019nG/knY26Sks4yZ/fbiIuZ8EfgDdFXvqzLWkLAAxdCwO3iW53Q2OCv39giG5WsUnShOFfBrhkaB3Tlsl1JKemOcFf3m2i6oV6VZpa+R/z1og5mTRyqpikVmX7/v6BQXWTtN/hKHB/Oh6U1o1NQ9c+w4JqRhMWhhgxSZUKdrpQ1OQPIxt5dVKLrMU4AJi/NsoVz9bbvjKhyKMgV8xZ/u9XRVharT5XVhoxqYUJC0N2d2N7HjF0bXU6HmRHZtPvAeG1Fp/9MsBr6tZAx9rYlODq5+uZssQZS6B1gQTXvVjPuPlSv0iUNOlVmS2srdenqPeYVV6d3MKzXwbs7sb2fAf8NV0PS3sAsDkh8A4r2h42LqC+PA40d3WUK56tY8UmZ818IjGT+99p4tkvVfJWptuts7gDVeN/CLFAFTsT7tXJLQwfJ/XgHwAuMnQtbZfe2HK2ydC154FPrGh76NgAb6ggwDHGzQ9x0ysNNLc5N5FzxKQW7hnVSMK5/wQlRWWFXnpVigkCTBMe/0zamvSO5IDBH+D6zRPktLHzcPPVwCYrGn5mbICRU1UQILt5a6L89b1mmTNxd9jERWGe+Ewlo2ay8w8TV5Nk8YYYn34v5a10juOQwf81Q9dGpfuhtgUAhq7VIbA64M89PUYFATKraU7wxzcbZb13u0NGT2/lvRkqiztTnTygQGjBqOHjAuqIc4ocMvj/CNxkx4NtLW9m6NrnwHCr2n96TIA3v1FBgGxCUZM732ikqdV9L7fHPzWYvVKu44tKeuRlezjz4AJh7TW1JnlhgrSFaqTnkME/Rvu+vy0DlQz1Te8C5ljV+FNfBBg1TQUBsjBNeHB0Ez/WOCvhb0clknDPqCbWN6Ytj0eRyDmHFOIT+FZ997tWVtWqz9LOcsjgD3C/oWsz7Xq47QGAoWsh4HQsygcAePJzFQTI4oUJQSZu55pUNwiEktz1RqO6WTADdfH7GLKPsCtPSCRRuSU7yUGD/1e0V8i1je0BAICha+uAsxB4bfDPPfl5gKFjAypT20ar6+KMmJQZS5qrauOqLkWGuujIIqHtzVgR4WuXB80ixBMm//nccMrgXw9cZuiarbMEKQIAAEPXpgHXWfmM16e0cOPLqoyrXYaPS38A5gG8XvCIKdS2U0ZNa6GhRUWcmaZf92yO6Sf2Vr+nvjDUZVTbsclIcN2LDbw1zRFJuCHgbEPXqu3uSLquA94hhq696q+q3g+406pnzF0d5ZKhdfz1vDIG7pFr1WOUn5m3JsqkxdbOYrwe6NU5l3498ti1MoeSAi9FeT68mwf/cDSJ0Zak1oixZEOYJesjhKLWDdChqMmLE4L88TS/Zc9Q5HTD8SVMXhIWFvBubErw4tdBbvxtiZgGXWTasggPjm7CcEYtkShwlqFrk+3uCEgWAGz2B6AvcLJVD2hqTXLbiAauGVLMlUcX/3eAUKwzdKx1y3KFeV6O2beYAbvnk5+z7UWtvBwveTleupRmsV/PfJImrKyJMH5+kLV11lRe+2hWKxcdUUiPTjJ+1RSr9KzI4tQDC/hwpriz/K9NbuGAXrkcuqeauAAkk/D8VwFendzilEqcCdoz/sfY3ZEtpNkC2MLQtSRwHvCNlc9JmqB/FeS2VxtceRxNJhMXhZlvQWnTnCwPQ/Yr5q7Tu3B4n8LtDv5b4/VA7265XH9CBZcMLqeyRPwgnUjCs/LeOa5Y6NohxeRli5tdmCY88G4Tmwy1hdnQkuSmVxoYMckxg78JXG3o2nt2d+SnpAsAAAxda6V9BWC21c+a8WOES4fVCbvOU/lfySSWJOWUFfm44cRKjutfTK6Al2y/Hnnc/LtKftNTXAb3Fl/9EFI3B2agimIfFxwurjoggNGW5L63pL7H3nLfr4pw6dBavl/lqHobtxi69qrdnfg5KQMAAEPXAsAJwA9WP6sukOCGl+pV5UALzFsbZU292HPMu3XO4caTKulSKnbGnu3zcMFRZRzXvxjRu0Ifz1ZlXTPRZYOK6VQk9jX7w7ooT49xRKa7UKYJr0wMctMrDU5Lrr3X0LVhdndia6QNAAAMXWsAfgsst/pZiWR75cC73mgkqMpvCjNZcOJfz8ocrjquE4W51n10h+xXzMkHik22mrw47JSlSkWgwlwPd50qPgn07W9bZb/TXiijLcmVz9Xx3PggSWe9nv9h6Nq/7O7EtkgdAAAYulYDHAusScfzpiwJc+mwOpZtVEu2IkxaLO4lVVro4+LB5fjSkLV5RN8iDu4trqxrfTDBwvVqmykTDdknn0F9xR4LBHhodLPTlsF3mmnC61Nb+N0jm5y4jfaMoWt/srsT2yN9AAD/LRQ0BEjLVYkbmxJc/2K9679cVluxKc6GRjEJS1k+D5ceXU5RXvo+sqcN9NOrc46w9qw+BqnI6w+n+inMFRu4hmMmd7zeyJzV7gws1zXEuWRoHUPHBJx4adgrwG12d+LXOCIAADB0bSVwODA3Hc9rjZjc9mqjutglBZMFzv4P71NIt7JsYe3tCJ/Xw2kH+4UVEXJ7CWRl2ypLfNxyovgz/KGoye2vNbgqiTmZhJFTW7jw6Tp+3OS4WT/AW8C1dlf52xGOCQDgv9sBg4AJ6XheNG7yz48MJ0afUhA14y3I9XL0vmLLq+6ormXZDNhNzFbA2vo4q+vUxS6Z6oyDCtm/l7gVpS1CUZPfv9ZgyVHbdFtZG+cavZ6nnTnrB3iY9rP+jjir6agAAMDQtSBwEo01SAsAACAASURBVPB2Op63riHOO986orykVJrbkiypFhO9H7NvEXnZ9n1Uj+tfLCzvYNoytQqQqTweuO+MUnKyxOewtEVMfv9qAz+sc2YQEE+YvPR1kMuG1Tk1VyYEXGDo2v1OmPlv4bgAAMDQtShwIfBUOp43bn7mZNuKsqk5ISTr3eOB/QXNwDuqtNDHbl3EzNw2NjliYqBYpGdFFtcfV2xJ260Rk1tHNPDVD856Xy2tjnHFs/XoXwWdOutfDxxl6FpaJqUiOTIAADB0zTR07ffAH2mvsmSZHzfF1UUcO6lO0IVLPStzKExj4t+29NtFTBa3qN+L4lwXH1nEcfuJLzgF7UHAfW818fcPmqW/jjoaNxn+ZYArn6tjeY0j9/oBpgMHG7pmedE6K9j/Zk2RoWuPAr8Dmqx6RjxhslZwMRu3qw+KOazbV9DAm6q+PcT0o0HQ70V2oajJvDVR3v62lbe/bWXemqj0A1I6/fnMUvboYl1S68ez27hseB1LBW3DiTZ/bZRLh9Xx6qQWJ1/R/joweHNumiO54oYSQ9e+8FdVHwi8Bwyw4hnpPH7mBvUBMTPdHhXik6Y6wl/go6TAR6AttX+X21cA1jXE+edHBnNWRUj+bLz3emDAbrnce7o/4y9Hys/x8NjF5Vz+bB3BkDUj4Nr6OFc/X88Nvy3moiOKbLkS++cWro/yysQWpixxdC5Mkvbqfo/a3ZFUuWZUM3RtFe3HBEdY0X654HKebidqoCvOl+f3XpLvS7kNt64AJM32o1sXD61j9spfDv5b/n9mr4xw8dA6Rk5t2er/TybpXu7j4fPKLL2NNJYweXpMgFtfbbD1BMq8NVFue7WBq56rd/rgHwROd8PgDy4KAAAMXQsbunYlcD3t9y4L0anIa0nmrpvVB8QMdMUCBl1R/AWpf12icdMp95bvlCc/N3h6TIBI7NdH9UisfVC6763GjA8CDt0zl+t/K74+wM/N+DHC+U/VcssrDUxZEk7L7z0cMxk3P8QNL9VT9UI93y13fE2VFcChhq59andHRHHlOpyha8/7q6rn0L4lsEuq7fXpLscytJOIuGI52+eRKvAqEhSMNLUmhQQTspi3Jso73+38UdmvF4Z55KNm7j2j1IJeOcflg4pYsiGWltr+M1ZEmLEiQvdyH+ceWsipBxQI3d40zfbb+j6fG2LCwhBtEddEeF8D526+n8Y1XBkAABi6NsNfVT0a+H2qbfXR0luBzg2K8lIfuGMJk0TSTEvt/x0RioqZuYv43cgiEjP52/vNHT7y+eGsNvwFXm483vpZsMweOLuUdQ3xtGXDb2hM8OTnAZ4fH+R3Awo4dt88+mg5FHSgXPHqujjz1kSZtybKzBURagXl/0jmKbcN/uDiAGCzHiIa2VsFADutskTMbDkYSlJaKMc2QKoJgABeL5RL8u8R4dvlEdY1pLa3/OrkFvwFXi4+0p5qjzLIz/Ew7KpO3DKiIa2Z+6GoyejprYye3orXA70qs+i3Sw69u2ZRlOulINdDfo6XwlwPbVGT+kCCumCC+kCSGiPBwnVRml24pbUVQsYS2agAYAfsUu6eF3a6dCoWs6wYDCVcFQCUF/rwumf1X9hg9czYAP4CL6ccYG/RJzv5C7wMu6oTt41otKUaXtJsL8W7slYded4KVwYALnoVbZWQP5pW5vY4SbzKYjGDdq0hx8soEhOTvFchKDCShahyz6YJf/+wmckZfmNicZ6XoVd2on9PlXckGRUAOIm/qjob6JJqO2WFXvJz3LNnmy4VgrYAFq+XY0BYWh0mISB1WtTWiCw2GeL2e5NJ+NPbTXy/ypG14IUpyPXw1OWdOGj3XLu7ovw/FQA4THcE/Pu6l6vZf0dUCprpLt8YkaI++OJ1YgKRCkErI7Lo3VXs9yMaN/njm40Zf2dCfo6H/1xWzmF7qiBAEioAcBhBy//uemGni6iZbixusnSDvasA0bjJ0g1izjBXlrjrK7d3N/EJsoFQkj++2Zjx92/kZHl49OJyjuojRznsDKf5q6rd9eVFBQC/Sq0AdEwXv09Y8DR+XtDWgjFTF7cQjonJdD5gN3fN6PbtYc1e9dKNMf71kWFJ206Sk+XhXxeWcUJ/ay4PUnZYNtDV7k6IpgKAX9FdrQB02KC+YmYutUacWT+2CWlrZ7WEk0xZ1CKkrbJCr+uSu/r3zOHoftbMUD+b08bo6TtfYMhtsnwe/npuGXed4ifbp/KRbJRyUTnZuDkAEPLHkqkWvdMMFhQAAHw1P0BbJP3njb+cu2PlbXfEkX3yLK37bpc/nFZKiUXfk/98HmDB2sxOCtzi3EMLeaGqgm5qUmIX1+UBuHl000Q0kpvtwjd2muzfM1fYwBAMJXlzclNatwJmLG9jpsCVB6tmynbrVOTlD6f6LWk7njC5Z1QTjS0ZUWzmV/Xtns3rN1W69rP0U3nynb7qZncHRHNzACBk8z5Xolr0TuP1ts96RVm5KcKnM9OzL7xyU4RPBD4rP8fDwD3ctf//U7/9TT43WVTOtz6YUBcH/URxnpdHLirnXxeVu+5YKbSvulYdW8w/zi+3uys/57qEMDcHAEJGbgmjUEcRlQewxXfLWhk7J9Dh2vM7YkVNhDcmNQk597/FYXvmSXWxkRUuG1TEpUdZU853zuooo74Rk4vhFsf0y+Od2zpz/mGFrqguWVrg5cbflvDxXV24+phiyuS7gt11X2DXRTQ/IeTTo1YAUnNo71yK870EQ+KWcCctbKEuEOe8I8qED6rTl7XyyUxD+GwzU7K4bz6hhGAoyYezxCdtPv9VkEF98+jRyc2vrZ1TkOvhjt/5OXlAAU+PCTB7pfOu3C0r9HLJkUWcfUjh/xRdk/DdK12HUiVdiCWQkD9WrroHKCX5OR6uHCx+VrhoXZhnx9SxcpOYF14glODdac18NEP84N9HyxaaECm7P55eyrH7ig94Ur150M36aNkMv6oT+rUVjikeVFHs4/aT/Xx0VxcuOaroFxVX1bvXem4OpcVsAagkwJSde2gh73zXSk2z2Opum5rjvPhlA3tpuZwwoIRuZTv/xgjHkkxe2MI3S1qJWVR45uYTSvBk0MfI64GHzi2lNZLku+ViZ6Tz1kR5d3or5x1aKLRdt+jfM4cnL+/E4g0xXp4YZOqSsFS5E9k+DwN2y+HYffI5eUD+dlfwJHz3StehVLk5ABCzBSDfh9BxcrI8XH9cCQ+ObrKk/WXVEZZV16GVZ9N3lzz69cjbbjDQEk6ydEOYRevC/GhxqeFDeudysIuT/7Yl2+fhXxeWc9VzdcJvlxs+LsCRe+epKp3b0bd7No9dXE59MMH4BWHGzGtj8Yb0XTP8U6UFXg7fO4+j+uRyaO88CnJ37J0q4btXug6lys0BgJgtAPn2oRzphP75jJzawvIa615C1Y0xqhtjfDU/SHaWh4JcLzk+Dybg8UAiCeFoMm31BDweuOkEazLjnSA/p72U7ZXP1hMMi/udh6Imf/+gmaFXdsqolZWOqCj2ccHhhVxweCHrGuKMnRdi2rIIyzbGLA18d+ucxVF98jhy7zz22zWnQ/Uv1LvXeioA2A6vB9dnbqeL1wO3nFjCrSMa0vK8WNzEiNt7oczxv8m3pFa+k/TolMVfzyvlztfFHuObtTLCZ3PaOOWAAnGNulyPTllcM6SYa4YUE42bLNsY44d1MX5YH2XhuijVHbyAqTDXQ8+KLHpWZtG3ew5H7p1H9/LUV2dysjx4Pci0heG6wcDNAYCQLYCkiSurt9nhkN65HNUnjylL5Lji10pFeV5uOC5zZ/8/dfheeVQdW8xz44NC2332yyDH7Zcv416x9HKyPOzbI2fzXQ7t+RSBUJLGliRGW5JA6P//GwiZxBImBTkeCnI9FOR4Kcjx0KnYy64VWZbdcCnRwL+F6z5obg4AUv5jJU0w2pKUFbr5sER6PXRuGVc9V8fqOrH7wjLxeuHh88tUydafuGJwMUurY3y9SFzwVx9MMHJqC1cfUyyszUxWku+1rKRzRzS3JmUMAlxFnr+2eEL+bQ3BzL6XXLTCXA+PX1Iu1YtGtFtPLHHMUax08XjgL+eID4pen9JCgyoT7EqNLdK9e123AuDetzAImWqoGuTi7dIpi39eWIbPhZ++Uw8s4MLDramG53T5OR7hdwaEoib6+IDQNhU5SBjYuW7v0oWv4P9aL6IRCT+ErnDQ7rnc8TtrLpCxS/+eOfzxNHf9m0Q7fK88jttPbJGgj79vY8Um924pZSoJJ19CxhSZuDkAWCeiEQmXoVzjnEMKXVPQZZfyLB65qFzd174Dbj+5hKI8ca+eZBKGjk3PJVFK+kj47hUypshEBQC/Qq0AWOvOU/zcdHyJo09aHLBbDi9dX6GSRXdQRbGPG48Xm7g3bVmEJdX2FLpRrCHhu1cFAA4iZLlGwijUdS4bVMSjF5fvcIUwmZx5cCHPXNGJ0gI3f5XEO/Pgws1H0MQZOVXdFugmkr17Y8AmuzshmpvfWmoFwEGO6pPHi1WVjinv6vPC3af6ued0P1lq2X+neT1w7+l+oYmgX/0QYpMh1aChpKAhKNW7t9rQNak6JIIKAH6FZB9CV9ujSxav3FDJgF5iZ4aileR7efqKTpxziDvyF+zSu2s2Fx0h7sREIglvf9sqrD3FXpJNvly3/A8uDgAMXWsFUr59RrJlKNcrLfAy7KoK7j7VL92eutcLpx1YwKhbKzlod3XOX4RrhhQLXfX5aFYbbRFVPcYNJHv3qgDAgVLOAzDakiSlCkTdz+dtPyHw/h1duPqY4l/cE26HI/fOY+TNnfnTmaWWlT7NRHnZHu4+tVRYey3hJB/NVqsATpdMtr97JeK6I4Dg/gAg5agtaUK9XJFoxijI9VB1bDHv3dGFMw8utKVwUL/u2Tx7dScev7Sc3Tu7uXK2fQ7fK5ch+4irDTB6epuwthR71AUTspUBduUKgNvfaEL+aEs2xOhcomZ9dulU5OWe0/1ceEQhn8xuY/LiMGvqrSv8UpTn5fC9cjluv3wG9clTV86mwRWDi5iwMCSkrfUNcX5YFxV+ykBJHwmPdKoAwIGE/NEWbYgxqG+eiKaUFPSsyOLmE0q4+YQSVtfFmbw4zLj5IZbXpP6yKMj18LsBBQzqm8cBvXJUZn+a7a1l079nDvPWRIW098XckAoAHGzhOjGfA4FcGQCoLYAdsHC9dB/GjNerMovLBhXxwNli9o9PPaCAu07xM3CPXDX42+T8w8Sdqhi/IEQ8IdcasrLjflivVgDSwe0BwHQRjSxeH8NU7xJFsdTR/fLp4hez1dbcluS7HyNC2lLSK2nC4g1STbpWG7pWa3cnrODqAMDQtaVATartBMNJ1jeqy0YUxUo+L5wtsLbCmLlicgqU9FpVG5ftKOdEuztgFVcHAJtNFNHIQvmWpBTFdc44qIDcbDFbMFOWhImpbQDHWSTflutEuztglUwIAL4W0cjMFWo5UVGs5i/wcmJ/MUcCwzGTxRtU4O40M1dK964VMobIKBMCgIkiGpmyJKwKAilKGohMBpyzWrrZpLId8YTJN0ulCgBWGbq21u5OWMX1AYCha8uA6pTbaUsyZ7VUH0xFcaU9umRzoKBSy3NVAOAos1dFaQlLNdOaaHcHrOT6AGCziSIa+XpRWEQziqL8itMPLBDSzvy1UdkqyinbMVG+d6xrl/9BBQA718iisDoOqChpMLB3rpAKjC3hJD8KKBSlWM80YfJi6QKAiXZ3wEoqANgJdYEEi+Q6n6oorlRW6GXPrtlC2porqLqgYq2F66PUB6W6d2WloWuuLAC0RUYEAIauLQc2iGhrwkLpIlRFcaWD91B5AJlEwi1WVy//Q4YEAJtNFNHIp7PbiMbVPoCiWO2Q3qICAJW8K7tIzOTT2dLd4jjR7g5YTQUAO6m5LckXqsKYolhu/5455GSlngjQ0JJkXYOq5CmzL+aGaG6TKvsfVADgKl+JauitaS2imlIUZRtysz38ZlcxN/qpbQB5mSaMku+dutTQtfV2d8JqGRMAGLq2Cpgmoq2VtXGmq4tGFMVyAwVtAyyQ73pZZbNvl4dZXSfdCs1IuzuQDhkTAGz2iqiGRn0jXcSqKK4zUFAi4MZmqbLLlZ9485tWu7vwcybwqt2dSIdMCwDeAYRkmnz3Y0TGqFVRXKV31yy8AuoB1AVUACCj5TUxGe9ZmeDm8r8/lVEBgKFrAeB9EW2ZJoyYFBTRlKIo25Dt89Cp2JdyO3UB6RLMFOCViVKupApbKZZdRgUAmwn7434xN8Q8VWREUSyllaUeALSEk4Si6viuTGatjPDVD9KdqBI2SXSCTAwAvgbWiGrs0U8MdUugolhIRAAA7HCVuWjcpDaQYGl1jO+WR/hiboi3prUycVGYGpVLIEQ8YfLYJ4bd3diatw1dky4qsUqW3R1IN0PXTH9V9TPAv0W092NNjHentwq9wlRRlP+nlYl5TdUFEvTo9L9tGW1Jvl8dZdaKCHNWR9jYnKAtsv2VAn+Bl9/ul8/NJ5SQnyMgQSEDvf1tq4w5VCbwjN2dSKeMCwA2ex74E1AmpLHxAY7bL59ORZm4oKIo1hK1AlAbSBKNm8xYEWHWiiizV0VYXhPb6Qu+jLYko6e38u3yMPefVcaAXmJqFWSK+mCCF7+WMn/qU0PXFtjdiXTKyBHL0LUWBEZ6rRGTp7+QcjlLURyvW6mYAODT79s47bFN3Pl6I6OmtbBs484P/j+1oTHBjS/VM22ZdFnsUnt6TOBXV1ls8k+7O5BuGRkAbPY0go4EAoyZF+L7VepFoCiiiTgFADBzRYSmVrEJO0kT/v5BM8GQSgTaEbNXRhg7T8ot9kmGrn1rdyfSLWMDAEPXGgBdZJv3v9Ms23WWiuJ4WZK/peqDCR7/TK0A/pr6YIIH3m22uxvbknGzf8jgAGCzx4GYqMbqgwnuHdVEPCHl8paiOJJXRCUgi42ZF6JVzmVtKcQSJveMapJ1gjTH0LWxdnfCDhkdAGy+7EHoKsD8tVGe+CwgsklFyWgOGP8xTVhaLWwu4Tr//sRgwVppa6b8xe4O2CWjA4DNHgAaRDb43oxWPpHvbmtFcSSvQ95SizdIO8DZ6oOZrXw4S9r34VhD1z6xuxN2cchXyzqGrjXSfiRQqEc/MVi0Qc0IrJZKFvdPJVQOl7ScsAIAqCJBWzF/bZTHP5V2RTQG3GZ3J+yU8QHAZi8Ac0Q2GI2b/HFkI40tamQRLZYw+XZ5hEc+Nrj1VTGLNx/MbOXO1xv5aFab+ptJRtIjY7+wR5dsu7sglbpAgnvebCQmb07U04auLbW7E3bK1EJA/8PQtaS/qvpmYCogbL5RG0hww0v1DL2yE5UlYo4yZbKZKyJ8OKuNacvCwgeFRBKmLg0zdWkYjwf27ZHDcfvmc9bAAnKyHDIFdakawxkz6701FQBsUdOc4KZXGmiQN5jeBPzV7k7YTa0AbGbo2jTgDdHtrq6LU/VCPRsanfESk9Hymhi3vdrAza80MH5ByPIZoWnCgrVR/vO5wdlP1PLp920kpZ3EuN8mByyt52R52KOLmk8BrK1vf+etb5Cu1O9P3bv5dtiMpgKA//UHoF50o9VNCapeqGdVrdRfCOnUNCd46L1mLhtWx3fL7SmyVBtI8Lf3m7l0WB3f2tSHTOeEFYArBheplSLag/WqF+rZJPffbDIwwu5OyEAFAD9h6FoNcKUVbdcHE1z3Yj1L1FGhX9UaMXl6TIBzn6zl8zlyzL5/rInx+1cbuOWVBn6sUX/DdJI9ua6Pls0Vg4vt7obtFqyNcsOLDcKrLQrWBFxi6JoEbxX7qQDgZwxd+xSLboQy2pLc+FI9c1er40Lbsq4hzlXP1TFyagvRuHzf0RkrIlz5XD1fzJWynKkrzZG4xLa/wMuD55Thy/A36cwVEW4Z0UAwLPXgD3CtoWvr7O6ELDL8Y7tNdwPzrWi4NWJy66sNTFwUtqJ5R5u5eXCV8JrQ/xGNmzw4uolnxgakWJ1ws2HjAmxoknMF4Kg+ebx1a2d265zZe/9fLghxx+uNhKLSfxl0Q9fes7sTMsnsT+42GLoW8VdVXwjMAvJFtx+JmfzxzUbOOKiA35/sV3eKA6Ont/LEZ4ajzuO/MaWFlZviPHx+GYW56m8o2tNjAoyc2mJ3N/5HWaGXvt2zOf43BZy0v/BXg6O0RUz+/anBZ3OkLfLzU4uB2+3uhGw8pqhKKi7kr6q+DnjOymfs0imLh84pZd8emXmneDxh8vhnAd6f0Wp3VzqsV2UWj19Szi6d0hdPB8NJjnu4JuV2BvXN47GLywX0SKy3prXyn8/tuWCnothHHy2bimIvFSW+9v8W++jdJZtuZeo4L8C8NVH+MrqJjZKuzvxMBBho6Jolq7pOpgKAX+Gvqn4FuMLKZ3i9cNXRxVx1dHFG7SWaJtw7qpGvXbAd4i/w8vL1FexSnp4gwM0BwMRFYe4d1ZjW7ZXeXbMZ1CePo/rm0VfLxqMWdLYqnjDRJwR5fXKLk7a/rjR0bYTdnZCR2gL4ddcC3YATrHpAMgkvTgjy7bIID51bSo80ziTt9PxXQVcM/tCe4Hnn6428fH2l2g5IwcL1UR54tyktg4vXCyf1L+CKwUXsWpEZ37lUrK6L88C7TU679OjPavDftgyab3aMoWtx4Bzge6uftXB9lEuH1fHejFaSDtoL74hx80O8MjFodzeEWl0X589vp2fwcqPqpgR3vt5IJGbtL9DrhZP2z+ed2zrzwNmlavD/FYkkvP1tK5cNr3Pa4P+soWt/t7sTMlMBwA4wdK0F+B2w2upnhaImj35scN5TtYyZF3LlYLJoQ4y/vd9sdzcsMW1ZmKFjM77A2E5ri5jc/pr1Z8j32SWHUbd05sFzyjJmpa2jkkn4fE4b5z1ZyxOfGZYHZoJ9CNxsdydkpwKAHbS5SNCJCL46eFvWNcT5y7tNXPh0LV8uCAm79c5u9cEEd7/RKOUZf1FGTm3h0+8dkRktjX982Gzp8U+fF64dUsyLVRX0qlQD//YkzfYVugueruWh95pZ3yj3sdyt+Aa4yNA1l6+jpk4FADth881RpwFpe7tvWVa+eGgdXy8KOzoQaE/6a6I+6IjM4ZT86yODFZsctVxqm/dmtPLlAusKK/XolMULVRVcM6QYr3rjbZNpwtcLw1z8TC33v9PEmnrHDfwAi4DTDF1Tlbp2gPo67KTNlwYdCzSm87krNsW4581GLhtex5QlzkycG78gxPy1mVEFMZYw1VbADli6McaTn1v3ezp4j1xeu7GSfXbJzGO2O2rKkjCXDa/jnlGNrHTunSWzgMGGrqX13exkai2sAwxd+85fVT0IGAt0T+ezl22McdcbjezfK4f7zyxN69nzVMQSJs+OT8+A6PVARUkWRXk+fL72vUyvB0wgFE3SEEgQjlm/OjhtWYTvV0U4YLdcy5/lRK0Rk/tGNVm2HXT8b/J54OxSsn3qVMa2rG+I87cPmt1QnnwCcIaha+7KLLaYM0YPCRm6ttBfVX0EMA7YK93Pn7s6ysVD67jphBLOPaRQ+nPL789os/RK5Gyfh720XPr2yKNP9zwKcre9uJU0YdWmCIvXh1m0Lkxzq3X9Gjo2yMvXqwBga/75oXX7yxceXsRtJ5VI/72wi2nCu9NbGTY2QNhZyX1b8z7te/7yXhohKRUApMDQtTX+quojgS+AA9P9/HDM5PFP27NzLz2qKN2P32GtEZOXv7YmMPd64OA9CxmyXxHF+TtWpc3rgT265rJH11xOPtDP7BVtfDUvSCAkPhBYuD7KhIUhhuyT2WVjf27q0rBl+/5VxxZz9THqdr7teWNqi1u2qF4CrjN0zf2JRRZQOQApMnStDjiG9iUoWzw/Pij1FbWvTQ7S3CZ+yb13t1xuP60zpw/07/Dg/3NeDxzcu4A7T+/MkP2KLZkxDh8XdNQdB1YLx0we+8SaMr8XH1mkBv9f8WNNjOfHu2Kl/FFD165Rg3/HqQBAgM37TicC/7Hj+bGEyV9Gy3muPhhK8tY08XX+D9u7kCuGdKJTsZhFrOwsD8f1L+ayo8vJzRYbBaxriDNmnjoWuMULE4LUNIt/Z596YAG3nlgivF23+cvoZmIJRy/7twKXG7r2R7s74nQqABDE0LWYoWt3AKeT5hMC0B7Vr2uQL3t36tKI0D1GD3D6QD+nHuzHa8Fsfe/ueVx/QiX+ArGXvoxf4MyTG6Kt2BRj1Dfib/g7Zp887ju9VHi7brOuIS71auEOmA8caOjaa3Z3xA1UACCYoWsfAwOAael+toyZvJMXix34jtu/mEP2KhTa5s91Kc3i8iHl5GSJizBmrYzQFnH0rCtlpgn//Ej8lc97dMnmr+eWqTP+O2COhO+InfAccMjmeiyKAOorYwFD19YCg4FHaD99lhaynbGPxk2+XS4uAPhNz3yO2Tc9+7tdS7M5/8gyYTkB0bjJtGWZvQrw0aw2Fgj+jOZle/jHBWVCgzU3k+0dsYMM4DxD124wdC2zv0SCqQDAIoauxQ1duwc4GahNxzOzJDvvPGtlhFBUTPxTXpzF2Yend4m37y55DN5H3OmKiYJXQ5ykqTXJ0HHis87vOsWvSvvuhCwr9s2sNR0YYOjau3Z3xI1UAGAxQ9fGAHsDwwBLs1W7l4ndt07VJIED3okDim0p6DJ4n2IK88R8TaYtDTs9+arDnvzcIBgSu/Z/Qv98Tj2wQGibbtetVK53xHY0AjcChxu6tsruzriVCgDSwNC1ZkPXbgYOwsLcAK1cni+3acIUQQHArpU57LurPefoc7M9DNlPzLZDa8Rk1kpHLsGmZOaKCGPmiT3zv0unLO45TSX97axukk0StsIEXgT2NnTtWXWhj7VUAJBGhq7NBY4ErsCCbYG9umaLbrLDqpsSNLSI+e4eK2gA7qiBexZQJGgVQPQeuOxiCZNHPhZ75j/b5+Ef55dRkOu45Wzb9ZboHbEV0wngzAAAHMJJREFUs4BDDV271tC1ers7kwlUAJBmhq6Zhq69Snv54GcQtC3Qxe+T6l4AUTf+5eV42b2rvRe5+Lwe+uySJ6StukBm1Sz5eHab8OOpt5xYwt6a1AOZtHbvnEV5kXSv/QbgOtoz/GfY3ZlMIt0nIVMYumYYunYr8ISI9g7aXa5686ICgL21XHwSJC71ExQA1AczZ0UzGjcZMVHsmf+j+uRx/mHWHgN1uwMle1fQnuGvq+X+9FMBgP26imhk/15yXXcqaqATNfNO1R7dcoWcshAVGDnBx7PbqBW44lGQ6+Ge0/3C2stU+/eU610BdLO7A5lKBQD26yWikZ4V8iz/g7il7ooSOf5d2T6PkOqAmbIFEI2bvCJ49n/10cVUFEufxCY92d4VwG52dyBTqQDAfr1ENLKrZF9qUTPdYkHJdyKICACa25IZcTHQBzPbhK527FqRxfmHq6V/EXrKVzdhd7s7kKnkebtmIH9VdTbQPdV2ivK8lBXK9acUsQXgAYo6eMufFUoKUv8dmyY0tLh7FSASM3ltstjZ/+0n+22pA+FGlcU+8nOk+l2qFQCbyDVqZJ5dEfA36NFJnkFyCxEVAH0+jyUX/nRUTpaYr4uo6oiyen9mq9DZ/5F753H4XtIlrjmWxwM9JDoxhAoAbKMCAHv1EtGIbMv/AJ0EHDWKJ0wiAm8STFUwJGZQE/G7kVVY8Ow/2+fh9pPVFb+iSZYHsMvm1VAlzdz7JnKGXiIa2VWuaB5AWLKWqEFXhEBb6n3Jy/YIKyoko/dntNIoqAAUwEVHFEpV38ItJJs0+IAednciE7n3TeQMmohGJFvOA6CiRMxHKyBRAGAICADcnMVumjB6equw9iqKfVx5tL1VIN1KsgAABORCKTtPBQD2EvL71ySs710paKBbXStH6dz6QJyWcOozW1GBkYxmrIiwoVFcwHbVMUWyJau5hoTvDPd+MSSmfun2ErLBnSfhS7KToABg0To5rtBdvF5MP9y8AvDBDLGz/1MPUDf9WSU3W7p3hjzJPhlEBQD2EvKhz8mS7stMpaCZbnVjTMjSe6pEBSIVxe78ytUHE0xeIi5Yu/SoIik/126RI9+RShUA2MCdbyPnEPKhz5XwRdmt1IdX0Kdr5vI2MQ11UK0RZ229mK0IGfM1RPhkdpuwAkdlhV7OOFjN/q2ULd9ClAoAbKACAHsJ+dBnSxgAFOV56b+rmJrjUxe32HoaYMycAKag19MRe8lxt4FISRM+nCUuSLvoiCLy5FuidhUR91oIpgIAG6gAwAUE1acRbnA/MYNdNG4yfl5QSFs7a3VtlCWC9v/36pZNN/mSr1L23fIwNc1iArSSfC/nHKJK/lrNJ+k7Q0kv9TGwl5CoNxCSs7j8oD75wtqavaKNFTURYe3tiGjc5KMZzcLaO1pQQCSb92eIm/1fcHghBbnSzU5dR8J3hloBsIEKAOwl5EMvsvCKSN3LfezRRcyed9KENyc30ZimOvom8PbUJjY1x4W1Obiv+wKA2kCCb5aJWSHJyfJwtpr9p4WE7wwVANhABQD2EvKhb2qV7sv8X4P7ilsFCEWTvDGxMS3lgcfNCQg7+gftwVDvru6rdjrhhzBJQR+/IfvkUSrgwiXl10n4zlABgA3Ut81eQkaYplb7j8ltyyDBs96a5hjPja2zbCUgkTT5cLrBpIVib7MTGQjJZF2DuBWSswaq2X+6SBgAyFHwI8OoAMBea0U0IuFy3n/17Z5Nv+5iZ76bmuMM/6KOlZvE5gS0RpK8PL6BGcvFFbSB9oQrtx5rq24SE4jt0SWb/j3FnBpRfl26ttJ2gpB3obJzVABgr9UiGllZK24WZoVbTvQLb7MtkuSl8Q28O62Z5hRXQBJJk2+WtPKfj2tZZUHp4VMPLJDt9jVhNhliPntnDXRngCSrFZukemcEDV1rtLsTmcidbyXnWCOikTmr0psdv7MO2C2HI/bO45ulYlf5TBPmrGxjwZoQh+xZwEG9C+lSuuMf6bZIkoXrwkz8IUiTRTOivGwP1w5x74U2u5RnpTyY5Od4OHl/FQCki2nCvDVy3LGxmZD3oLLzVABgI0PXGvxV1S1AUSrtNLQkWVsfl/GGr/+66fgSvl0WJmlBqk880T6D/2ZJK52Ks9h31zx2rcyhON9Hcb6Xojwv4ZhJSyhJMJSg1oizeH2YVZsilvTnpy44vNDV9f8P3yuPSYtTC+xO6J+vjv6l0cramGzHAFfb3YFMJe+IkTlWAful2sic1VGpA4A9umTxuwMK+GS2tWV9G4Jx4Ql8HeUv8HLpUSnFdtI7dM/clH7e54VLjnT370g2c1ZLNfuH9negYgOVA2C/GSIambNa7m0AgKpji2W8hcwyVx5dRFGeu79iXUt9nNC/4yccTj2gwLX3I8hKwgBAyDtQ2Xnufjs5wzciGpm5IirsMhardC7xcdtJJXZ3Iy3698zJmJK2955eSq/KnR/EK4p9XOPi/AgZxRMms1dKN1mYZncHMpUKAOwnJACoDyb46oeQiKYsdfbAQs52+XnvrqU+HrmonGz5LlyxRH6Oh0cuKqd4J1Y7uvh9PH9NJypL3JsfIaNx80Oy1QCoMXRtpd2dyFQqALCZoWvLgHoRbb0+RY69719z5yl+Dto9tb1jWeXneHj8knLKCjPrq9WrMot3b+/MGQcX/Oo10Ef1yUO/toJd1NJ/WpmmlO8INfu3kfoGymEacFqqjSzbGGP6jxEO6S334Orzwj8vLOPKZ+tZ3yjVeeSUeDzw0Lllriz5uyPKCr3ce3op5x5SyDvftfJjTZzVdTFMoFdFFnt0zeacQwrpo2Xm78du3ywLy1gzRMgKqNIxKgCQwxcICACgPcKXPQCA9mtfH7+0nKueq6M14o4y4NcfV+LKC392Vu+u2dx3Rqnd3VB+5rXJ0s3+AcbY3YFMllnrlPJ6FxASms9cEWHRhpiIpizXqzKLxy4ud0Wm/PmHFXLFYHWcTZHT3NVR2Yr/AMwxdG2R3Z3IZM5/87qAoWsNwDhR7T3wThPBsFSJPtt04O65vHx9hWOPgmX5PNx7Ril3/E58uWNFEaG5LcmD7zXZ3Y2tGWl3BzKdCgDk8aaohtY1xPnz202WV7kTpWdFFq9cX8HAPeTfuvipskIvQ6/sxBkHqTK2ipwSSbjvrSY2Crq0SaAkMMruTmQ6FQDI4yNAWJm875ZHGDYuIKo5yxXne3ny8k6ce6gzjgj27prNK9dXMqCXusFOkdeTnxsynvsHmGDoWrXdnch0KgCQhKFrLcB7Itt8Y0oLY+fJXxtgC58X7jrFz72nl5KfI+8Z+t/+Jp8XqyroVqbOsCvy+vT7Nt75TuzV1gKNsLsDigoAZPMPQOha3d8/bGbBWumSf7brjIMLeP+OLpw9sBCfRJ/QfXvkoF9bwcPnlUkdoCjK96uiPPKxYXc3tmU58JbdnVBUACAVQ9eWIDgxJhIzueGlBt7+VtqZwFaVF3n5w2l+3rq1M8f0s/doXY9OWfzrwnJeuq6C/j3Vkr8iL9OEkVNbuGVEA9G4tElADxm6Jl1SQiZyZuq1u/0VuAiBf5tYwuSJzwxmrojwwNmllOQ7J+7btSKLf11UzoK1UZ4ZG0jrUaayQi9XH1PMmQcXkJUhZX0V5zLakjz0XjPfLE3temaLLUYl/0nDY5rSRokZy19V/QJwjRVtd/H7+Nt5ZY6dya6uizNpcZhJi8Is2hBF9Me3c4mPQX3zGNQ3jwN2y5G2nn8wnOS4h2tSbmdQ3zweu7hcQI8UO81dHeXP7zRRF5B+Yn2BoWtv290JpZ1aAZDTw8ClgPBzcZuMBNe/VM/VRxdz8ZFFjtvL7lWZRa/KIi4fVER9MMHUJREmLQ4xa2W0w0uevbtmM3jzoK/K1CpOEoqajJzawksTgyTlL/2xAHjH7k4o/0+tAEjKX1V9D/BPK59RnOfl9IMLOPeQQrqWOjujPZYwqQ8kqQsmqA8mqAskaQgmqAsmaWxJUJDjpbLES0Wxj8oSHxXF3v/+14mVCNUKQGaraU7wznetfDSrjRZnFP1KAEcauvad3R1R/p9aAZDXY8AZwCFWPSAYTvLGlBZGfdPCkH3yufCIQvbZxZlbA9k+D93KfOponuJq89dGeWtaK18vCjlhxv9Tj6rBXz4qAJCUoWsJf1X15cAcIN/KZyWS8OWCEF8uCLHfrjmcdXABB+2RS2d1V7ui2K6mOcGslRHen9HGwvXOOtK72XzgQbs7ofySCgAkZujaUn9V9b3Ak+l65oK10f/WDehW5mNAr1z275nDgF457FqhPi6KYrXVdXHmro4yd02EOauj1DRLn9i3PRHgMkPXHBm5uJ16o0vO0LWn/FXV+wNXpPvZG5sSbGxq4/M57RWKy4u87N8zl4G9czj+NwUU5jorgVBRZBQMJxk7L8SsFRHmronS1Oqstf1fcZWha/Ps7oSydSoAcIYqoAdwrJ2daGxJMmFhiAkLQzz1RYAT+udz9sBC9uqmMucVZWctqY7x3vRWxs0PEY65Mhn7AUPXhF1ypojnvPTnDGToWgw4G1hod1+2CEVNPpzZxqXD6nhtcovd3VEUR3lxQpDLh9fx8ew2tw7+rxm69je7O6FsnwoAHMLQNQM4CfjR7r783LBxAT6Y6axSw4pil7e/beWFCUG7u2GlT4Fr7e6E8utUAOAghq6tA46kPatWKo9+bPDlAufcPKgodvh8Thv/+VzaS3pEGAmcqZL+nEEFAA5j6NomYDDwjd19+amkCQ+/38y6hrjdXVEUKa2sjfPPjwzh5aslMhS41NA19RJwCBUAOJCha83A8cBHdvflp8IxkwdHNzutQImiWC6eMHlwdJPMN/SlIgncb+jaLYauufIf6FYqAHAoQ9fagDOBu4CYzd35rx/WRXltikoKVJSfenliC0urpfmairQJOMHQtYft7oiy81QA4GCGrpmGrj0ODALW2N2fLV6cEGR5jStfdoqy0xZtiDFikiuT/sYD/Q1dG293R5SOUQGAC2yusT0AeMPuvkD7xTx/ebeZWEKtBiqZLRIzeWh0Ewl3bYs1AXfSPvPfZHdnlI5TAYBLGLrWZOjapcBRwFy7+7NiUwz9K1fOehRlhw0bF2B1nWty4lqAvwO7Gbr2hKFr7gprMpAKAFzG0LWpwEHATUCjnX15Y0oL89eq00BKZpq9MsI737miPkaE9vtI9jB07c+ba5IoLqACABcydC1h6NpwYDfgbmCDHf1ImvDQ6GZCUbUVoGSW1ojJX99vdvqRvzjwIrCnoWu3G7pWa3eHFLFUAOBihq4FDF37N+2BwJXYUEp4fWOcp8cE0v1YZQepPA1rPPGZ4eRb/EzgLaCfoWvXbi5ApriQugwoA2y+S2CEv6r6VeAw4HTgNKBPOp7//oxWBvfN49A9c9PxOGUnrK51zf60NKYsCfPp9212d2NnJYBptNcW+cDQtZU290dJA4/p8DUqpeP8VdV78f/BwOFYuCJUWeJj1C2VFOerRScRZq6IcPMrDSm34wFG3FhJH03d6ChCc1uSC56qdcqVvm3AONoH/U8NXau3uT9KmqkAQAHAX1VdCZxCe0DwW6BA9DOO2y+fv59fJrrZjGOacPnwOpZuFFNrYb9dc3jh2go8HiHNZSzThLtHNjJlSdjurmzPJuAT2gf98YauSd1ZxVoqAFB+wV9VnQ9cRXttb6FuPL6EywcViW42o3wyu42HP2gW2uZfzi7l5AHCY76M8sKEIC/Ke8tfkPaVvsnq+J6yhQoAlG3yV1W/CFwtsk2vBx69uJyj+uSJbDZjtISTnPMf8UvMnYq8vHt7Fwpz1TJAR0xYGOK+t5pkzvq/xNC1kXZ3QpGL2pBVtuc2YKnIBpMmPPBuEytV8lmHvDihxZL95YaWJC99Le3sVWrLNsZ4aLTUR/5eV4O/sjUqAFC2ydC1VuBCQGg1n7aIyd1vNBIIqZXInbG6Ls67060rLPP2t61uqlqXFk2tSe4e2Ug4Ju3ov4L2omCK8gsqAFC2y9C1OcC9ottd3xjn3lGuq5FuGdOERz5uJm7huf14wuSRj6WeyUolljD545uNMp/3jwEXGrqmlnaUrVIBgLIj/gOMFd3orJURnvhMVRXdEW9928L3q6wvq/z9qihvfauuc94Rj35sMG+N1KWu/2zo2ky7O6HISwUAyq8ydM0ELgeElwIdPb2V0RYua7vBqto4w8elbxI3fFyQVSpHY7tGTm3h49lSF/sZDzxmdycUuakAQNkhm6/9vIL2MqFC/ftTg8/nSP0ytU08YfLg6Cai8fSty0fj7c+0crvByT6a1cYzY6Uub10HXLY5cFeUbVIBgLLDDF37AnhKdLumCX/7oJkJC0Oim3a8lye2sKRaTMGfnbGkOsbLE9VWwM+Nmx/iXx9JnydxpaFrG+3uhCI/FQAoO+seYK7oRpNJuP+dZr5ZqgqTbbFwfZQRk+zL3xoxKcjC9VLvcafVlCVhHhzdRFLuwf9pQ9c+s7sTijOoAEDZKYauRWg/Gih8zT6eMLlnVBOzVkZEN+04kZjJQ6ObbT0lkUi2X+cckfeIW9rMWBHhvrekP7UyD/iD3Z1QnEMFAMpOM3RtCfB7K9qOxk3ueqOR+Wsze+b5z4+aWVNvfyLemvo4//xIbNlhp5m3JsrdbzSmNQ+jA9qACzYH6IqyQ1QAoHSIoWsvAO9a0XYoanL7a40stWHvWwavT2nhi7ny5EN8MTfE61MyMx9gSXWM219rkLnQzxa3bA7MFWWHqQBAScUVwGwrGm4JJ7llRIOwG++cYurSMMPHyZdhPnxcgKkZlp+xtDrGrSMaaI1IP/j/x9C1l+3uhOI8KgBQOszQtTbgVGCdJe23JbnuhXqmLcuMgWdlbZz735EzySxpwv3vZM4dDt8sDXPdi/UYbXJv+gMfA3fZ3QnFmdRtgErK/FXVvwGmAsVWtO/1wt2n+DlrYKEVzUvBaEtyxbN1VDdJW1YWAK3Mx4gbKvEXuHfuMHp6K49/ZpCUfuzne2DQ5js7FGWnqQBAEcJfVX0i8Cngs+oZlx5VxE3Hl+Bx2Y21sYTJrSMa0lLqV4QDdsvh6Ss6ke1z1x8iacLQsQFGTnVEvsN6YKA676+kQgUAijD+quobgOFWPuO4/fL5y9ml5GS5Y/CJxtuPPjqt/sGRe+fxr4vKXBMERGImf3m3ia8XOeLvEASONHRtvt0dUZxNBQCKUP6q6ieA2618Rv+eOTx2cbnjl6GjcZM/jGzk2+XOPLl1+F55PHJRmeODsabWJHe+3uiUokcJ4DRD1z63uyOK8zn7DarI6C7gIysfMG9NlKufr2d9o3MT0iIxkztfd+7gDzBtWZi7R0p/Pn671tTHufr5OqcM/gC3qcFfEUWtACjC+auqC4GvgEOsfE5RnpfbTirhtAMLrHyMcKGoyR2vN/L9KucO/j81sHcu/764nNxs56wEmCZ8MLOVp8cECEUd8w78t6Frd9vdCcU9VACgWMJfVe0HxmJxEABwSO9c7jujlK6lluUfCmO0JfnDm43MXe2YGecOOWj3XP51URnFefIvKm5sSvDwB81OKzn9pKFrlm6tKZlHBQCKZdIZBBTkerj1xBLOOKhQ2lMCC9ZG+dPbTWwy5D7q11FamY+/X1BOv+7Zdndlq0wT3pvRytCxjpr1gxr8FYuoAECxVDqDAGifif7pzFK0MrlWA0ZObWHYuIDsl8mkLNvn4daTSjjvULlqNmxobJ/1O3DbRQ3+imVUAKBYLt1BQH6Oh5tPKOHsgfavBgRDSR56r5kpSxxxvEyYY/bJ489nllJk85aAabYX9hk2znGzflCDv2IxFQAoaZHuIADgN7vmcMNvizlgt9x0PfK/TBMmLAzx9JgANc3uXPL/Nd3Lfdx6op+j++XZ8vzvV0V49sugU2+WVIO/YjkVAChpY0cQADCgVw7XDCnmoN3TEwjMWhlh6NgAizdk1kVG27LPLjncfEL6ArFZKyO8OCHIHOcmWqrBX0kLFQAoaWVXEADtKwJnDSzk6H555OeI3xtYtjHGsHEBvnPw2X4rHbZnLjceX8Je3cQnCYaiJl8vDPHBzDanzvi3UIO/kjYqAFDSbnMQ8AlwlB3Pz8/xMGSffH43IJ8BvXLxprBNvb4xztcLw3y9MMyiDVEc+HVaC3QG0rJO7/FAv+45DNknjyH75qeUrJlIwuxVET6f08bERWEn7vH/3COGrt1jdyeUzKECAMUW/qrqbOAZ4Do7+1GQ62HfHjns3zOH/j1z2LNrNiX53q0mD4aiJpuMBDXNCRZtiPL1wjDLNjp6mb8GOAwYAIzGhsqge2vZDNknn77ds+ni99HF79vq6oxpQiCUZNnGGPPWRJm3JsqCdVE3DPoAYaDK0LXX7e6IkllUAKDYyl9VfT3wNCDN4XGvF/z5XkoLvZTke2mNtA/8wZCrzvA1A8cauvY9gL+q+kZgKGB7FYXifC9d/T4K8zwYbUmaW5MYoaQTruftiA3AmYauzbS7I0rmUQGAYjt/VfUg2meglXb3JUNsAo7/+W1y/qrqqwAdC690Vv7Ht8BZhq7V2N0RJTPJX7dTcT1D1yYDBwFz7O5LBljDNq6SNXTtZeB8wNFZdA7xMnC0GvwVO6kVAEUa/qrqAuAl4AK7++JSi4Hf/l97dxNiYxTHcfxLXvLWacjFCRtKSqLJyyixkUESiSxYUGdBalLKy0LKu5KSWZwlEQtZCFNCXhfeJVkgpXGKhnGGSTJhcZ5bQ8Ll3nue57n/T93uXdznPL+508zzv+ec5xxv9avfvUkZNwc4DaRrOb986AI2eKsPxQ4ihBQAInWUcZuAnUgPVTndAeZ5q9v+5s3KuAbgLFBX0VS15S2wzFt9KXYQIUAKAJFSyrj5wHFAxc6SA5eBRd7qD6UcpIybCLQAIyqSqrY8IvwOXsQOIkSRfMMSqeStPgdMAE7FzpJh34C9hAl/JV38AZJ5ApOBi+UOVkM+A9uBqXLxF2kjPQAi9ZRxjYQ1A8bGzpIhbcAqb/X5/21IGdcT2ApsQ+4QKEULsN5b/Sx2ECF+RQoAkQnKuL7ApuQRZ3eZ7LgGrPjTZL9SKeNmEYZldDnbzaFWoMlbLb1XItWkABCZoowbQ1iwpjF2lhT6CuwGtnmrK7IFoTJuKHAUmFuJ9jOuCzgIbPdWf4wdRog/kQJAZJIybgnhn+2o2FlS4jbhW+fNSp9IGdcDWA3sAIZX+nwZcRVY661+HDuIEH9LCgCRWcq4AYRx6SZStJRwlbUCm4Fj3uqq/jEr4wYm595A7Q7LvAE2equPxA4iRKmkABCZp4wbR7gIrQT6RY5TLZ3APmC/t/pTzCDKuNHAHmBFzBxV5oDDQLO3+n3sMEL8CykARG4o44YQdhdcR34nqnUQxuB3eatd7DDdKeOmA1uA+eT3boH7wAHgpLc601tBCiEFgMidZKvh5cAaYCb5uBjdImzUc8Jb3Rk7zO8o40YS5gisAUZHjlMOnYRVEZu91VdihxGiXKQAELmmjCsAi4GlwGygV9RApfGE2+6st/pB7DClStYPaAQMsIBsffYdwBnCQlQtsYdZhKgEKQBEzUiGCBYCM4B6wkqDfaKG+lEbcJ0wo/wa8MBb3RU3UnkkEzYbCD0yM4FpQP+ooX7kCd37dwlLJ1/wVsuuiCLXpAAQNUsZ14dQBNQDE4ECYfObwclzHWEvgi/Aa8KM7zfdXjtC1/zTbu2MT47v3kYdMAj48NPxxdcvgRve6icV/pFTIxmmqQemEuZrFIBhyXPxdW/Chfkd0J483hE+t4fAPcL2xlOASb84vgAMJayP0P5TG+2EOyiKF/3n1b6LQojYvgMh4aYMYTrqoAAAAABJRU5ErkJggg==;" parent="1" vertex="1">
          <mxGeometry x="99" y="793" width="102" height="102" as="geometry" />
        </mxCell>
        <mxCell id="eb6X6qhN3olK0OHb7I_1-7" value="&lt;span style=&quot;font-size: 20px&quot;&gt;&lt;br&gt;&lt;/span&gt;" style="rounded=1;whiteSpace=wrap;html=1;fillColor=#94A0F1;strokeColor=#6c8ebf;fillOpacity=25;align=center;opacity=70;arcSize=5;" parent="1" vertex="1">
          <mxGeometry x="289" y="680" width="160" height="320" as="geometry" />
        </mxCell>
        <mxCell id="eb6X6qhN3olK0OHb7I_1-8" value="&lt;i&gt;- BCI&lt;br style=&quot;font-size: 15px&quot;&gt;- RCP&lt;br style=&quot;font-size: 15px&quot;&gt;- Myolectric &lt;br style=&quot;font-size: 15px&quot;&gt;- Speech&lt;/i&gt;" style="text;html=1;fontSize=15;" parent="1" vertex="1">
          <mxGeometry x="115" y="905" width="70" height="70" as="geometry" />
        </mxCell>
        <mxCell id="eb6X6qhN3olK0OHb7I_1-11" value="&lt;span style=&quot;font-family: &amp;#34;helvetica&amp;#34; , &amp;#34;arial&amp;#34; , sans-serif ; font-size: 0px&quot;&gt;%3CmxGraphModel%3E%3Croot%3E%3CmxCell%20id%3D%220%22%2F%3E%3CmxCell%20id%3D%221%22%20parent%3D%220%22%2F%3E%3CmxCell%20id%3D%222%22%20value%3D%22%22%20style%3D%22shape%3DflexArrow%3BendArrow%3Dclassic%3Bhtml%3D1%3BfillColor%3D%230FC6E1%3BexitX%3D1%3BexitY%3D0.5%3BexitDx%3D0%3BexitDy%3D0%3BendWidth%3D12.8%3BendSize%3D5.0520000000000005%3BstrokeColor%3D%236c8ebf%3BarcSize%3D20%3B%22%20edge%3D%221%22%20parent%3D%221%22%3E%3CmxGeometry%20width%3D%2250%22%20height%3D%2250%22%20relative%3D%221%22%20as%3D%22geometry%22%3E%3CmxPoint%20x%3D%22400.0714285714289%22%20y%3D%22390.42857142857156%22%20as%3D%22sourcePoint%22%2F%3E%3CmxPoint%20x%3D%22439.49999999999955%22%20y%3D%22390%22%20as%3D%22targetPoint%22%2F%3E%3C%2FmxGeometry%3E%3C%2FmxCell%3E%3C%2Froot%3E%3C%2FmxGraphModel%3E&lt;/span&gt;" style="text;html=1;resizable=0;points=[];autosize=1;align=left;verticalAlign=top;spacingTop=-4;fontFamily=Times New Roman;" parent="1" vertex="1">
          <mxGeometry x="292" y="844" width="20" height="20" as="geometry" />
        </mxCell>
        <mxCell id="eb6X6qhN3olK0OHb7I_1-12" value="" style="shape=flexArrow;endArrow=classic;html=1;fillColor=#0FC6E1;exitX=1;exitY=0.5;exitDx=0;exitDy=0;endWidth=12.8;endSize=5.0520000000000005;strokeColor=#6c8ebf;arcSize=20;" parent="1" edge="1">
          <mxGeometry width="50" height="50" relative="1" as="geometry">
            <mxPoint x="240.0714285714289" y="844.9685128348216" as="sourcePoint" />
            <mxPoint x="279.49999999999955" y="844.53994140625" as="targetPoint" />
            <Array as="points">
              <mxPoint x="260" y="844.5" />
            </Array>
          </mxGeometry>
        </mxCell>
        <mxCell id="eb6X6qhN3olK0OHb7I_1-14" value="&lt;i&gt;- EEG&lt;br&gt;- EOG&lt;br&gt;- EMG&lt;/i&gt;" style="text;html=1;fontSize=15;" parent="1" vertex="1">
          <mxGeometry x="345" y="905" width="50" height="70" as="geometry" />
        </mxCell>
        <mxCell id="eb6X6qhN3olK0OHb7I_1-16" value="&lt;font style=&quot;font-size: 22px&quot;&gt;Signal &lt;br style=&quot;font-size: 22px&quot;&gt;Acqusition&lt;/font&gt;" style="text;html=1;fontSize=22;fontFamily=Helvetica;align=center;fontStyle=1" parent="1" vertex="1">
          <mxGeometry x="315" y="725" width="110" height="30" as="geometry" />
        </mxCell>
        <mxCell id="eb6X6qhN3olK0OHb7I_1-17" value="Biological&lt;br&gt;Foundations" style="text;html=1;fontSize=22;fontFamily=Helvetica;align=center;fontStyle=1" parent="1" vertex="1">
          <mxGeometry x="95" y="725.5" width="110" height="30" as="geometry" />
        </mxCell>
        <mxCell id="eb6X6qhN3olK0OHb7I_1-20" value="&lt;span style=&quot;font-size: 20px&quot;&gt;&lt;br&gt;&lt;/span&gt;" style="rounded=1;whiteSpace=wrap;html=1;fillColor=#94A0F1;strokeColor=#6c8ebf;fillOpacity=25;align=center;opacity=70;arcSize=5;" parent="1" vertex="1">
          <mxGeometry x="509" y="679" width="160" height="320" as="geometry" />
        </mxCell>
        <mxCell id="eb6X6qhN3olK0OHb7I_1-21" value="&lt;span style=&quot;font-family: &amp;#34;helvetica&amp;#34; , &amp;#34;arial&amp;#34; , sans-serif ; font-size: 0px&quot;&gt;%3CmxGraphModel%3E%3Croot%3E%3CmxCell%20id%3D%220%22%2F%3E%3CmxCell%20id%3D%221%22%20parent%3D%220%22%2F%3E%3CmxCell%20id%3D%222%22%20value%3D%22%22%20style%3D%22shape%3DflexArrow%3BendArrow%3Dclassic%3Bhtml%3D1%3BfillColor%3D%230FC6E1%3BexitX%3D1%3BexitY%3D0.5%3BexitDx%3D0%3BexitDy%3D0%3BendWidth%3D12.8%3BendSize%3D5.0520000000000005%3BstrokeColor%3D%236c8ebf%3BarcSize%3D20%3B%22%20edge%3D%221%22%20parent%3D%221%22%3E%3CmxGeometry%20width%3D%2250%22%20height%3D%2250%22%20relative%3D%221%22%20as%3D%22geometry%22%3E%3CmxPoint%20x%3D%22400.0714285714289%22%20y%3D%22390.42857142857156%22%20as%3D%22sourcePoint%22%2F%3E%3CmxPoint%20x%3D%22439.49999999999955%22%20y%3D%22390%22%20as%3D%22targetPoint%22%2F%3E%3C%2FmxGeometry%3E%3C%2FmxCell%3E%3C%2Froot%3E%3C%2FmxGraphModel%3E&lt;/span&gt;" style="text;html=1;resizable=0;points=[];autosize=1;align=left;verticalAlign=top;spacingTop=-4;fontFamily=Times New Roman;" parent="1" vertex="1">
          <mxGeometry x="512" y="843" width="20" height="20" as="geometry" />
        </mxCell>
        <mxCell id="eb6X6qhN3olK0OHb7I_1-22" value="" style="shape=flexArrow;endArrow=classic;html=1;fillColor=#0FC6E1;exitX=1;exitY=0.5;exitDx=0;exitDy=0;endWidth=12.8;endSize=5.0520000000000005;strokeColor=#6c8ebf;arcSize=20;" parent="1" edge="1">
          <mxGeometry width="50" height="50" relative="1" as="geometry">
            <mxPoint x="460.0714285714289" y="843.9685128348215" as="sourcePoint" />
            <mxPoint x="499.49999999999955" y="843.5399414062499" as="targetPoint" />
          </mxGeometry>
        </mxCell>
        <mxCell id="eb6X6qhN3olK0OHb7I_1-23" value="&lt;i&gt;- EEG&lt;br&gt;- EOG&lt;br&gt;- EMG&lt;br&gt;- SSI&lt;br&gt;&lt;/i&gt;" style="text;html=1;fontSize=15;" parent="1" vertex="1">
          <mxGeometry x="565" y="905" width="50" height="70" as="geometry" />
        </mxCell>
        <mxCell id="eb6X6qhN3olK0OHb7I_1-25" value="NUI&lt;br&gt;Hardware" style="text;html=1;fontSize=22;fontFamily=Helvetica;align=center;fontStyle=1" parent="1" vertex="1">
          <mxGeometry x="535" y="724" width="110" height="30" as="geometry" />
        </mxCell>
        <mxCell id="eb6X6qhN3olK0OHb7I_1-26" value="&lt;span style=&quot;font-size: 20px&quot;&gt;&lt;br&gt;&lt;/span&gt;" style="rounded=1;whiteSpace=wrap;html=1;fillColor=#94A0F1;strokeColor=#6c8ebf;fillOpacity=25;align=center;opacity=70;arcSize=5;" parent="1" vertex="1">
          <mxGeometry x="729" y="678" width="160" height="320" as="geometry" />
        </mxCell>
        <mxCell id="eb6X6qhN3olK0OHb7I_1-27" value="&lt;span style=&quot;font-family: &amp;#34;helvetica&amp;#34; , &amp;#34;arial&amp;#34; , sans-serif ; font-size: 0px&quot;&gt;%3CmxGraphModel%3E%3Croot%3E%3CmxCell%20id%3D%220%22%2F%3E%3CmxCell%20id%3D%221%22%20parent%3D%220%22%2F%3E%3CmxCell%20id%3D%222%22%20value%3D%22%22%20style%3D%22shape%3DflexArrow%3BendArrow%3Dclassic%3Bhtml%3D1%3BfillColor%3D%230FC6E1%3BexitX%3D1%3BexitY%3D0.5%3BexitDx%3D0%3BexitDy%3D0%3BendWidth%3D12.8%3BendSize%3D5.0520000000000005%3BstrokeColor%3D%236c8ebf%3BarcSize%3D20%3B%22%20edge%3D%221%22%20parent%3D%221%22%3E%3CmxGeometry%20width%3D%2250%22%20height%3D%2250%22%20relative%3D%221%22%20as%3D%22geometry%22%3E%3CmxPoint%20x%3D%22400.0714285714289%22%20y%3D%22390.42857142857156%22%20as%3D%22sourcePoint%22%2F%3E%3CmxPoint%20x%3D%22439.49999999999955%22%20y%3D%22390%22%20as%3D%22targetPoint%22%2F%3E%3C%2FmxGeometry%3E%3C%2FmxCell%3E%3C%2Froot%3E%3C%2FmxGraphModel%3E&lt;/span&gt;" style="text;html=1;resizable=0;points=[];autosize=1;align=left;verticalAlign=top;spacingTop=-4;fontFamily=Times New Roman;" parent="1" vertex="1">
          <mxGeometry x="732" y="842" width="20" height="20" as="geometry" />
        </mxCell>
        <mxCell id="eb6X6qhN3olK0OHb7I_1-28" value="" style="shape=flexArrow;endArrow=classic;html=1;fillColor=#0FC6E1;exitX=1;exitY=0.5;exitDx=0;exitDy=0;endWidth=12.8;endSize=5.0520000000000005;strokeColor=#6c8ebf;arcSize=20;" parent="1" edge="1">
          <mxGeometry width="50" height="50" relative="1" as="geometry">
            <mxPoint x="680.0714285714289" y="842.9685128348215" as="sourcePoint" />
            <mxPoint x="719.4999999999995" y="842.5399414062499" as="targetPoint" />
          </mxGeometry>
        </mxCell>
        <mxCell id="eb6X6qhN3olK0OHb7I_1-29" value="&lt;i&gt;- Assistive Tech&lt;br&gt;- HCI&lt;br&gt;- Robotic Control&lt;br&gt;- Industry&lt;br&gt;&lt;/i&gt;" style="text;html=1;fontSize=15;" parent="1" vertex="1">
          <mxGeometry x="750" y="905" width="120" height="70" as="geometry" />
        </mxCell>
        <mxCell id="eb6X6qhN3olK0OHb7I_1-31" value="NUI&amp;nbsp;&lt;br&gt;Applications" style="text;html=1;fontSize=22;fontFamily=Helvetica;align=center;fontStyle=1" parent="1" vertex="1">
          <mxGeometry x="755" y="723" width="110" height="30" as="geometry" />
        </mxCell>
        <mxCell id="eb6X6qhN3olK0OHb7I_1-35" value="" style="shape=image;verticalLabelPosition=bottom;labelBackgroundColor=#ffffff;verticalAlign=top;aspect=fixed;imageAspect=0;image=data:image/png,iVBORw0KGgoAAAANSUhEUgAAAgAAAAIACAYAAAD0eNT6AAAABHNCSVQICAgIfAhkiAAAAAlwSFlzAAAOkwAADpMBcVr9xwAAABl0RVh0U29mdHdhcmUAd3d3Lmlua3NjYXBlLm9yZ5vuPBoAACAASURBVHic7N13lFTXnS/676mcU1d1poEmNTlLgMgiSCjalmzJki0ntS3L4/Rm3p3xe7PG1/etd++bufZ4HGZsHOSs0VjREkIgkoQEiCBypmnopgs6Vs7hvD+Klhvopivsk6p+n7VqCUFzalPh7N/+7b1/m+N5HnJnb/VqAdQDaLj+3/ph/r8BgFWqNhJCKkoaQDeALgDe64+hv/YC6ApsrPdJ1kJCRsHJNQCwt3qrAdwP4CEAawEYpW0RIYQU7DSA164/PghsrJfnDZdUJFkFAPZW72TkOvyHACwGoJK2RYQQwsw1AK8jFwxsD2ysj0vcHlLhJA8A7K3eaQA+i1yn3yJpYwghRBwRAFsAvAzghcDG+rTE7SEVSLIAwN7qbQDwPQBPAVBL0ghCCJHeOQDfCWysf0nqhpDKInoAYG/12gD8PYBvgub1CSFk0F4A/2dgY/17UjeEVAbRAgB7q1cH4BkA/zcAtyhPSgghyvMagL8PbKw/I3VDSHkTPACwt3o5AJ8E8P8CaBb0yQghpDxkAPwKwHcDG+uvSt0YUp4EDQDsrV4rgD8ht52PEEJIYQIAHgtsrH9L6oaQ8iPYNjt7q7cZwD5Q508IIcWyA9hkb/V+W+qGkPIjSAbA3updBeBFAC7mFyeEkMr0GwBfCWysT0jdEFIemGcA7K3eZwBsBXX+hBDC0ucA7LC3emukbggpD8wyAPZWrwbAj5Bb6U8IIUQYnQAeCmysPyx1Q4iyMQkA7K1eB4BXAKws+WKEEEJGEwXwZGBj/StSN4QoV8kBgL3VqwawGbkDewghhIgjCeBuKhxEisViDcAPQJ0/IYSITQfgZXurd6zUDSHKVFIGwN7q/RKAX7BrDiGEkAIdA7AksLE+InVDiLIUHQDYW73LAGwHoGXaohLoNJzUTSCEyFgmyyOTlboVgngFwCcCG+vlc747kT1NMX/J3uodB+AliNz5cxwwrUGHeeN18NjU8NhUcFvV8FjVcNtU0KopACCE3F4wlkVvMIu+UAa9wQz6Qllc7ktjz9k4/FHFRgcfQ+501X+UuiFEOQrOANhbvRYAewDMFKRFN9GqOSxo1mH5VAOWTzXAbaWTgwkh7GWzwLGOJN45Hce7p+O4MpCWuknFeCywsf4FqRtBlKGYAOBl5KJNQbmtanxxlQX3zDbBpKeRPSFEXG3dKTz3Thjbjscg8qnppYghtx7giNQNIfJXUABgb/XeD+B14ZoDWAwqfGaZBY8tMcOgpY6fECKtM94UfvxWEAcvKqYC7/uBjfVLpW4Ekb+8AwB7q1cF4CiAGUI0RKvm8OgiMz63wgK7SbAzigghpCj7zifw4y1BXLiWkrop+fhYYGP9q1I3gshbIQHA5wH8WohGuCwq/MsTLswYoxPi8oQQwkQ6w+OfXw/gtYNRqZsymjMAZgY21ityIQMRR15DbXur14DcClPmJtdp8ZtnPNT5E0JkT6Pm8J2HHfjWBjtU8k5UtgD4otSNIPKW70f46wAaWT/5ymkGbHzajRo7rewnhCjHY0vM+MFnqmCW9wLl79pbvWapG0Hka9QpAHur1wngIgAHyyf+5CIzvn2fHdxtvj88D0QSWShnAS4hpFzo1Bz0oyxEvtSbxld+2QdfRLb1A/4psLFekOwtUb58AoB/AfC3LJ906RQD/uVJF1TDfLf2X0jgg7YETl1J4Yw3iWiCun9CiPg4DhhTpcHUBi2mNehw7xzjsAuUj15O4tlf9yOVkeW9KgxgQmBjfY/UDSHyc9sAwN7qbQBwAYCB1ROOr9bg11/23LK3PxTP4n+/HsBbR2OsnooQQphxWVT4h4ccWD711tvhpsNRfO8lvwStysuPAxvrvy51I4j8jLYG4JNg2PnbTSp8/8mqWzr/k1eSePxHvdT5E0JkayCcxd/9cQDfe8mP7E3jpvvmmvDkMos0DRvdp68f207IDUYLAB5m9kQc8D8fc6LBdePnMJrg8Z3/9KE3mGH1VIQQIphNh6N4/v3wLb//7DoblkxmNl5iqQoAFQYitxgxALC3et0A7mL1RBvmmjC/WX/L7//rmwFc81PnTwhRjp9tC+Fy341b7FUc8N8etMv1VNKHpG4AkZ/bZQAeAMAkbaTXcvjyGustv3/yShJ/OST7ghqEEHKDZJrHv24K3PL7tQ41HrlTljvvKAAgt7hdAMAs/f/YEjOqbbfGEofbk6yeghBCRHXkchLZYXb/fX6lBRaD7KoENdtbvaKc4EqUY9hP6fXiEWtZPIHDpMJTy28d/QPAmauKqKlNCCG3iCV5tPfeWmnXZlThs8tluSCQsgDkBiOFqesBGFk8wedWWkaslnXWSwEAIUS5TncNn8V8bLEZVRbZZQEoACA3GOkTyiT9r+KA9bNMI/75QFi21bMIIWRU/SPcw/RaDqumMxlDsbTA3uplXtKdKNdIAcA9LC4+Y4wOLvlFwYQQIrgVwxQMkoF1UjeAyMctvfP1+X8Pi4sPVzGLEEIqwbzxOjkuBhwvdQOIfAz36axndXGZRsCEECI4jZrDksm31j6RGLP7O1E+wQKAcR4NmtwaFpcihBBFkmEWlAIA8hHBAoCZTToWlyGEEMWaJb/7IAUA5COCBQAeK509QQipbFUWFTh5VQamAIB8RLAAwG2T3eIXQggRlUbNwWGS1b3QbW/1yi4tQaQx3CR9A4sLi5kBkOFKW0KIjCXTPJJpfvQfZMBjU8MXkVXNk3oAl6RuBJHecAEAowyAeAHAdx6pFe25CCHKt/1YCNuPhUR5LrdVjXPyKntOAQABIOgaABqVE0KIR37TobQOgAAYPgBgcoqFQSevlS+EECIFg1Z290JZnlRExCe70JQQQgghwqMAgBBCCKlAFAAQQgghFYgCAEIIIaQCUQBACCGEVCAKABhTqwCVjBb9qlWQWylSUma0VPWbEEWi4/oYmFQNjHEAHivgMgE8D/RHgN4w0N4PXB4Qry0cgJZaoMEOeCyA0wRkeKA/nGtPWx9wxS9ee0j5MWqB6XW5z3u1BbDogWgy9/nqDQNnuwF/TOpWEkJGQwFACawGYNUkYIzzpj/ggGpr7jG9DjjfC+y+AMQELgbmMAKrpwB1tht/X8MBNbbcY0Y9cOoa8H4bkMwI2x5SfiZ6gBUTAYP2xt836YCxrtxjTiOwrx042iVNGwkh+aEAoEiTq4GVk/JLf07y5DIEb50GugQafU+vA5ZOADR5TOpMqwWanMCmk0BfWJj2kPKzpgWYUj36z2lUuc9isxt44wSQokCTEFmiNQBFmFoLrG0pbO7ToAXWTgF0AoRcsxtywUg+nf8giz73b1DTJ4DkYVZDfp3/UPV2YMl4YdpDCCkd3f4LNLUWWD25uL9r1gNLm9m2Z3ZDbrRVDJcJWDiWbXtI+bEbgcVFduQz6oFGB9v2EELYoACgAKV0/kOvUWsb/efyUUrnP2huY27tACEjWTK+sOzSzZZPZNcWQgg7FADkiUXnP6jBXvo1WHT+QG7LYj2D9pDyVVfi58NpunXRICFEehQA5IFl5w/ktk+VglXnP6i6xPaQ8mU15Lb9laqazp8jRHYoABgF684fANzm4v8u684fyNULIGQ4rDpuCjIJkR8KAG5DiM4fAFLZ4v6eEJ0/QNu0yMhYjP4BmgIgRI4oABiBUJ0/UNzee6E6fwDooVoAhBBScSgAGIaQnT+QK5daCCE7fwDoDQl3bUIIIfJEAcBNhO7801ngUn/+Py905x9PA510NgAhhFQcCgCGELrzB4APLgHBeH4/K3TnD+TOKIgLfEYBIYQQ+aEA4DoxOv/uIHD0Sn4/K0bn394PnOsR9jkIIYTIEwUAEKfzDyeArWcAPo+fFaPz90WBneeEfQ5CCCHyVfEBgFid/6vH8kv9i9X5v3pM+OOJCSGEyFdFHwcsZucfiI3+s2J2/tGksM9D5M+oBTSjnGjJav++Tp2rKng72SwQoc8lIaKp2ACAOn9SaUw6YEZdriqfx5L7f7FMrc09RpNI57bJ9oaBU1cBfx7fHUJIcSoyAKDOn1SaSZ7cqXxyr8in1+SOD250ALPqgX2Xcgtn81k7QwgpTMUFAJM81PmTyrK2BZhcLXUrCqdWAXc1A+OrgDdOUMlqQlirqEWAZh2wYpKwz0GdP5GTmfXK7PyHqrcDi8dL3QpCyk9FBQArJ+dSjEKhzp/Iic1QPh3nzHqgwSF1KwgpLxUTAIxz5R5Coc6fyM3i8YB2lFX+SrJM4O8MIZWmYgKAegFHD9T5Ezmqs0ndAraqzLnthIQQNiomAPBYhLkudf5Ejkw6wKyXuhXseaxSt4CQ8lExAYBbgACAOn8iV9UCBbxSK9d/FyFSqJgAIJVmez3q/ImcJct0y1yiTP9dhEihYgKA3jC7a1HnT+SuN1yexXN6QlK3gJDyQQFAgajzJ0qQyuQ+G+UkkwUGIlK3gpDyUTEBwMU+IFvikIg6f6Ik7f1St4CtywOlf4cJIX9VMQHAQBQ42FH836fOnyjNgcvlc5hOIg28e0HqVhBSXiomAACAQx1AXxFTAdT5EyXKZIFtZ8tjLcDuNjoqmBDWKioAyPLAm6cAbyD/v9PlB14+Sp0/UabuIPD26dwIWokyWWDPReBst9QtIaT8VNxpgKE48MpRYFZDrlSqZoQQKJUB9rQDJ7z5XZc6fyJX53uBrgCwarKw5bBZ6wkB28/mpu8IIexVXAAw6FgXcKE3d9KY25KrFMjzud0CfWHgajD/jpY6f/mJp7IIx7LQajhYjWqoOKlbJK1oEth0Ivc591hz/3WbAc0opXUNGsDCoKJgLDV6Cj+bzXX2veFc598dyn0nCSHCqNgAAMjdFC/05h7Fos5fWl0DKZy5EkdfMI1gLINgNItQLINk+q89B8cBFoMKVqMaNqMaNpMa46p1aGnQw6CrqFkw9IYL2xI7o47NEdrneoD32kq/DiGEnYoOAEpFnb/4sjzQ3p3Aqc44TnXGEYiOXhqO54FQLItQLAsvUgCA/ecjUKs4jK/RYdoYA6Y1GmAz0UkzhJDKQQFAkajzF1cknsXOEyEcvhhDLJllcs1MlseFqwlcuJrA6/sDaHTrsGqGBS2NBibXJ4QQOaMAoAjU+YsnkeLx3ukwdp8K35DWZ40H0NmXxO92DaDJo8P6uTaMr9YJ9nyEECI1CgAKRJ2/ODJZHh+ci2LniRAicTYj/nx19Cbxi619mFyvx/q5NtQ5taI+PyGEiIECgAJQ5y+OSz1J/HmPD76wtEe/nfMmcN7biwUTTbh/oR1adYVvJSCElBUKAPJEnb/weAC7T4ax9UhQNjXfeQAHLkTR2ZfCp5c74bbRV4YQUh4qaw9UkajzF14smcXvdw7grcPy6fyHuuZP4aebe3H8cpkU1yeEVDwazoyCOn/hdfYl8fxuH/wRaVP+o0mkeDy/24dLPUlsmG+DugKqC8kwFiOEMEIBwG1Q5y+8wxejeHlfABk5DvtHsPdsBFf6U/jcaheMZV5IKJ8zMMS8jhLwPHDyShLvn03gykAahy9V6JebyB4FACOgzl94R9pjeHGvX5HlXjv7kvj19n58cU0VDNryDQIKqRp4Oz0hNteRq3SGx8GLSbxzOo53T8fRF5J3NosQgAKAYVHnL7zjl2N4cY9PkZ3/oK7+FJ7bPoAv3F0FvbY8pwMSacAfAxzG4q+R5YG+CLs2yUk0weP/+0sAW4/FEBZ5uyohpSrfoUuRqPMX3snOOF54zyfLxX6F6uxL4rkd/YIWKZJae39pf79jIHesbzn6w3thvLw/Qp0/USQKAIagzl94Z7ri+M/d5dH5D+roTeK3ZRwE7L+UywIUI5kGdl1g2hxZSWfK8z0nlYECgOuo8xde27UE/vSuT1EL/vLV3pPE73cNlOW/LZ0FdpwtbkfA7jYgkmDeJEIIAxQAgDp/MfgjGTy/21fWI6a2awls/jAodTMEcTUIbD0NxFP5/XwmC7x/ETjTLWy7CCHFq/hFgA0O6vyFlsny+NO7A4gmyn+edM+ZCJo8OswaW8KqOZm60At4A8DKScD4qpF/rjsEbD+b+9wTQuSrogMArRpYPVnY56j0zh8AXj8QxJX+PIeOjGjVHFxWNWJJHsGouFuyXt7rR51TC08Zlg2OJoE3TwIuM1BtATwWwGkCgvHclsHBh5J3dxBSKcrvDlWAReMAm4BHv1Pnnyv0s/+88HvA1CoOc8YbMXucER67BjaTGoMb85JpHv2hNDp6k9h7NoKeQFrQtiTTPP74zgC+eq8HOk15bg8ciOQelOInRLkqNgDgAEytFe761PkDV30pvPpBQNDnMOpUWDTFjEWTzbAah1/SotNwqHNqUefU4o7JZpz3JvDe6TAuXBVudVpPII2X9/nx2FKnYM9BCCGlqNgAwG7MTQEIgTr/XN38P77rQ0rARX8tDQZ8fLEDFkP+a1k5AJPr9Zhcr8eJjhhe2RdALCnM2oRjl2IY59Fh0RSzINcnhJBSVGwA4LEKc13q/HO2HA5iICRMql2r5nDvfBsWTS6tY53RZESTW4c/7/Gj7Zow2YDNh4NoaTTAYRYo2iSEkCJV7DZAk5b9Nanzz+nsS+IDgeb9HWY1nt3gKbnzH2QzqfGFNVW4e5YwEWEqzeO1/cJOgxBCSDEqNgDoZ9w/Ueefk+WBVz4ICLIK3GFW4+m1blTb2SauOAB3z7Ji3Rwb0+sOOtsVx/HLFXQcHiFEESo2AOhjdMoZQJ3/UO+fDuOaj/2Wv8HO32kRLpW+coYFa2cLkwl442AQ8VT510EghChHxQYA8XTx9c2Hos7/r3zhDLYdY3/uqxid/6BVM61YI0AQEIplsPVwmZ+JSwhRlIoNAADgvbbS/j51/jf6y4EAUowPxNFpOHxudZUonf+g1TOtmD/BxPy6H5yPoLOPPiyVSsUBTrMKE2q0GF+tgd2kAleeZSKIQlTsLgAAuDwAnL5WXD0A6vxvdPxyDGe74syv+7FFDuZz/vl46A47rvpS8A6wm87gr6+P+NoGD1R0468ITrMKd88wYuU0A+aO00GjvvGNT6R47G9LYMfJOHadiiGaoBKKRDwVHQAAuQNLamyAq4ABX28YeOMEdf6Dsjyw5Qj79PbiKWbMHidNTX2NmsMTy134yZu9TOsEXPOlcPhiVJAMA5EPi0GFzyyz4LElZhi0I0d7ei2HZS0GLGsx4Bv32vDbd8J48YNI2R4tTeSloqcAACCRBv7rQ+DDztHrl2d5YP9l4MXD1PkP9WFblPme/zFuHTbMF2ZVfr6cFjU+tdTJPE2743ioLI8NJjnTG3X4r29W43MrLLft/G/mMKnwjXtt+MPXPGisqvixGRFBxQcAQO7o0r3twEtHgLa+3MEmQ/ljwPneXKBw4HIuECA5mSyPnSfYjv71Wg6fXu6EWgZ58sn1eqyYbmF6TV84g4MX6Ki8crR2lhE/+1IVqizF31rHujV47ituzB6rY9gyQm5FYeYQ3SHgrVO5X+s1uYOCAjEgKe5hcopyqC0KX5jtC7R+rg12k3wq562eacXxy3H0M8xy7DoRxvwJplvmhIlyLWjW478/4oSawbDKZlTh+59x4Qs/60NHn7CHV5HKRRmAESTSubl+6vxHlsny2HmcYUEFAE0eHe6cJK/a+Ro1h4fusDO9ZiCawf7zlAUoF/VONf7n42w6/0FWgwrff9IFk56CRCIMCgBI0Q6cjyIQZRchqVUcPnanQ5ZboybW6TFnPNsFie+cDAl6WBIRz9fW22Ab4TTKUjS5NXhquUAHl5CKRwEAKUo6w2PXCbaj/2XTzKhxyHdWasN8O4w6dl+ZUCyLfWeFOTOBiGdqgxarpwu3W+XxJWZ4bPKZEiPlgwIAUpT956MIxtiN/l0WNVbPlPdIx2JQ4Z55bHcmvHsqTFu+JMByIe8nF5kFzVrptRweWkDbRgl7FACQgvE88P4ZtqP/NbNtilgQN3+CCW4buyxFJJ7F4Yu0FkBsCUbnMqhVwLIWA5Nr3c7yqUyfQ/5fNCIKCgBIwc5640xX/tc4NJIV/CmUigPzswL2naNpALGxyrrMatLBKsDc/82m1GlL2lp4E3mn2ohoKAAgBWM9b71mlk2WC/9GMnOsEbVOLbPrdfvTaO+hylJiSqTYBAB1TvHWrNS7mD2Xk9WFiLJRACBzqQwvq5XiA6E0znsTzK5X79JiWpPwKVSWOID5scFyWQzIIzc6jiSysvrcscZqCoDhqHxUHiuzhYAOVhciyibfJddlLprIomsgha7+FIKxDGKJLGLJLGJJHvHkX389WDKWA6DRcNCpOWg1HLTX/6u7/rCb1HBaNHBa1HBZcr+2GNjfnPadi4Jlt7Bujk2RE5JTGw1orNLhSj+bkfupzjhCsQysRrarvdMZHr5IBr5wBr5wGgPhDPyRDCLxLJJpHqlM7r+Dj3Sav+H91ag5mHQqGPUcjDoVTHoVjLrco8ahQYNLi2qHVnGHG6UZzWCJkf4fZDcxey62pS2JYlEAIIJ4Kouu/lxn3zWQwpX+ZMFz6DyAVJrPHbeb5wBcq+bgvB4MOM1q1Dg0aKzSodapKarMbirD41AbuwVrTR4dJtfrmV1PbOvmWPHr7f1MrpXJ8th/Poq7ZxWXWQhEM+jqz51e2B9Kf9Tph2OZkgK2dIZHMJZBMDbyz2jVHOpcWjRWadFYpUNDlRZum0bWgR3PNIxVHDm/NUREFAAIJMsDZ67EcbAtinNdcUnOD0hlePQE0ugJ3FhKVK3iUOvMBQMN12/c+Yzijl2KMT0Zb9k0ZQ9EJtbpUefU4qqPzZHBB85HsWqmddT3IRjL3BBQdvUnEY6ze18Klcrw6OhNoqM3CSA3leEwqzGv2YT5E0xwWmgPOyFyRAEAYz2BNA5eiOJIe1TSm/LtZLL8Rx3IoKGjuOYaPZprdTBob0w5spyndlrUmNaorLn/4SxpMeOlvX4m1wrGMjjVGcOMpr/uiOB5oGsghQtXE+joTaJrIIUQw/oLQvFHMthxPISdx0NortVj/gQTpjcZoFXAVk9CKgUFAIycvhLHrhNhdPYpczX30FHcnjMRqDigoUqHiXV6TKzVQ63KdUSsLJ4ibPEUscweZ8Rbh4OIMAr29p2NorFKh/NXE7hw/cEy6yI2HkDbtQTariVg2K/C3GYj7p5lhUlP648JkRoFACUKx7N4/UAAxy/fZpJUgbI80NmXRGdfEjuPh5gecqLTcFgwoTwqm2nUHO6YaGZ2JPLF7gT++ZVuJteSm3gqi71nIzh2OYb7F9gVU/uBkHJFYXgJDrVF8a9/6Sm7zn84GYaD0HnNJhgY1tSX2p1TTEUtqqxUkXgWL7znw2929MMfkf90BiHlqnzuwiIaCKXxq239eGmvX9HpWSlwyM2blxObUY0ZCqtlIAfnvAn88PUe7DkTAV/Ri/IJkQYFAAXq6E3iR5t60XaNXTGcSjKxTs+0lr5cLJ5SXkGNWJJpHm8cDOCP7w5IslOGkEpGAUABrvQn8dyOfjq9rQTlOu/b5NHRdrcSnOqM44X3fBQEECIiCgDy1DWQwq+3DzCrIV6JOA6or2JXQ19OsjxQx/B8gEp0/HIML+7x0XQAISIpv1ysAK76Uvj1tn7Eab6/JDwP/HhTLybXG3DHJBOmNBgUV0L2ZoFoBgfOR3HwQhRBBezPl7sj7TGoVRw+vthB5eoIERgFAKPoCeQW/NFiPzZ4HjjbFcfZrjjsJjUWTjJhwQQTbCblpM95HjjnjeOD89JVeSxnh9qi0Kg5PHSHXeqmEFLWKAC4DZ4HXtzjRzRBnb8QAtEMth0NYcexEFoaDbhzkhkT6/WyHfmFYlkcbIvgwPkobV8T2AfnIphSr0dLGVSLJESuKAC4jQMXosxOeyMjy/K5RWCnOuNwWtS4Y5IZ8yeYBDnNsFA8gLarCew/H8GpThrti+n1gwFMqNNT+WBCBEIBwAiiiSy2HA5K3YyK4wtnsOVwENuOhjBtjAF3TjahuUb8EwMjiSw+bIti//ko+kPp0f8CYc4XzmDn8RDWzbFJ3RRCyhIFACPYcjhI8/4SymR5HL8cw/HLMbhtGtwxKXeynFHgCoLtPUnsPxfByc440hka7ktt96kI5jWbyrJ2BCFSo2/VMDr7kjh4gd2598XiAOi0HPRaFTIZHvEUj0wF5qD7gmm8eSiIrUdCmDnWgDsmmTHWo2N2/Xgyiw8vxrD/fOSWo5MrjU7DwaBTIZPlEU9K/3nLZHm8tj+AL66pkrQdhJQjCgCGsfdsBGLc9lQcUG3XotGtRWOVDtV2DQw6DgatCgYdB71GdcuJeak0j3gqi3iKRzyZRTyZ+/9YMov+UAY9gTR6Ayn4Ipmy20+dzvA4fDGGwxdjqHVqsXK6BTPHGos+VdAfyeCdk2F82BZFqoxH+3otB49Ni2qHBtU2DaxGFQw61Uefs48+b1rVLdsy09cDz0Qq91kLxTK40p/Clf4krvSnRFkg23YtgW5/GjUOul0RwhJ9o26SzvA4fSUu2PWNOhUWTDShpdGABpcWOk1hvZdWw0GrUcM6SkG9VIZHXzCNnkD6o6CgJ5BGfygj+aiOhWu+FP7zPR92HA9h9UxrQYGAP5LBrhNhHGqLlsVrMcisV8Fj16DarkW1XYNquwYeuwb2ErZYatQcLGpuyIJM7Q0r8wdCaVzuTeHghQjae4RbMHuyM4Yah1Ww6xNSiSgAuMmFqwlBqv15bBosaTFjXrMJ2gI7/WJo1RzqnNpbqtNlecA7kEJ7dwLt3Ulc6k0qusBRTyCddyBQTh0/B6DaocH4aj3G1+gwrloHq1H8WgouqwYuqwZzm43wDqSw50wERy/FmL++JzriWD2TAgBCWKIA4CbHO9iO/lUc8OAdDiycZJLF/nYVBzRWadFYpcWyablaB1d9KbT3JNHencClnqQi6x7cLhAoh46f44Bahxbja3QYX63HuBodzHrpt0kOVe/S4pElDqyba8Uf4wKXLgAAIABJREFUdvmYbqG95kuhP5RGlZVuWYSwQt+mITJZHqc72QUAOg2Hx5c5MaVBvsVMOC534653aXFXixk8gB/+pQe9QWUuhhsaCCyabMY1f1rRHf+gR5c4MWe8Mg5SshnVeHptFZ7f7cOZLnbfpxMdcayYbmF2PUIqnbyGEBK7eC2JeIrN6NegU+FLa92y7vyHE4ln0afQzn+onkAafzkQwP7zEcV3/gBwuVdZBam0Gg5PrnRhXrOJ2TVPMQzOCSEUANyA5ah33WwrGhV48t2FqwlRdkCQwpy/mpC6CQVTccBDd9rhMLNZm1AOgSkhckIBwBAhRqe5eWwa3DHZzORaYlPaSLNSDITSCMeVtzZDq+aYVfKLJbNlvV2TELFRADBEIMomAJg51qjYY247+ygAkKsrCn1vpo8xQMOonn+I0XeUEEIBwA1CMTYjrMn14teuZyGV4XHNl2JyLbtJLXjZXiWodbCbBursY/PeiE2r4TCumk3lxiCj7yghhHYB3IBVBsDOaM5TbN6BFLPT7uY2G7F6phUnOuI4cCGC9m5ljl6LYdKrMLfZhIUTTXBa1PjeC9eYLETsVPDJlE5G34kgZQAIYYYCgCFYrQFQ6iEyLNP/TW4dNGoOc8YbMWe8EX3BNPafj+LwxSgiCqwzMBoOwPgaPRZOMt2S8q51atDVX/rovbMvCf76cylNmlFkGWT0HSWEUABwA1aj37RC71EsU8xj3DemfN02DTbMt2H9XCtOdsZx4HwUF68pf8eBxaDCvAm50f5IRWqa3DomAUAixaM3kEa1XXlfW1bfiXI734IQKSnvTiIgs14FP4M7lVJXKrPKALisGpgNw8//q1UcZo01YtZYIwZCaRy4EMWhtqiiVrhzACbU6bFwognTxhigHmXF51iPDnvPRpg8d2dfUpEBAKtaDHKrfkiIkinvTiIgs0EFf6T0AECJUwChWJbJvx0Amtz5LXxzWTVYP9eGNbNzWYF3T4bhHZDvQjethsOCCSbcNdUClyX/Oe0mhkcXd/alMH8Cs8uJhtV3YqTAkhBSOPo2DcFqdJFKKy8AYDr/X2CHN5gVWDHdIusRXkuDHitnWAvq/AHAYVYzO6hHqds0WU0BUABACDuUARjCYmB0k+5PYpLCtgKyPLilyV1YANATSOP1AwG0XZN3tbvjl+M45+3Gmtk2LJ5iLqjWQ5NHi5MdpfeC3f4UUmlelBMlWclkeXQNsPl8mfXK3GFDiBxROD0Eq9HF2S55d2TDYbUAUKvhUOvMbwogkeKx+cMgfrypV/ad/6BEisemgwH8eFNPQVsbCw2KRpLlgS4ZT5MM51JPktkR25QBIIQdygAMYWF0c7nSn0Q4nmV2PTFc87PpVBqrtHmNjI9eimHzoaBit3V1+9P4xdt9mD3OiHvn22AbJcXPch3ANX+KWWEdMZy5wuYQH62Gg05BmQ9C5I4CgCFYVW3jeeCcN870JDQhRRNZRBitwh9tpHvNn8LrBwJlUxjo6KUYTl+J4+5ZVixpMY+4I6DBpYVaxTFZDd8bUNahOGcYZcRYVlUkhNAUwA2aPDpwjAYYSpoG6GHYody8/39QPJXFGwcD+Mmm3rLp/Acl07mpjB+90YsLI5zap1FzqMtzamQ0LN8vofUF0+gPsWnvWIZZFEIIZQBuoNdyqHFomdTDP+9NIMtDEYcC9QTYzSnfnOrmARy5GMXmD4OK2utfjN5gGr/e3o8ZTUbct8AGu+nGaYGxHi2TxZYs3y+hnelik/4HgLEKmvYgRAkoA3ATVqOMeCqLSz3KyAKwGlG6LOob1j1c9aXw8y19+PMef9l3/kOd6IjhB3/pwa4T4RtS/qzWAYRiWcSSyng9z1xh9x2gDAAhbFEAcBOWN5mDF6LMriUkVgHAYPo/leHxxsEAfvpmLzp6yyvdn69UmsfWI0H88PVeXOrJvQYsFwIqYRqgL5hmFgRXWTWKWlRLiBLQN+omk+r0zNL2xy7F0BeU/426x8+mjU2eXM37n2zqxZ4zEWZnKxRLr+WYrekoVn8ot1tgy+EgLAbVqLsF8qWEAGDH8RCzz8CUBmXV1SBECWgNwE3MBhWaa/UjLuYqRJYHdp4I4dElTgYtE0Y8lWW2Fe9KfwqbDgYk7/gtBhVWz7Ji4UQT+kMZbD0SxKlOdnPRheJ54J2TYZz1JmAzqZm83j2Mtm0KpS+YxrFLMWbXmzXWyOxahJAcCgCGMXuckUkAAABH22NYPdM64klxUmO5pezwRWmnPPRaDsumWbB0quWj/eLVdg2eXOFCR28SWw4H0d4j3ZTENV+KWUaiR+aZpZ0n2I3+HWY1xtD8PyHM0RTAMPI54S1fWR7YcTzM5FpCUEIqeTRqFYclLWb87cM1WD3TOmyxmCaPDk+vc+OpVS5J95OzOs6W1bSNEPpDaRxtZzf6nznWCAVspiFEceQ5LJWYUafCxDo9zjLawnS0PYrVMy2yzAJ0y7gjGQ3HAXPGG7Fmlg3OPA/omdJgwOR6A460R/H20RCzExDFFohmkEjx0Gvl1zXuOB5mOg1E6X9ChEEZgBHMn8Cuil+WB3bKNAughEWKw6l3afHMPW48usSZd+c/iOOAuc0mfPvBaqyeaYVGLb9ONB99jArssJQb/bObCqp1aNFQRRUACRECBQAjmN5kQLWd3Yj9SHuUWUU0lvxRZY2A9VoODyy046v3etBYVdq8sEbNYc1sK75xvwcT65S3ylyO2YudjEf/K2da2F2MEHIDCgBGwAFYNdPK7HpZHth2NMTseqwEZNiJjGT2OCO+/WB1wUfxjqbKqsEX7q7CY8uczLbpiSEos+CtJ5DGEYajf49Ng5lNlP4nRCgUANzGzLFGpvP2Ry/FcM4rn+qAqTSviIpybpsGX1xThU8tdcIqYAc9a6wR33qwGne1sA0whCKnDADPAy/v87Md/c+wSl7HgZByRgHAbag4YNUMtinIV/b5mZ2NXqqAzEaQN9OoOay9nqKfUCtOil6v5XDfAjue3eBhWrlPCHJ6//acjTCt+uiyajB7PI3+CRESBQCjmNNsKniR2e0Eohls/jDA7HqlkNMI8mZTGgz45gPVWDXTymxLZiHqnFp8eb0bH1vkgEkvz6+JXKZvBkJpbD0SZHrNVTMsisjCEKJk8ryzyYiKy6UiWTpwPoq2a9JPBchtDhkA7CY1nljuwlOrXHAxDLyKwQFYONGEbz1YjfkTTLLbiy6HDAAP4KV9fqTS7LJaDrMac2j0T4jgKADIw7xm4y1Hu5aCR26+NMnwplkMOe0AUHHAsmkWfOvBakxvMkjdnBuY9Sp8YrEDX17vRq1TPlvSgtEMs8JCxfrgXATt3WyrK66YbpEk60NIpaEAIA9qFYcV09muBfCFM9hymG3atFBySSGPq9bhb+6rxr3zbMNW8ZOLJo8OX9vgwYb5NlkU4MnyQCgu3Xvoj2Tw1odsP8M2k5ppDQ5CyMgoAMjTgokm5ivQ952NfHRUrBSkTiHrtRw+vsiBp9e5UeOQX5XE4ag4YOlUC771QDVaGqXPVEgZxAmRxVo+zaLYwkyEKA0FAHnSqDksn2Zmek0ewEt7/UhlpMnjDoSlK0zUXKPHN+6vxoKJ8ptbz4fNpMZnV7rw8UUOSbMWgag02zgPXogyOzBrkMWgwsJJNPonRCwUABTgjklmpmsBgFzpVCkKBJ3tiqM/KP7oUaPmsGG+DV9cWwWHWTlFd0ayYKIJX7+/GuOqpdkyuPN4SPS1JMFoBm8eYj99tWqmFVoa/RMiGgoACqDVcPjYIgfz6753Oszs4KHR8AC2Hwvhd7sGIHbeod6lxbP3erB0qkWRo/6RuCxqPL3WjfVzbaIvXrvqS+HfN/eiV6QzHTJZHi+850M8xTbz0OTRYdFkthk2QsjtUQBQoMn1esxrZpum5Hnghff8gh/ME09m8budA9h+LCTq6vHcVkoLnrlHOXP9heK43Or1r94r/r+xJ5DGv2/uxckO4YPITQeDaGe8bkWj5vCJxQ6q+keIyCgAKML9C2zMa8bHU1n8fteAYFUCr/lS+MnmPtEyDYNcVg1a17mxbo74o2Mp1DmHZDlE/OcmUjz++O4AthwOMi3HO9TBC1HsOxdhft01s6zw2MozMCREzigAKIJBp8LDd9qZX7c3mMYL7/uYp+aPtMfwH1v6MCDyaYR3TDLj6/fJv6Qua4PrHL60xi36Ood3Tobx3PZ+RBJsU/QdvUm8tp99BcvGKi2WTqMT/wiRAgUARWppNAhSrezMlTi2HWGzKDCT5fH6gQD+630f00pto7EaVXhqlQsP32mX9b5+oY2v0eEb91cznzIaTdu1BH76Zi+u9KeYXC8Yy+CP7/qQYZxaUKs4fGKxk0r+EiIRCgBK8MBCOywG9i/hrhMhnOiIlXSNcDyLX23rx96z7FO2tzOjyYhv3F+NKQ3S75GXA72WwyNLHHhihQtmEc8U8Ecy2Li1D4faSjueN53h8cd3fAjF2O8YuXuWtWzXhBCiBBQAlMCoU+GhO9nvCuABvLjHj2v+4kZw/aE0fralT9QiQwatCo8uceLTy52yPTxHStPHGPCNB6rRImJglM7weGmvH9uPFZ9Rem1/AJ197D9H9S4tljOurkkIKQzdqUs0fYwBs8aynwpIpnn8ftcAogXO5Xb1p/Azkef7J9Tq8Y0HPJjbTAe43I7FoMJnV7nwMZGLB20/FsIr+/wFLw7cdzZScgZhOGoVh0cWOyj1T4jEKABg4IE77DALMBXgC2fw/G5f3jfuc94EfvF2HyJx8arDNdfq8YU1VcwLJJWzhRNN+Oq9HlGf88CFKP7wzkDeVSfbe5J446Awx1avmmmR1aFKhFQqCgAYMOtVeHAh+10BQG5B1+ZDo9+ID1+M4nc7+0WvCje+WldWRX3EUm3XiL7v/cyVOH61rX/UrJI/ksGf3h0QZDthnVPL/GAtQkhxKABgZOZYI2YIdIzt+2ci2H9+5MV875wM4897Ck/xslDJq/xLJcVr19GbxM+29ME/wiFCg/UohMgiqTjgE4sdFVEPghAloACAoYfudAi27/u1/QEcab9xZwDPA68fCEh6rLCWAoCiSRU89QXT+I+3+nDVd+Mi02Sax292DNzy+6ysn2tDvYtS/4TIBQUADJn1KnxmpUuQTpHngRf3+HCqM1fJL53h8fxun+jb/G5GGYDiaTXSff1Csdw2wYvduRP90pncotOOXmF2jswZb8QyKvhDiKxQAMBYnVOLR5c4BJkXz/LA87t9ONkRx3M7+kuuFcACBQDFk/q1S6R4PLd9AEcuxfCnd31ou8b2eN9BjVVafFyAQ7QIIaWhKhwCmNFkxKqZaew4zv6Y30yWx592D4h6mM/t6CQcxSqd1AEAkPs8/dd7PsGubzWq8eQKFzR0zC8hskN3b4HcPduKaWOEWRQol84fAJ3fXgI5BABC0qg5PLnCCRttESVEligAEAgH4JN3OVHrKO9FT+XeiQmp3F+7h++0Y4y7sg6CIkRJKAAQkE7D4TMrXWVdGpd2ARSvnAOApVMtoh+CRAgpTPn2TDLhtKjx6eXle+JZOXdiQivX125SnR73zLNJ3QwysiZ7q3e+vdVbJXVDiLRoEaAImmv0uH+hHX8R4Dx1qVEGoHhSbgMUSpVVg8eXlW/AWybWXn/A3uoNA7h0/dE+5NeXAFwKbKwfkKB9RCQUAIhk0WQzrvlS2H+e/eEqUirXUawYyu21M2hzhx0ZdOUX2JQxC4AZ1x+3sLd6g7gpKMCQQCGwsd4vfBOJUCgAENEDC+3oCaRFPaZXSBxHuwBKUU4BAMcBn1rqgMdGt5QyYwMw6/rjFvZWbwAjZA+QCxDKL+1ZRujbKiK1isMTy1346ebeEWuxKwl1/qUppwBg/RwbpjQIs+2VyJodwOzrj1v/sNXrw+0zCOyLpZC8UQAgMrNBhadWVeEXb/eNeiqbUGodWlzzl17vvZw6MCmwev3GVuvQ2ZuU5DAoALhjkhnL6YQ/wcmp/kcBnNcfc4f7Q3urdwC3zyCEhW9i5aIAQAI1Dg2+cHcVfrmtH/GkuEHAhFo9Nsy34cebeku+Fi0ALA2r189pVmPldBf+tNuHlMjHQc9rNuGhO4U5CpvcKBiTZsAgMNf1x7zh/tDe6u3D7TMI5bWoSmQUAEik3qXF51e78Ovt/UikxLlpzxprxKN3OdAfYjP9QBmA0rB6/TJZYEqDAV+8uwq/3TmAmEhB5axxRnxisTDnXpBbBaJlGQCMxn39sWC4P7S3entx+wyC9AemyBgFABIa49bhY3c68MJ7PggdAjTX6PCppU5wHJBllCumNQClYfX6Db6fTR4dnlrlwi/e7kdG4PkAt02DT96V+zwRcZRpBqBUnuuPhcP9ob3V241cMNAFIAkgCuD09YcfQOD6w1+J6xEoAJCQL5zB5g+Dgnf+AHCxO4mdJ0JYPdMKjtFdO033o5KkM2ze+cH30x/J4KW9fsE7fwDoC6ax/VgIa2dbBX8ukmPUU7RVhJrrj1HZW71+/DU4OA3g1PX/XgpsrFfmCoxRUAAgkUA0g19u60MgKt5ugG1HQwjHsljSYmZyvaTI883lhtXrp1YB3f40ntvRj6CIn6edx0PQqIFVMygIEIPDSPUVBOYAsPj6Y6h+e6t3B4BtALYFNtZfFL1lAqEAQAKhWBa/fLsfvrD4WwH3nYvAx2gLYopSACVhtWAvnuSxcWufaHP/Q719JAStmsPSqbQLQGg2EwUAEqkC8Oj1B+yt3nbkgoHXAGwJbKxPS9i2ktAnSmSpDI/f7exHf0i6z8zZrjiT61AGoDSsXr/zV+OSdP6D3jwUxLHLtNZKaLTmRjbGA3gawBsAOu2t3n+xt3qHraQodxQAiOzlvX50DZS+B18OxN5yVm5YBQBS7f8f6qU9fnjL5HNNSAFqAfwtgOP2Vu9Be6v3WXurVzHpMAoARPTOyTCOXiqfkVKWZ7eQrRKVUwYlleHx+10DCMdpWohUrPkAfgLgkr3V+3/ZW72yPxKTAgCRnOmKY+uRoNTNYC5FAUDRyikAAHILW//wzoAouxAIkbEqAP8PgMv2Vu8/2Vu9DqkbNBIKAETQE0jn9vqX4X2x3DoxMZVj8NTRm8SrH9D5L4Qgt6vgu8gFAv9ob/XqJW7PLSgAEFgsmcXvdw2IVu1PbLQOoHjJMt1FcagtivfPRKRuBiFyYQPwPQDH7K3eu6VuzFAUAAgoywPP7/ZJuuJfaJQBKF45v3abDwVw/mpC6maQYTQ4NXBZ6NYvgckAttlbvX+wt3rzKk4kNKoDIKDNhwK4UOY3wXLuxISWLNOsEPDX4PfZe92ostJtRk6+sMqC++eZkEjxuOrPwOvL4Ko/jau+DK76M7jqy8DrS8MXKc8MlQw8AeA+e6v3bwMb638lZUPomymQSkmD0hRA8co9eIons/jdzgE8c68bBi2NOOVGr+UwzqPBOI8GwK3T0/EUj2tDAgSvLxccXPWlcdWfoQChNA4Av7S3etcCeFqqcwgoABCA0Auh1s6x4cO2qCymFsq9ExOSXF67lTMsOHMlgWt+9vv4e4Np/OduH55aVUUHBymMYZQA4R+e92HHyfLZ1iyRTwGYb2/1fjKwsf6w2E9OYTljgWgGf3xXuK1QG+bbsGqGBV9Z70ZjlVaQ5yiEXDoxJZL6tVNxwMcXObBujg1fWFMFt02Y8cA5bwJvHS6/LbCVTk29BysTAey1t3qfEfuJ6S1kKJXh8YddAwgJdGzn3bOsH9VcNxtU+NJaNybXS7uzpFxXsotByukTrYbDkytdWDDRBACwGFT44poqOMxqQZ5v96kwDl+k0SK51edXWvB3D9jxxFILVk03oKVeC3vlnXugB/Dv9lbvb+ytXtEy8zQFwNCWw0HByvwunWrB3bNuPHVNp+Hw2VVVeHmfHx+2RQV53tGU4152sUiVATDpVXhqlQtj3Lobft9uUuOLa6qwcWufIEHsq/v9GOvRwkWLAskQUxt0WDHVcMvvx5L8LQsUvb6//joQLcvBx1MAXNenBNgc2nIb9E1k5FJPEnsFWvQ3fYwB984fvqqkigMeWeyAzajCrhNhQZ7/dqROYyuZFNkTp0WNz68eOd1fZdXgyRUu/OLtfuZlnlNpHi/t8+NLa92g5QBkNEYdhwk1GkyoGf6zGk3wf12c6M/g97vD6AmIf8KqAB4AsMXe6n0wsLFe0KpaFZdnEUIqw+OlvX4I0RXWODR49C7nqDfMdXNseHChXfSFVt1+6RciKlE0kRX9EJ86pxZfWe8eda5/jFuHh+6wC9KG9u4kPjhX/rtjiPBMeg4TarRY1mLAJxeZ0egSZvpKIssB7BK6XgAFAAy8fSQkyIp8o06Fz6xwQafJr1dfNMWMx5e5oBHx2NDjl2N4bX+AMgEFaO9O4sebekV9zgm1erSuc8NqzO8mOX+CCUtazIK05a0Pg/BHymKkRsrQ0hYDnGZZdI1zAOy2t3qrhXoCWfwrlayjN4n3z7BPvas44PFlzoLnS2c0GfD5u6tg0In31n5wLoIfb+pFZ19StOdUonSGx5uHgvjltj4EouJ1gLPGGfG51S7otYUFhhvm29Fcw36RaTLN4+V9fubXJYSFz6+w4M2/r8XGp914cpkFTW5JZ8onAdhsb/VaR/3JIlAAUIJ0hseLe/2CHPJzzzwbJtYVd/MdX63Dl9e54bSIlxLrD6Xx8y19ePtoiE6DG8ZVXwo/3dyL906HRT0Uavl0Cz611Am1qvCskIoDHl/uFORzdOFqAgcuSLNwlZDRqDhg9lgd/ma9DX/+ZjVe+EY1nl1nw8wmHYr4KpVqHoCX7a1e5vu+KQAowbZjIfQF2af+54w3frTdr1g1Dg2+tsEj6jbBLA/sPB7Cf7zVh54ArQ0AAJ4H3jkZxr9v7hN1vYROw+HxZU7cM9dW0oI7s16FJ1e4oM1zGqoQbx4KiJoJIaRY4zwafHa5Bb9sdeOV/6MG988ziR0IrAHwW3url+mzUgBQpCv9Sbx3in3qv8GlxccXsTk+2qhT4alVVVg10yrqqmvvQAo/ebMX75+JCLIwUikGwhls3NqHLYeDomZF3DYNvnqvBzPHGplcr86pxSOL2R9pnkjxdHQwUZxahxr/+HEHfv+sB4sniVqH5XEA32d5QQoAipDO8Hhxj5/5Km6LQYUnV7JdxMdxwNrZVnxmpUvUeuzpDI9NBwP41dv9Fbng68CFKH70Rg8u94q7LmLaGAOevdeDajvbecuZY41YOaO0rNRwznbFcfgiTQUQ5ZlYq8UPn6rCTz5fhSl1olVl/Za91fs4q4tRAFCEHcdDzFPcahWHTy93wW4SZt6+pdGAZze4UeMQd0HLxe4EfvRGb8VUgQvHs/jdrgG8ss8v6s4IjsttBX1iReGL/fK1drYNUxpuLdhSqjcOBgWrnkmI0BZO0OO3X/Xgvz/qRK1DlHVXG+2t3sksLkQBQIG6BlJ49yT71P8DC20YV60b/QdLUGXV4Jl7PJg9jk1qOF/xVBZ/3uPDn94dQDRRvjf6U51x/NsbPThzRfACXjcw6VX4/OoqrJxhEXSqh+OATy11MD8zIJbM4rX9tCuAKBfHAffMNuLP36zGE0vZZ8puYgHwX/ZWb8nROAUABcjywEsCpP5njzPijknC7Lm+mU7D4VNLnbh/gTCFXm7nREeugzzbJW4HKbREKlcI6g/vDCASFzfAsZvU+NoGT9E7Rgpl0KrwxHJXUbsKbudUZxzHL1dGloiUL52Gw9fvseG7jzjzrt9SpNkAfljqRSgAKMDR9hjzI1MtBhUeWCh+Z7ykxQy7QAe/3E4olsVvdw7g1Q/ETZELpb0niR9t6sEhic5iWDfHKtgBPiOpcWiwaib7Uc7WIyHRqyMSIoR75xjxsy9VwW0V9Lv5ZXur99FSLkABQJ54Hth5IsT8ug8stMOkl+Zt8Ah0/Gs+9p+P4kebenGpR5nFg9IZHps/DOKXb/fBF5ZukaNUB+usmG5BnZPtwqf+UJqyAKRsTG/U4TfPuDG1QdAFgj+yt3qLHkFSAJCn4x0x5nv+ZzQZmG3VKoZQCw7zNRBK4xdb+/DqB37Ek8pZG3DhagL/9kYvdp8St6jPcKR6D9UqDp9Y7GC+F3rn8ZDkrykhrHhsavz8S26smyXYfb4WwPeK/csUAOSBR+7GxJJRp8KDd7DfW10IqQMAIPfa7j8fxQ/+0oOjl+Q9+gvHs3jhPR9+vb1fkLMfCsVxgE3C97DepcWK6WwrlPYE0jjRIe/PASGF0Gs5/I9POvHM2uFPdGXgWXurd3Yxf5ECgDyc6ogzr+L2wEI7LAZpX34p1gCMZGjnOiCDznWoXJASkV2QYjWopShLeoPVsyzMaw7sPBGu6AJSpDx9boUFT60QZIeAGsBPi6kSSAFAHljP/bc0GDBnvHSp/0FyyADc7MLVBH74Ri92npDHmQLX/Cn8fEsfXv0gILtpCjkEcGoVh0eWsJ0KuOZL4XRnee0UIQQAnlljw/Kp7GtpALgLwGcL/UsUAIziTFcc3gF2K/8NWhUevlP8Vf/DkWMAAOQW2L19JIQfS7hIMJXOLfL7yaZedIhczS9fcnn/Gqt0uKvEsytuxnrKjRA54Djge486MaFGkIWB37W3egtKx1EAMIodx9gW/blvgU3Seduh7PI483pEPYHcIsGX9/kRE3H0fbYrjn99vQe7T4VlvS3NbpLP+7d2tpVpgaCugRTOeRPMrkeIXBh1HL7/pAtO9vffcQA+XchfkM8dRIbOX03gSj+70d+EWj3mTzAxu16pDFqVYGVjWeEBHLyQWyR4+GJU0LnhQDSDP707gN/uHFDE+QVymAIYpFFzzA6xGrSDsgCyxuqESC2js0+YXUfYAj4AgDqnGv/rcbbnvlz394WsBaAA4DZYpyHXzxVsFWjR5JJGHk0knsWf9/jxH5v7mKfkk2ke246G8IPXenBt+M92AAAgAElEQVSiQzlzz3J778ZV65ieFdDRm0TbNcoCyNWEajYZn0m1bK4zsbb0tLpKBYxzi1NbY844Hf7bg8yng6cC+Fi+P0wBwAgudieYzj9PrtejsUq0E6PyJqdRZD6u9Cfxsy19+M/3fCWP0nkAH7ZF8YPXerDjeAipjIzz/cMQuwJgPu6exXZbIGUB5GtKfen3M7dVDY+Nzed4GoOCO+M9GlGzog/ON+Hhhcyzwt/J9wcpABjBgfNsS7uyvjGy4paoklypjl2K4Qd/6cHbR0JFlRRu70nip2/24sW9fgRj8k/3D6dKhu9dY5WWaRagvTvJvAAXYaOFQQDAskre1IbSD1ObUi/sgWzDeWatDWY906Bjvr3VuzKfH6QAYBipDI/TDE90m1Snxxi3+B+sfLDewy2mdIbHzhMhfP+1HnzYFs2rgtxAODfP/4utfUx3d4jNYlBJVkJ6NHfPYrsj4BiVB5Ylq1GFDXOLH71yHPDYEnaHoDW41FjWUnzwqVIBjy4S51C2oRwmFT6zjHl9gKfy+SF53kEkduZKnOlBNXId/QNAtV1+0xKFCsUyeHGvHz/d3Iv2EaZtEqnctr4fvq6sef6RyPl9a6zSYXI9u9MJj8mo+BK50bfvsxWdwv/EHWYsaGZ7iuU/POwoenfMZ5dZmEwjFOPxuyysDw56xN7qHTU6owBgGCwPJJlQq0eTR56jf4BtBmCSSEfSjsQ7kMIvtvbhT+/6MHD9gJ4sn6vi979f68buU2GkJZzntxrVqHexucHIPXPDMujtCaSZV+IkbFgNKnzn4cILQTVWafC19ewXRVdZVPi7BwpfWDepVosvrZZuoGbQcnia7fNbkMdiQAoAbpJM8zjbxW7lsZxH/wBgNqhgZpRKnjHWiCdWuGCWuMTxiY4YfvBaN36+pQ//8mo3Xv0ggEhc2ip+M8ca8c0HPMyqCco9ABjjZpwFoGkA2VoyWY//+KIbja78PpPrZhnx3FfcMOqEWWy3dqYRP/pcFWrs+Y2oH1pgws+fdjPbRlisB+ebMM7D9Hs96jQABQA3OX81wWw1eHONHuOq5Tv6H8SqM+nsS2L6GAO+cX81po0RpNxl3rI8cLk3iYDE+/mNOhU+tdSJx5c5kc3io8xEqaod8g4AALbBL8s1OYS9OeN0+OPfePCpxWY4hknBcxwwzqPB//q0C//jk07YjMJ2PXdO1OP5r1fj4YUmWId5LhWX2zb4b09V4TsPO1gvwiuKSgXWBwbdbW/11t/uB+R/FxHZZYZb/xZNEX9BSTE8du2Ic+eF6OzLXcNiUOHJFS6c7IzjjQMBBKLKXGVfqnnNJtw7z/ZRRmTw9WHBY5PvGoBBY9w6NLi06GKw2LLbn0I8lYVBW7ljFh2ju7VOoEI3Bi2Hb99nx7fvs+OqL4NTXUn0BDOYXKtFS4NO9E7WrOfwDw858A8PAVf60zjdlcJAJIvJdVq01GsFy0CUYuU0A2Y26XC8g8m9QgXgYQD/PtIPUABwk8uMisyoVZzkc+L5YpUB6PGnb7hJTx9jwKQ6PbYdDWHPGXmX1WWp2q7BQ3c6MP6m7E8HowDAqFMNO6qRo5ZGA5MAgOeBjt4U02kFpWlmVD+eRcGc0dQ51ahzSn/g2aDGKg0aq5TR3X12mQV/98cBVpdbhdsEAMq4i4gkleGZbQ0bX6OTfZndQawCAB5AZ9+Nr59Ow2HDfBu+tsEj68WQLGg1HNbPteFv7vPc0vkD7IJLuc//D8WyJgCr10+pWOy7N+o41vPMhLE7J+phYNd3rLxdaWAKAIa40p9idgRtC8Mbn9BYziePVKa31qnFl9e78bFFDhh15fexa2kw4Jv3V2PFdAvUwyyJzvK5zxcLSgoAGqq0sDBaFMpyek6JJtRoSq4dP6Vey/ToZsKeXsth0SRmmS43gBkj/WH53YlL4GV48E9Lo3ICAJtRzWxu9Xbz3ByAhRNN+PZD1Zg3wYRyuA/ZTWo8ucKFz65ywWkZedXxNV8KKUa1Jaod8p//H8QBmMwoGO4aqOwAQKvm8Ik7Sisb+9gS5gVniABWTGXaf6wa6Q8oABgizGirWLVdA9dtOgM5qmGUBejsS416Yp9Zr8Ijix14ep2b2fOKTcUBy6ZZ8K0H89vxwPIAoxoFZQAAoKWBzWgmkeIVd14Da8+us2FskYfVrJtlxKppyhmYVLKlLQao2fXOFADkg1UAwHLeUyysDiqKJbPoDeRXtGVctQ5f2+DB+rk2UY7gZGWsR4ev3efBvfNsea+oZrUAkAO790osk+oMw06LFCMck7aeg9T0Wg7/9Iij4D3rbqsaf3s/85PniEBsRhXmjmM2DXDnSH9AAcAQkQSbm0tzjfIWu7E8q6CQ7W5qFYcV0y341gPVsp82MelV+PgiB1rXu1FbYBqeVQagyqaBQWFrKPRaDrVONlmLSKIyt5QONb1Rh+eecee9mn/FVAN+/6yn6BK5RBor2GVr6uyt3mGjP/pEDMGqWpxOgXuVWQYAhXZ2PID+UBp6Dccy7cWcQadCLJkt+HMSjmeZFQBqkumhUqPRa9i8sayydEo3qVaL3zzjxudWWFBlGb7wTpNbg+8+4sQ/P+GCa5ifIfLGeB3AlOF+U1mTiQJjlQHQKmv6HwDgtKhhMaiY3GDzTXeHYhkcaovhYFsUAyH513ofCKWx+cMgth4JYWqjHgsmmjGpTg9ulGwsy/n/MW5lpf8HaRh9Jyp9CmAorZrDM2tteGatDX2hDM56U7jqz6C5Wosp9VpZVLcjxauxqzG5TotzV5nsHmoBsP/m36QAYIhInM0oTaPQfTaNbh3OMCi52hNII5Hih62DkOWBc944Dl6I4syVuCKLA2WyPE50xHGiIw6HWY35E0yYP8EEh3n4Xo7V/D/ANlMjJlZ11ikDMDy3VQ33FAWOPMhtjanSsAwAbkEBwBBZRvcWJS1oG2qMW8skAOD53DqAiUMqIfrCGRxsi+JQWxTBMioN7I9ksP1YCDuOhzCpLpcVmNqov2HRG6sMgFbNodap1AwAm+9ElldgxEhIkdxWZlM3FACMxmpSM0lFs7rZiW1MFcN1AH1JjK/R4VRnHAcuRNF2NTHq9kAl43ngnDeBc94ELAYV5jabsHCiCU6LGl2MCgDVu5RbxIXVd8JuolEuqRxuK7PPe/Nwv0kBwBB2owoDodKvE01kFXmjanRrwQFMOupDbTHsPRNhtq5CScLxLHafCmP3qTDqnVpme9eVmv4HcttDWbAp8HtFSLEYZgCGPWaQloYOYWV0cznnTTC5jtgMWhU8jIrM+MLpiuz8b+b1sRn9A8pdAJjJ8mi7xuY7ocTAmpBiuW3MPu/DloCkAGAIm5HNi32qU7lnlzcqeJRZ7pSaAWi7lkQixSYLQgEAqSQMpwCsw/0mBQBDsCqU0dmXxMkOZQYBSt1nXu6sRvWIuwzkjOeBLYeDTK6l13KKOWGTEBY87KYADPZW7y03EAoAhnBa2C2JePPDgCK3LE2qq9zz1uVsokLfl92nwrjKaBrExfD7SYgSWI2qvMuN53O5m3+DAoAhJtbpme1X9oUz+PmWPvgYVYATi9OizJHmzVRcLmVuL4N/C6DM8tI7T4TwFqPRPwBMlXmpaEKEUMUuC3DLOgAKqYfQaThMbtAzS9/3h9L4+dY+PL7MibEe+d7AUxke7d1JnO2K45w3AX9EWUHLUGoVh3nNRiyfbkGVVYMsDxy7FMOuEyH05HlIkRy9tj+A45djmNJgwJR6PVxW+X51k2keWw4HsfdshOl1pzdRAEAqj47dtvJbbhryvYtIZEaTken8fTCaywRMaTBg7Wwr6l3SruTO8rnApNufQrc/jc6+JC52J5FW+DGrWjWHBRNNWD7dcsNCMRUHzBlvxOzxufd114kQvAPsVuaLJZ3hP6oz8DqAKqsGE+v0qHVoUOPQosahgVHiQ4LSGR77zkXwzskws3M1BrksatQptAgSIXJFAcBNWhoM0Kg55h3i2a44znXFMalej6mNBkxpMAiaaud5YCCcRrc/je5ACj3+3K97g2lklFh/dwR6LYc7J5uxdKoFFsPIHSAHYEaTATOaDDjbFcfOE2GmNfrF1h9Ko/+molVWoxo1Dg2q7deDguv/FXLhXCZ7PXvkTeD4pRiCMWGyR9ObjIJcl5BKRgHATfRaDpPq9DjNoCTuzXj8tVocEECNQ4OJtXq4bRpUWXMPh1k96uEyQyXTPCLxLHoCqY86+25/Gr2BNLMCNHJk1KmwpMWMJS3mgke+UxpyAdjF7gR2Hg8z26MutVAsg1As8/+3d+dRVlV3vsC/585jzRRwAAWKeXAAQZBRUJM2GmxioomaaEeJU6/u50te93tJekU7naz00/iS1zF6HWhdmqhxoJ14EVRAmUQBmeehgKKKGk/deTj3vD8KFLGqqFt3n+He+/2sVQu5VbXPLrl1zvfss/dv48DJL/885b4zwaBrpGBghRNVATs8LltOlQWTae3z4NEaVnGiNYUDjUlhS/x6M4nD/0TCMQB0Y/pony4B4FxNp+/Kz2a3SSjz2eCwSXDYJdhtEhz2rlKqalZDIqUhkc4ikdKQTGcLcjOdfFQHHbh8jA/TRvnzvrMdOdCNkQPdONaSwto9UeysTxTV6MgZSkyFElO7LVDldEjwOG3wOCV4XDa4nRKyWSCT1aCqGjJZDRkVSKRz3wZZlEGVTtanINIBA0A3xg7xYNwQD/acMH4tv5rVCm7lgN4kCRgrezBjrB+jZTdED2gPq3Hh5tkuRBJZbDoQxcf7YlCKaMOi3qQzGtIZFeG42T3pngRg0fRy4f/mRMQA0KPrp5XjQGOy4CfHFTKf24bLRvlw+Wg/KgP6L+cLeGy4clIQ8yYGsed4Ahv2RYt+EyOrm1Lns/QKGqJCxgDQg8qAHfMnBbDyMwG7A1FOhla7MHOsD5Mv9Jqys6JNAiYM82DCMA9awxls2BfD5oMxYRvaUN94XTZ8fUq3e5gQkQAMAL2YOyGAzYfiQrYIpt457BIuGu7FzDF+DKm2znKv6qAD35hahmsuCWLbkTg27I3iRAEuIyxEX59SBr+btcqI9MIA0AuHXcLiGeV4ZmVryU22M0plwI4ZY/yYWueDz8Ine6ddwtQ6H6bW+XC8NYX1e2PYfjTOR0Q6GTXYjctG+czuBlFRYwA4j5ED3Vg8swKvrOswuytFw+mQMG6IB1NGejFG9uS07NEKhla78O0rXPjG1DJsORTD1iNxnGjlqIAogyuduGVuFSf+EemMAaAPpoz0oTOWxbtbxdU1L0U2CVg8swKTLvCK3ODCND63DbPGBzBrfACt4QyWbVSKpqaAWSr8dvxgQRV3/SMygHXHXC1m/qQAZo//yl4KlIOsBnicQne3sozqoAOxJCcJ5qPMZ8ftC6pR5i2ODZyIrI4BIAfXTi3DDZdXwJ5L+TT6km1HLbrgPE8tnRlh296WomE1Ltz3NzWoLeegJJFR+NuWo+mjfagtd+CFNW2mVUYrZDvrE4gksr3W7S9EG/aJ3fmulEyp8+GG6eWmLPkkKmXFdRY2yPBaF+6/dgAmDGN98lypWQ0bi+ximUxr+PRgzOxuFBy/24YbZ1bgxpkVvPgTmYABoJ/KfXbcOq8K37+yypAqdcVk475oUdXc//RgzJANcYqFBGDaKB8eWFSLKXVc6kdkFj4CyNO4IR7UDXLjo90RrN8TRaSIHgtU+O0YPdiNUYPdkCQJf1rTJqTdSCKLbUfiuHRk4Z/8NQ1Yt1fciIZc5cTiGRXYfzKJg41JHDmVKppaAxKA0bIbCy8KYhg39yEyHQOAAE67hCsnBTFnfACfHYlj7e4oGjsKb0KYx2VD3UAXRp2+6FcHv3h7aOia6X7uHvT9tXZPtCgCwN4TCaGVIi8f44dc5YRc5cS8iQFkVA1HTqU+DwQn29IFtzeBwy7h0hFezBof4CQ/Igvhb6NAjrOqxdU3d+2VfqgxhfoW693FlfnsGFThwOBKJwZWODGosmu/+J4WOEgALh/jwzufiqmF0NCWxpFTKQyvLew7wbV7xN39e1w2XDLc+6XXHHbp80AGALFkFifb02jsyKCxPY3G9jSalIzl3l+VATtGDnSjbpAbo2U3S/oSWRADgE4uGODCBQNcWDAZyKga6ltSONSYwqGmJI61pA17Bu5ySF0X+AoHBlU6Mej0xd7ryv2EPLXOhxVbw0gLutis3R3B8NoqIW2Z4WR7Wmjhn6kjvXCep0aCz21D3aCuC+sZWQ1oDZ8OBGeCQUcaHRHVsNGCMp8dIwe6UDfIjZED3ZwXQ1QAGAAM4LBLGDmw68QIBJHOaDja3DUyEElkEUtmEU92/RlLdf3Z26QySeoqqON12+B1SfC6bJ9/+Nxdf68KODCo0oGqoENYSVWvy4aLhnuFzXjfdSyBhrY05CrrbP6TC5E7RXaNsPj79b02CRhQ5sCAMgcmX/jF68m0hsaONJo60ogkut5j8ZSGeCr7xUey6++9hTq7TYLXJcHntn3+0fVes6E62HWnX1PGUwlRoeFvrQmcji8P63ZHzWqIpzTEklkkUlk47Kcv9G4JbqfNtDrpM8f6hQUADcC7Wztx+4JqIe0Z6VhLCruPJ4S1VzdY/EXU7ZRw4QAXLhxw/scsGVX7PBwkUlnY7RJ8py/yLMtLVJwYACzKbpMQ8EiWK5gjVzkxrMaFYy0pIe3ta0gW5FyAd7eKu/sHgBn9vPsXxWGXEPRKCHqt9X4jIv3wt51yNnOs2IvVigLbZOlQU1Los/8Kvx3jhrKoFBEZiwGAcjbpAg/8AkcmDp9e5lYoRN/9Tx/t73H1BRGRXhgAKGcOu4TLR4sdBXh3Syc0a61k69bu4wnUN4t5/AF0rdKYNqrw6yEQUeFhAKB+mTXeD49T3NvnRFva8hvqpDMa3tykCG1z5li/0NEUIqK+4pmH+sXrsmHWeMGjAFs70RlThbYp0sptYXRExfXP7ZQwZ0JAWHtERLlgAKB+mzXe36+CQj1JpjW8IfgOW5ST7Wms3R0R2uascQH4WCGPiEzCsw/1m8dpw+wJYkcBdh1LYOcxcevrRdA0YNlGBSKLN3pcNswWPIJCRJQLBgDKyxVjxd/FvrlJsdT2uhv3RYXVPThjzng/PAJHT4iIcsUzEOVFj+fYnTEVr65vF9pmf51sT2P5ZrF1CnxuG64Yx2f/RGQuBgDKmx4z2XfUJ4Q/c89VIpXFC2vahW1+dMbcCQGW1yUi0zEAUN5cDgkLJgeFt7t8cyeOClxznwsNwF/WdaAtnBHabrnPLrySIhFRfzAAkBAzxvgxpFrsrn5ZDfjzh+2IJLJC2+2L1TsiQjf7OeOb08vPu+UvEZERGABICEkC/vbyCuElbTtjKp5f3YZUxrhJgTvq41j5mfj9CSYO82A8a/4TkUUwAJAwcpUTM3WY3FbfnMIz77UasjJgR30cL37YLnTJH9A1WfL6aeViGyUiygMDAAl19cVBlPvswtutb05h6fv6hgC9Lv4AcPXFZSjT4f8LEVF/MQCQUC6HhG9O1+dO98xIQCwpfk7AtiP6XfyHVDs58Y+ILIcBgIQbP9SDicP0edZ9rCWF37/djENNYrYPzqga3vhYwYsf6XPxt52eGyFx3h8RWQwDAOni+mnlutW574ypeHplK/66pRNqHlftxo40/rC8WdddCOdMCECuErs6gohIBAYA0kWZz46bZlXqdueracDqnRE8trwF24/Gc7p774iqWL65E48tb0FTh9h1/mcbUevC1ZeU6dY+EVE+HGZ3gIrXaNmNhRcFsfKzsG7HONmexp8/bEeFvxMzx/px0XAvynx2nJs70hkNx1pT2LA3il3HEroM958t6LXh5jlVwpdFEhGJwgBAurpychDHWtLYe0LfHf7O3NUv39wJl0NCddCB6qAD8VQWLZ0ZdMZUGFVJwCYBN8+uQtDLATYisi6eoUhXEoDvzKpAZcC4JXCpjIaT7WnsqI/jYGMSioEXfwD42qVlGDHQZeARiYhyxwBAuvO6bLhlbhUc9uIfD58wzCN8d0QiIj0wAJAh5Conbri8uCvh1ZY7cOMVFWZ3g4ioTxgAyDBTRvpw3WXFGQKqgw788KpqeJz8lSKiwsCzFRnqinF+XDu1uJbGVQUduOvqagS9LPVLRIWDAYAMN3t8ANcUyfr4yoAdd15VzTr/RFRwGADIFPMnBbDwoqDZ3chLhd+OO6+qQYWfF38iKjwMAGSahRcFceWkwgwBFX477ry6xtDljUREIrEQEJnq6kuCqK1w4PUNHUhljFyt33+jB7vxndmV8Ou01wERkREYAMh0Fw/3YkiVEy+sadO1Nn++JOmLUQvu7kdEhY63MGQJNWUO3Ps3AzC1zmd2V7oV8Nhwx4JqLJjMiz8RFQeOAJBlOO0SvjWzAiNqXXhjk2KZRwLDa124eU4lyrjMj4iKCAMAWc6UOh9Gy268vz2CTfujuu/c15PqoAPXXBLEpAu9X9ldkIio0DEAkCUFvXYsml6O2eP9WLE1jO1H44Zt6FPms2PB5CAuG+Xjdr5EVLQYAMjSqoMO3DynEnMnBvDXrZ040JDULQj43TbMnRjAjLF+OEtg4yIiKm0MAFQQ5Con7lhQjc6Yil3HE9h1LIHDTSmoeT4fqPDbMX6oBxMv8GB4rZt3/ERUMhgAqKCU+eyYMcaPGWP8SKSy2HMiiT3HE2gJZ9AZUxFNZqH1kAmcDgllXjvKfDYMr3Vj4jAP5CqnsT8AEZFFMABQwfK4bLhkhBeXjPB+/lpWA8JxFZ0xFeF4Fi6HhDJf10WfO/UREX2BAYCKik0Cyn12lHNzHuqFJGhdR0+jTUSiCFwFpZ77Am+JiKjkOATlw854VkxDRD0Q+B7rOPcFBgAiKjkuh5gRgLbIV26qiIRRs8ICQEoJyeFzX2QAIKKSI2qZZ3uUIwCkn45Yz5Oac9Ta3YsMAERUcpyCRgAYAEhPHVFhI0wMAEREgLgRgKPNGaRVzgQkfexvFLY7akt3LzIAEFHJETUCkEhr2HEsLaQtonNtOpgU1RRHAIiIAMAusOSjwJM00Zd8ckjYe+twdy8yABAR5UHgSZroc8dbM2jsEDYHYH13LzIAEBHlYcexFE51cjkgifXezoTI5tZ19yIDABFRHtQs8OK6qNndoCKSUTW8vF7Ye+qwEpIbu/sEAwARUZ6WbYoiluRqABLj3W1xtISFjSp1e/cPMAAQEeUtmtSw7BOOApAYL6wV+l5iACAi0tNzayIsDER5e3tLDAcahS4tXdXTJxgAiIgEaI9m8fBbitndoALWElbx6NudIpvcpITkXT19kgGAiEiQldvj+EDs7G0qIb9epiCcEDqK9GRvn2QAICIS6DdvdIicwEUl4r8+ieGjvULDYwTAi719AQMAEZFA7dEs7numlfMBqM8+2JXAb97oEN3si91tAXw2BgAiIsGONGfwD//ZiojY4VwqQuv2JfHzl9qhin+r9Dr8DzAAEBHpYu/JNP7xuTZ0xhkCqHvr9yfxT39q02NHyU1KSP74fF/EAEBEpJPt9Snc9odm7DrBHQPpC1kNePqDMB54rhWpjC4FpP57X76IAYCISEeNHSqWhFrwlw0sFERARyyLf3y2FaH3wsjqUzzyVSUkf9iXL3TocngiIvpcWtXw8FsK1u1L4N5ryjB6kNPsLpHB1Czw1uYYQu+F9VwlkgTwk75+MQMAEZFB1u1LYv3+Zlw1yYu7FgZxYQ1PwcUuq3XVhwi9F8ax1ozeh/udEpIP9/WL+e4jIjKQpgErtsfx3s445oz14MqJXswe60bQyyeyxeRgUwardsXx7rY4jjTrfuEHgFMA/i2Xb2AAICIyQTYLrN6dwOrdCdhtwNQRbiyc5MXXLvbC65LM7h71Q31LBm98GsOqXQkj7vbPlgVwuxKSc6ojzABARGQyNQt8fDCJjw8m8fv/p+C6KT7cOieA2jK72V2jPth4IIkXPorg44NJaObsCv0LJSQvz/WbGACIiCwkmtTw0voo3tuRwP/5QRUnDFrcs6sjeGyF0A18cvUmgF/25xv50ImIyIJawirufqoVnx1Nmd0V6sHDbylmX/wPALhNCcn9GndgACAisqhIIotfvt6BjPhKcZSnjQeSZtd2iAL4WyUk93sPagYAIiILq2/J4PVNMbO7QWfJasDvlpt65x8GcK0Sknfk0wgDABGRxT23JmJ2F+gs6/clcLDJtPLObQAWKiF5Tb4NMQAQEVncqU6V2wtbyP5GQ5f4na0JwHwlJG8S0RgDABFRATjQyA2FrOLQKVP+LY4DmKuE5O2iGmQAICIqACfadasfTzk6afy/xToAs5SQvE9ko0VRB+DJFS1md4GICkh7RMwJXK60o8Ggi0FWp63jKHeqcU9jMgAeAvArJSQLf6MVRQA43MR1skRkvEWX+WGTgCfeC3OpHom2D8Ctop73d4ePAIiI+kmSgO/PDeCZH9Vg+ICiuJ8ia3gCwKV6XvyBIhkBICIy01jZiefvH4C3N8exdHUYjR18Xk/98iaAh5SQ/IkRB2MAICISwGmXcMM0H66b4sXbW+L4z9Vhw+YHUMF7A8CDSkjebORBGQCIiARy2CUsusyH66b4sHxrDI+8pSCW4vwA6tY7AH6mhOQtZhyccwCIiHRgtwHXTfFhaDXvs6hHPzXr4g8wABAREZUkBgAiIqISZGoACHgkMw9PRJQXnsOokJkaAEYPcpp5eCKivIyTeQ6jwmVqABg/hL88RFSYHHaJNzFU0EwNABOGusw8PBFRv40d7ITLwUcAVLhMDQAzRrkxvc5tZheIiHImScD9Xwua3Q2ivJgaACQJ+NniCgQ8XIxARIXjxsv9mDKCNy9U2Ey/8g4st+N/LirnUBoRFYTxQ5y475oys7tBlDdLlKi6arIXI2qdePCVduw9mTa7O0REX+GwS7hjXgC3zwvAYecNCxU+SwQAAKgb6MAzd0FRKcIAAA61SURBVNfgpfVRfHwwib0NabRHs2Z3i4hKmN0GjKh1YpzsxHdm+jF2MGf9U/GwTAAAuhL2LbMDuGV2AADQpKhoCavQuI8GERnM5ZAwfICDjyepaFkqAJxrYLkdA8vtZneDiIio6Jg+CZCIiIiMxwBARERUghgAiIiIShADABERUQliACAiIipBDABEREQliAGAiIioBFm6DgBRX6QyGnYcS6FJyaIl3FU8qjWcRWtEhcdpQ03QhpqgHdWn/6wb6MCwar71iai08SxIBSmSyGLt3iRW7Upg/f4E4qncykWOqHVg/gQv5k/wYJzM8q5EVHoYAKigfHY0haWrwth0KIWM2v8a0YdPZXD4VBhLV4UxqMKO66f48L1ZAfjcLPtKRKWBAYAKwsGmDP64ohMf7kkIb7uxQ8WT74fxysYo7pgfxOLpPji52xsRFTkGALK05k4Vj68M450tMWR13hSqPZrFb99W8OK6CO65ugzXXOTV94BERCZiACDL2l6fwk9eaDN8W+iGdhU/f7kdGw8k8c+LyjkaQERFicsAyZKWb43j3mdaDb/4n+2tzTHcZ3IfiIj0wgBAlqJpwGMrOvGLV9qRyug85t8Hnx1N4fY/NuNAY9rsrhARCcUAQJby728qeHZ1xOxufEljh4q7nmzBwaaM2V0hIhKGAYAs4+UNUbz2cdTsbnQrltTw4+db0RHj4wAiKg4MAGQJG/Yn8eg7itnd6FVDu4p//lNbXvUHiIisggGATHekOYOfvtSObAHcXG85ksL/ftPaQYWIqC8YAMhUmgb8y8vtiCQK4Op/2rJPYli9W3xBIiIiIzEAkKlWbI9j78nCm2H/2LudUAsnsxARfQUDAJkmo2p4fGWn2d3olyPNGbzxqTUnLBIR9QUDAJnm9U0xnGhTze5Gvz35XjjnXQiJiKyCAYBMkUxrePqDsNndyEtrJIuX1nMUgIgKEwMAmWL9/mRRlNh9Z0vM7C4QEfULNwMiU6zaFdel3eEDHJgw1IVxshOjBznRHlWxtyGN3Q1pbK9PCR+yP9qSwZHmDIYP4K8SERUWnrXIcBlVw0d7kkLb9Lsl/Ldry3H9VN9XPrdwUte2vs2dKv71tQ5sPCD22Gt2JzB8QEBom0REeuMjADLc5sMphAWu+790uAt/+vvabi/+ZxtQZsfvb6/GP32zHC6HuC1+WROAiAoRAwAZTuQFc1CFHY/cVo1BFfY+f8/i6X7cd02ZsD7sPJ4qivkMRFRaGADIcPUtYnbVkyTg54sr4Hfnfjd/00w/poxwC+mHpon7mYiIjMIAQIZrCYtZ+79oqg+XjezfRVySgH9ZXAGnXcyjgNZI4dYzIKLSxABAhmsJixkunz3Ok9f3D660Y9QgMfNgRf1MRERGYQAgQ6UyGjrjYi6W42Rn3m2MH+IS0BNxoxpEREZhACBDtUXEXPyrAjYMKOv7xL+eTBiSf4gAgFaOABBRgWEAIEOlMmIK8fjdYt66AY+YdkT9XERERmEAIENVB/O/aweA420ZxJL5X3R3N6QE9AaoDoj5uYiIjMIAQIbyuyV4nPnPvNc0YN/JdN7t7D6efxsAUBPkrxIRFRaetchwNYJGAbbV53f3nspo2H1CTAAQNbJBRGQUBgAyXLWgu+Xn1kTQ3Nn/2fePrwwLK0nMEQAiKjQ8a5Hhcinb25twIotfvt7Rr+/97GgKf14bEdIPQNzPRERkFAYAMtyMUWJK8ALAhv1JPPV+GFoO8wGPt2Xw4KvtyAqauD+40o5h1dxYk4gKS3cBICqi4WSay6Koe3PGeWAXGD2ffD+Me59pxcn23h8HaBrwysYobv2PZpxoE1e4Z26eFQmpuKmikiaRYN3dtjQAGJlvwy3hrLDJXlRcgl4bpoxwY9PBpLA2Nx9O4nv/cQrfnuHH5GEujB/iRE3QjrSq4UBjBrtPpLByRwKfHhJ3zDPmT2AAoJ7FUwwAZE09BYC8NXeqQkq1UnGaP8EjNAAAQCyp4dnVXzzXrwrYEI5rSKv6nYDLvDZccqG4RxpUfBgAyKq6G4gVFgCIejJ/gtjHAN1pi2R1vfgDwLwJHtg4k4Z6wQBAVqVbAODuaNSbmqAdiy7zm92NvDjsEm6fFzC7G2Rhapbzoci6ugsAJ0Q0zBEAOp87FwSFVAU0y+JpPgyt4ux/6llrRAUv/2RVuo0A7DgmpsY6Fa/qgA3fnVWYd9A+t4S/uzJodjfI4ngeJCvTLQAcOpXB8daMiKaoiN02J4ByX+E9RL9tTgCV/sLrNxlr9a6E2V0g6pFujwAAYPVuvvmpd363hAe+UW52N3IyapATtxToyAUZR80Ca/eJX3ZKJMpXAoASkqMAWkU0zgBAffH1i734/tzCuKBW+m14+JYquAt47gIZY/PhJMJxToYm6+ppDPOvIhrfXp9Ce5S/AHR+91xdhjkWr6jnsEv49XerMLiSBa7o/NbwBogsrqcAsExE41kNWLE9LqIpKnI2CXjo25WoG2jdWfU/ua4clw53md0NKgCpjIb3dzIAkLX1FACWAxDy8GrpqjALYVCf+NwSHv1+NUYNslYFSZsE3HdNGW6Y5jO7K1Qg/rIhipYwl0KTtXUbAJSQHAHwnogDtEWyeP4jcduuUnEbWG7HU0tqMG+8NR4H+NwS/v2WqoKZo0DmC8ezWLqa5zyyvt7WMQl5DAAAL3wUQVuEcwGob7wuCb/5XhXumG/uOvuhVQ48/aMBlp+bQNaydHWEk/+oIPQWAN4AIORdHE9peOr9sIimqERIEnD3VUH86uZKU3aVXDjJi6X31GBkrXXnJJD1NHao+MsGITuqE+muxwCghOQmABtEHWjZJ1HsPM6qWJSbhZO8ePWBWvzoqiB8bv2X3l063IVn7q7Br26uRJmXhX6o7zQNePgtBakM5zxRYTjfGU7YYwA1C/yPF9q5RwDlzOOU8Hfzg3jtgYH49gw/HHbxQWBErQMP31qFx++swcShnOlPuXvy/TA+3MOZ/1Q4zje++TKAfwMgZFp2S1jFj59vQ+iuGhZSoZxV+m348XXluHNBEB/tSWDN7gQ2Hkgi0c/d1i6scWDeBA/mjvNg0jAXJL4lqZ9Wbo/j6Q/4mJMKS68BQAnJR8uXNIQA3CfqgHsa0vjX1zrwy5sqRTVJJabCZ8N1U3y4booPybSGjw8mselgEqcUFS2RLFrCKlrDWaQyGiQJKPPaUBO0oTpoR03QjpG1Dswd78GFNXy+T/nb25DGQ691mN0Nopz15Qz4EIAfABC2DmrF9jiGVjtw91XcTY3y43ZKmDPO0+1M/XAiC49TglOHRwZEAHCyvWtUM9nPUSgiM513lpMSkk8BeFj0gZeuCuPBVzs4YYZ0E/TYePEn3Ww5ksLtf2zGKc5rogLV12nOjwBoEn3wd7bEcM/TrWhljQAiKiDLPonh/qWt6Ijx3EWFq08B4HRlwAf16MCOYync/lgz9jak9WieiEiYbBZ45C0Fv17WgYzK0UsqbLksdH4SwH49OnGqU8VdT7bg8ZVhRJP8pSIi69lyJIUfPtGMl1noh4pEnwOAEpIzAP6XXh1JpjUsXRXG4kea8PKGKNM1EVnCkeYMfvx8G+5+qgW7TnCkkopHTqXOlJD8CoB3deoLAKAjlsUjbym46XfNWLEtziBARKZo7FDx6//qwHf/7ykW+KGi1J+F0DcB2AhgjOC+fMnxtgx+9nI7Ah4bZo5xY944D64Y64HfgHKwRFSaDjalsWpXV5GpPZyXREUu5wCghOSO8iUN16MrBFSI79KXRRJZrNgWx4ptcTjtEqaMcGHqCDcGlNlQU2bHgKAdNWU2BD2s205E56dmgdaIiuZOFS3hLJo7VdS3ZPDhngQa2rmkj0pHv0qhKSF5X/mShpsAvAPAsK3a0qqGjQeS2Hgg+ZXPeZySIZvFEFHhymYBJZ6FxieLRP0LAACghOR3y5c0PADgdwL702+JtNbvmvBERESlJq9xcyUk/x5ASFBfiIiIyCAiHpzfD2C1gHaIiIjIIHkHACUkpwF8C8C6/LtDRERERhAydV4Jya0AFgB4VkR7REREpC9ha+eUkJxUQvLtAH4CgDtkEBERWZjwxfNKSH4YwDcBhEW3TURERGLoUj1HCclvA5gJ4JAe7RMREVF+dCufp4TknQCmgysEiIiILEfX+rmnJwdeBeBuAI16HouIiIj6TvcC+kpIzigh+QkAowD8AkBE72MSERFR7wzbQUcJyVElJD+IriDwRwAZo45NREREX2b4FnpKSG5SQvK9ACYCeM3o4xMREZEJAeAMJSTvU0LytwDMAPAEgJNm9YWIiKjUmBYAzlBC8kYlJN8NYAiAywH8CsBOc3tFRERU3Pq9HbBoSkjWAHx8+uOn5Usa6gAsOv0xC4DdxO4REfVHA4BWAJPN7gjRuSwTAM6lhOSDAH4L4LflSxrKAQxH1yiBfNbH2X+vhQVGNIioZEQBnEDXRb7hnP8+8/cjAB4FAwBZkGUDwNmUkKwA+Oz0R7fKlzQ4APgBSHke7kw7RFR8Mui6cOcrrYTkPrVTvqRBwOGIxCuIANAXSkjOAFAENdciqB0iIiJL4pA5ERFRCWIAICIiKkEMAERERCWIAYCIiKgEMQAQERGVIAYAIiKiEsQAQEREVIKKpg4AEVExe/gtBY++02l2NwhAWtXM7oIQDABERAVAzQJqtjguPGQNfARARERUghgAiIiIShADABERUQliACAiIipBDABEREQliAGAiIioBDEAEBERlSAGACIifZ00uwNkWaa+NxgAiIj0tcnsDpAlHVNCcpOZHWAAICLS1ycAWMKPzmV6MGQAICLSkRKSO2GBkz1ZzkqzO8AAQESkv3sAZMzuBFnGJgAhszvBAEBEpDMlJG8G8Buz+0GWkAJwhxKSVbM7wgBARGSMhwC8bHYnyFQRAD9UQvJOszsCAJKmcW4KEZFRypc03AjgDwBqze4LGep9dF38j5jdkTMYAIiIDFa+pKEawGIA0wBcBmASAKepnSLR2tG1AuQTAOsAvK2EZEtdcP8/9r/xelvd4e8AAAAASUVORK5CYII=;" parent="1" vertex="1">
          <mxGeometry x="760" y="796" width="100" height="100" as="geometry" />
        </mxCell>
        <mxCell id="eb6X6qhN3olK0OHb7I_1-36" value="" style="shape=image;verticalLabelPosition=bottom;labelBackgroundColor=#ffffff;verticalAlign=top;aspect=fixed;imageAspect=0;image=data:image/png,iVBORw0KGgoAAAANSUhEUgAAAgAAAAIACAYAAAD0eNT6AAAABHNCSVQICAgIfAhkiAAAAAlwSFlzAAAOGgAADhoBoqSb1QAAABl0RVh0U29mdHdhcmUAd3d3Lmlua3NjYXBlLm9yZ5vuPBoAACAASURBVHic7d15vFx1ff/x19w96wmBJHBQUVYRFFERXAG3ulGo1qo/UazLsdSWtmpdqvxsVaxLq/60Lj22brQuQFVUEEUtigUFrMomiyCCHATCckgISe7Nvb8/5qKIJLn3znfme2a+r+fjMY8bfZDPeSeZmfM+e2tmZgZJ/SkrqtXAg4F9Z38+GNgRWAosm/25FBiJlVG/ZxpYP/taN/vzduBK4GfAZbM/f1WXuV/Q6pqWBUDqH1lRjQKHA0cCRwD3j5tIXXQbcBpwKnBGXebrI+fRgLEASA2XFVUGPIP2Sv+ZwPK4iRTBJuA7tMvAV+oyvyFyHg0AC4DUQFlR3Y/2Cv9I4DBgNGogNckMcD7tMvDluswvjZxHfcoCIDVIVlS7AP8AvAwYjhxH/eE04A11mV8SO4j6iwVAaoCsqJYBfwu8BlgSOY76zxbgU8D/rcu8ipxFfcICIEWUFdUIUABvBVZHjqP+twH4APDuuszviB1GzWYBkCLJiuq5wD8Ce8XOooFzM/B24GN1mU/GDqNmsgBIPZYV1f5ACTwmdhYNvKuAV9dl/o3YQdQ8Q7EDSCnJiuoo4Fxc+as39gBOz4rqb2MHUfO4B0Dqkayo3kx7t2wrdhYl6UTglXWZb4odRM1gAZC6LCuqRcAngefHzqLk/RD4I28kJLAASF01e0OfLwOPjJ1FmnU9cFRd5hfEDqK4PAdA6pKsqA6hfcc2V/5qkl2B72VF9cLYQRSXBUDqgqyoXgCcBewcOYp0XxYBn82K6m2xgygeDwFIgWVFdShwJt6/X/3h1XWZfyR2CPWeBUAKKCuq3YHzgB1jZ5HmaAr4g7rMvxM7iHrLAiAFMns//3OB/SJF2ALcCFS0T/S6/h6/3hgpk37fKLALkNM+Hr/r7K9z4u01uhU4uC7zn0daviKwAEgBZEU1RPvxrM/u8aJ/Sfsqg1OBs+syn+rx8hVIVlQt4EDaj4A+CnhYjyP8DDjEZwikwwIgBZAV1buB1/docT9hdqVfl/lPerRM9VhWVA+iXQSOBJ5Ab07a/jrw7LrMp3uwLEVmAZA6lBXVi4HP9GBRPwJe77Ha9GRFtR/wLnqzh+l9dZm/tgfLUWQWAKkDs9f6nwWMd3ExVwNvBr5Ql7kf2IRlRfVE4D3AwV1e1MvqMv9kl5ehyCwA0gJlRTUGXAY8qEuLWAu8DR/pqnvpwaOkNwJ712V+XZfmqwG8EZC0cH9O91b+PwQeVpf5h1z5697qMv8v4ADgC11axATtB1dpgLkHQFqArKgy2s9a78b1/v9B+6ltXrqn7cqK6i209xSFfsrkNPDwuswvCjxXDeEeAGlh3kD4lf808Ma6zF/syl9zVZf5O4DnAncGHj0EvDvwTDWIewCkecqKalfgStr3Uw9lHfCiusy/GnCmEpIV1cOArwC7BR79ZK88GUzuAZDm722EXflvAZ7ryl+dqMv8QuDJtO/qF9J7Zm9SpAFjAZDmYfZ67GMCj31NXeZnBp6pBNVlfhXwPNr39w/lkcDzA85TQ1gApPl5NzAccN7H6zL/YMB5Stzs7vq/Djz2hNnLXjVALADSHGVF9RjgWQFHng28OuA8CYC6zD8MfCzgyN2BlwecpwawAEhz98KAs66lfdzfa/zVLccB3ws4L+T7Xw1gAZDm7siAs15fl/nNAedJv2O2XB5L+yTTEB6bFdVOgWapASwA0hxkRXUg8IBA484HTgo0S9qquswvBULd038YOCLQLDWABUCam9Bb/96AQ73yVmBDoFkhPweKzAIgzU2oL77T6jI/K9AsabvqMq+A9wca99SsqELeA0MRWQCk7ciKajfg4QFGTQNvDDBHmq/30H66ZKcWA08LMEcNYAGQti/U1v8X6zK/ONAsac7qMr8D+ECgcR4GGBAWAGn7ghWAQHOkhQj1/nt2VlSuOwaA/4jSNmRFtQPwxACjJoHTA8yRFqQu858BVwQYtQp4XIA5iswCIG3bo4CRAHPOqsu8DjBH6sSpgeYcEmiOIrIASNu2T6A5Xw40R+pEqPdhqM+FIrIASNsW4otuhnBbXlInfgDcGGCOBWAAWACkbds7wIxL6jK/PsAcqSN1mU8DIR49HeJzocgsANK2hdjS+WWAGVIoId6Pq7OiWhFgjiKyAEjbtnOAGTcEmCGFEur9GOKzoYgsANJWZEU1BowHGFUFmCGFEur9uDzQHEViAZC2LtQXnAVATWIBEGABkLYl1BechwDUJKHejxaAPmcBkLbOPQAaRL+mfWlqpywAfc4CIG3dRKA56wPNkTpWl/lmYHOAUaE+H4rEAiBJUoIsAJIkJcgCIElSgiwAkiQlyAIgSVKCLACSJCXIAiBJUoIsAJIkJcgCIElSgiwAkiQlyAIgSVKCLACSJCXIAiBJUoIsAJIkJcgCIElSgiwAkiQlyAIgSVKCLACSJCVoJHYA9a+sqJYDewM5sAxYOvvz7l8Pz2HMEJABy4Gxe7xGZ3/OZUa3LAk050tZUW0MNCuWaWAS2Hyvn+uB22f/9/bMABuAdbO/b93s6xbgyrrMq/CxJW2NBUDblRVVC3g4cBjwEGAf2iv+NRFj9ZMHxw7QD7KiWg9cCVw++/of4Pt1md8VNZg0oCwAuk9ZUe0FPAV4EnA4sGPcRErAUuDA2dfdNmVFdS7w7dnXeXWZb4kRTho0FgD9RlZUa4AXAi/hd7+EpVjGae95Ogx4O3BDVlSfBT5Tl/mFEXNJfc8CkLisqEaA5wDHAE/D94SabRfgtcBrs6K6EDgR+FRd5mvjxpL6j1cBJCorqvGsqP6M9jHXLwDPxJW/+svDgPcCv8yK6v1ZUe0aO5DUTywAicmKaklWVK8BfgF8FHhg3ERSxxYDfw1cnRXVv2ZFtXvsQFI/sAAkJCuqlwBXA/9Me1eqNEjGgAK4PCuq92VFtSx2IKnJLAAJyIpq/6yovgd8GlgdO4/UZSPA3wCXZUX1gthhpKayAAyw2d39/wT8GHhC7DxSj+XA57Ki+lZWVHvHDiM1jQVgQGVF9RDgfNpnTHtyn1L2ZOB/s6I6OnYQqUksAANo9lj/+cC+sbNIDbEEODErqo9nRTURO4zUBBaAAZIV1aKsqP6d9rH+xbHzSA30CuAHs3e6lJJmARgQWVHtBJwFvCxyFKnpDgDOy4rK82KUNAvAAMiKajfg+8CjY2eR+sQK4JtZUf1R7CBSLBaAPpcV1cOAc2g/oU/S3E0AJ2dF9arYQaQYLAB9LCuqxwDfo325k6T5GwY+lhXV38UOIvWal4f1qayo9gNOA7LYWX5HC4aHYXik/etBMTMDU5thZnr7/+3QEAyPQWvA/vzTU7BlKnaSrjkhK6rb6zL/SOwgUq9YAPrQ7DH/bwA7xFh+qwXjS2BsUYvhEX7zGpr9OcjW3wp3rJ1h+j6eSD88AstXtViyove5emnL1G/LwN2vzXfNsOnOdlHoYx/KiurmusxPjh1E6oUB/7oePLNn+38D6OmTz4aGYGIpLFrWYmIptBI9eLR0JSxd2WJqEibvau8VGBmHsQkYHo2drjfuLny/+8dtMT0NG9fDXetm2Lh+bntLGmYI+I+sqG6ty/zbscNI3WYB6CNZUY0BX6NHJ/wNDcGirL3SH188WLu0OzUy2n7pt4aGYPFyWLy8xcwMbLqzXQY23NFXZWAM+FJWVI+ty/zi2GGkbkp0O65vvRc4uNsLabXaW7o779lih51bTCxx5a/5abXae4x22KXFznu0WLID/XROyDLgpKyolsQOInWTBaBPZEV1FHBct5ezeDms2aPFijUthoa7vTSlYHgEdti5xc67t1jUPw/o3Rf4cOwQUjdZAPrA7El/n+jmMsYXw+oHtVi5a8td2+qKkTHY8X4tVj+wfUipDxwz+1wNaSBZABouK6ph4PN06Yz/1hCs3LXFqt1ajPmIFPXA2CJYtVuLlXmrHw4tfcRHCWtQWQCa79XAId0YPDwKq3drsXh5N6ZL27Y4axeBhl86ugT4aOwQUjdYABosK6qdgbd3Y/b4YljzoBajbvUrorFF7UNPY4tiJ9mmJ2VF9cLYIaTQLADN9k9A8O3zJStgpwd4kp+aYXikvSeg4Xui/jkrqmYnlObJAtBQWVEdBrwo9NwVa1rssEtfHHtVQlqt9rko2arGvjF3Ad4WO4QUkgWggbKiagEfCD53dYulK0NPlcJZthMs2zF2iq36i6yo9oodQgrFAtBMRwAHhBy4OGv0F6v0G9nqxt4vYBh4U+wQUigWgGZ6S8hhY4vad2ST+sXKvMXoeOwU9+no2ftySH3PAtAwWVE9DTgo1Lzh0fbNVzzmr37SGoId79/IE1VHgTfEDiGFYAFonmBb/60W7HS/xl9nLd2nkeaW15dlRbVL7BBSpywADZIV1QHAE0LNW7Gz1/mrv40vhuWrG9cAxoFXxg4hdcoC0CzHhBo0Ot6+3l/qd0t3aOSjl18cO4DUKQtAQ2RFNQL8n2DzmrfVJC1Iq9XIvQB7ZkX1mNghpE5YAJrjD4A1IQaNL2k/i10aFIuX08SHVbkXQH3NAtAcwXb/r2je1pLUsWxN497Xz8+Kaix2CGmhLAANMPsl8uwQsxYvxxP/NJDGFzduz9ZK4NDYIaSFsgA0wyFA589Da+axUimYBp7b8uTYAaSFsgA0w+EhhowvbuTZ0lIwo+ONOxfAAqC+ZQFohieFGLJoaeO2jqTgJpY16n3+iKyodogdQloIC0BkWVEton0IoGMNfYCKFFTD3udDwGGxQ0gLYQGI7yCg4zOJRyfa9/2XBt3oeOMOdT0+dgBpISwA8T04xJBFzdotKnXVRLP2AgT5DEu9ZgGIL0wBaNblUVJXNazw7h07gLQQFoD49ul0wPCo1/4rLeOLadKjgh+YFVWzDkpIc2ABiK/jPQCj4yFiSP1lpDn34BsBdo8dQpovC0BEWVGNAw/sdM7wSOdZpH7TsJNe94odQJovC0BcKwnwb2ABUIoa9r5fHTuANF8WgLiCnMs8NNKoE6Kknhhu1vt+eewA0nw1q0OnJ8i5+93cEhoegj1WjrL/mlFGh+GSGye5fO0Uk1tmurdQaQ4atgfAAqC+06yPUHqC7AHoxhfhTkuG+LvDMg7dfZyJe21pTW6Z4fxfbebt37mDa2+fCr9waQ4adg5AFjuANF8eAoirkQXgiH0X8ZWXrOIP9p74vZU/wOhwi8fuNs6XXrwTRx+4hEbtiFUy3AMgdcYCENeSEEOGAn4RPv9hi3nX01eQTWz/rTEx0uJNhy3n1Y9p1m3ZlIYG3QcAAn2WpV6yAMTVqI3nXZcP87onzn9Dpnj0UvZb06z9sVKP+V2qvuObVr/xtqdmLB6dfycZHoJ3PX0FI76bJKlv+JUtAFYuGuKQByz8loK7rxxhn1XuBZCkfmEBEECQXfj7rrYASFK/sAAICFMAHmIBkKS+YQEQAPfPOr+UYNflzTotW5K0dRYAAdAKcD1CiBmSpN6wAEiSlCALgCRJCbIASJKUIAuAJEkJsgBIkpQgC4AkSQmyAEiSlCALgCRJCbIASJKUIAuAJEkJsgBIkpQgC4AkSQmyAEiSlCALgCRJCbIASJKUIAuAJEkJsgBIkpQgC4AkSQmyAEiSlCALgCRJCbIASJKUIAuAJEkJsgBIkpQgC4AkSQmyAEiSlCALgCRJCbIASFJ6pgLMGAswQxFZACQpPesDzNglwAxFZAGQpPRYAGQBkKQErQswIw8wQxFZACQpPRYAWQAkKUG3BZjhIYA+ZwGQpPRcHmDGyqyoJgLMUSQWAElKz2WB5jw+0BxFYAGQpPSEKgBHBpqjCCwAkpQeC4AsAJKUmrrMbwWuDTDq/llRPTLAHEVgAZCkNH010Bz3AvQpC4AkpenLgeYcFWiOeswCIElp+i5QB5jz0KyoDg8wRz1mAZCkBNVlPgmcHmjce7KiagWapR6xAEhSukIdBngU8CeBZqlHLACSlK6vA5sDzTohK6rRQLPUAxYASUpUXebrgP8ONG4P4M8CzVIPWAAkKW2hDgMAHJ8V1eqA89RFFgBJSttXgC2BZq0CvpgV1VigeeoiC4AkJawu8wr4ZMCRjwM+FnCeusQCIEl6K7Ah4Lw/zYrqNQHnqQssAJKUuNm9AO8PPPY9WVE9PfBMBWQBkCQBvAdYG3DeMPD5rKieEHCmArIASOoby8aHeOxu47zioKW8/4gd+PjLd+AvnrqUx+8zzuJxb0TXibrM7wDeHnhsBnwrK6qXBZ6rAEZiB5CkuThqv0W88dCMZfda0f/JwYsAuOH2LfzlZ27nzIs3xYg3KD4KHEf7mv5QxoB/z4pqP+Bv6zKfDjhbHXAPgKRG22HREB85ciUnPG3F763872mXFcOcctyOfPDFK5gYdW/AQsw+H+DNXRr/GuCrWVEt79J8zZMFQFKjnfC0FRy6+/ic//tjnrCY449a1sVEA+8k4PwuzX4m8MOsqJ7SpfmaBwuApMY68iGL5rXyv9ufP2Upj9vLe9EsRF3mM8CxwMYuLeLBwJlZUX0zK6pHdGkZmgMLgKRGWjLW4k2HLWxv8VALPvzSFYETpaMu8x8B3T5x76nABVlRfTYrqt27vCzdBwuApEbaf80oy8YX/hX1oFUjPHDVcMBEaanL/HPAO7u8mBbwQuCyrKg+mRXVs7KimujyMjXLAiCpkfZf0/ku/AN38zBAh94CnNqD5YwCLwW+BqzNiuqUrKiOzopqhx4sO1leBiipkfZb0/mj5Q/cbZQvXXBXgDRpqst8Jiuqo4FzgIf2aLFLgOfOvqayojoPuAa4AahmX3f/et3s77mtLnOv/5wnC4CkRlq5uPMdlKuWu5OzU3WZr8+K6g+B82g/7a+XRoDHzr62ZTIrqouBC4Az6zI/uevJBoCfDknSNtVlfg3tLfLNkaNszShwIPBK4KSsqE7LiiqPnKnxLACSpO2qy/xsoAC2xM4yB88ELs6K6tDYQZrMAiBJmpO6zD8NPAuoY2eZgx2AE73z4NZZACRJc1aX+TeAg4ErY2eZg/sD74sdoqksAJKkeanL/HLaJeBbsbPMwcuzotozdogmsgBIkuatLvPbgKcDH4qdZQ4eHTtAE1kAJEkLUpf5lrrMjwNeBUzGzrMNj4odoIm8D4Cknhkegr12HGWfVSNMjGz7kb2rl3S+fbLXmhFeduiSbf436+6a5qfXTnLljVPMzHS8yCTVZV5mRXU58FmgiZff7R87QBNZACR13SEPGOcvH7uUfVeNMr6dFX9IB+0+xkG7z+12wOs3znDe1Zt5yyl3cMmvmrwx20x1mX83K6q9gL8BXg806ez7q2MHaCIPAUjqmsWjLY5/Usa/PXclD99lrKcr//laOtHiSQ8Z57tv3ok3HrGM0eHmZm2qusw31GV+ArAn7XMDmtKkLogdoIksAJK6YrgFn3zejrzggMX006p0dLjFm45Yxidf6XNoFqou85tnzw3YFzgJiH1wxQJwHywAkrriZQctZf8AD/SJ5YhHTPDHj14UO0Zfq8v8qrrMn0/7ksGzIsX4FvDTSMtuNAuApOB2XznCnx+yNHaMjr33hRmrlvk12am6zM+vy/xw4GnAp4C1PVr0OuDldZnH3gPRSL6zJQX3h/suYmwAjqGvXDLEsw6ciB1jYNRlfmZd5n8K7AwcSvsufd06QW8a+Mu6zK/t0vy+51UAkoLbf+f+3fV/b4944Bif+t6G2DEGSl3mW4Dvzb5emxXV/sBRwJHAI6Hj00Z+Dry0LvP/6XDOQLMASApuv9UDVAB2G5w/S1PVZX4xcDHwjqyodgUeA+wD7D37cx9gxXbGbAIuBM4ETqjL3Na2HRYASUFNjLRYNjE4RxfXZMOxIySlLvPrgVPu/f9nRTUOZLTvL3D3a5z23oKbgIvqMm/KZYd9wQIgKaiNUzNcc9sUD9phML5eLrrOdUoT1GW+ifaK/qbYWQbF4NR0SY1xyY2Ds9L88S83x44gdYUFQFJwP64GZ6X5g58Pzp9FuicLgKTgTrloA1es7f+9AGdevIkzL94UO4bUFRYAScFNTcObzqiZmo6dZOHqDdMc95nbY8eQusYCIKkrLrt5krd/u2bTVP/dhK3eME3xidupbt8SO4rUNRYASV1zysUb+OP/XNtXJwV+86KNHPz3N3PGhRtjR5G6ajCu05HUWFffOsULP7+Wp+w5wX5rRnnI6lH23ml0u7cKXjzaYrjDTZTJLTPctXnbeyDWb5zhwusm+em1k5x31Wa+dYnH/JUGC4CkrtsyDd+4YiPfuGLuW9Wfet6OHHS/sY6We/J5d3HsJz2OL90XDwFIkpQgC4AkSQmyAEiSlCALgCRJCbIASJKUIAuAJEkJsgBIkpQgC4CkRtoy3fkthKe8k6+0VRYASY101a1THc+4/IbOZ0iDygIgqZFCPD/gx9dsDpBEGkwWAEmNdHGHBWB6Bn5ybf88hEjqNQuApEa66pYpzvnlwh/M8+mz7+TOTf33KGKpVywAkhrr+DNr1m/naX735Zqbt/Dmk+/oQiJpcFgAJDXWr9dt4Z3/XTOfCrBxcoZjP3WbW//SdlgAJDXaqZfexUtPuoVf1du/pu8nv5zk0HfczDlXevKftD0jsQNI0vZccP1mjjrxZo49ZCmP322cPXccZXh282XT1AyX/GqKr/74Lj74jfVMTcfNKvULC4CkvnDX5AzvO3sd7zt7HRMjLfZaOUL1ixkuvX6KyS3u7pfmywIgqe9snJrhpzdMUl3ril9aKM8BkCQpQRYASZISZAGQJClBFgBJkhJkAZAkKUEWAEmSEmQBkCQpQRYASZISZAGQJClBFgBJkhJkAZAkKUEWAEmSEmQBkCQpQRYASZISZAGQJClBFgBJkhJkAZAkKUEWAEmSEmQBkCQpQRYASZISZAGQJClBFgBJkhJkAZAkKUEWAEmSEmQBkCQpQRYASZISZAGQJClBFgBJkhJkAZAkKUEWAEmSEmQBkCQpQRYASZISZAGQJClBFgBJkhJkAZAkKUEWAEmSEmQBkCQpQRYASZISZAGQJClBFgBJkhJkAZAkKUEWAEmSEmQBkCQpQRYASZISZAGQJClBFgBJkhJkAZAkKUEWAEmSEmQBkCQpQRYASZISZAGQJClBFgBJkhJkAZAkKUEWAEmSEmQBkCQpQRYASZISZAGQJClBFgBJkhJkAZAkKUEWAAGwdsOWjmfcsmE6QBJJUi9YAATAJTdOdjzjZzd1PkOS1BsWAAFw8a87X3lfGqBESJJ6wwIgAK6/YwvX3Da14N9/+8ZpLnUPgCT1DQuAfuMt36yZnlnY7337t2s2TC7wN0uSes4CoN/4cbWZE//3znn/vtMvv4szrtjYhUSSpG6xAOh3/L9z1vG5n25grtvyp112F2/7dt3VTJKk8CwA+h2bpmZ4x3dq/vTkW/hVvfVLA2/dMM1fffU2Xv/121m3yV3/ktRvRmIHUDOd/6vNPOtTN7H3TqPst2aU/deMMjrc4pIbJ7n4xs1cdvMUm6Zc8UtSv7IAaKumpuHSmya59KZJTr4odhpJUkgeApAkKUEWAEmSEmQBkCQpQRYASZISZAGQJClBFgBJkhJkAZAkKUEWAEmSEmQBkCQpQRYASZISZAGQJClBFgBJkhJkAZAkKUEWAEmSEmQBkCQpQRYASZISZAGQJClBFgBJkhJkAZAkKUEWAEmSEmQBkCQpQRYASZISZAGQJClBFgBJkhI0EjuAOrf+Vmi1YqeQemtmJnYCqb+1ZvwU9VRWVAcCRwEHAPsDe8RNJCmAGjgXuAr4GvCdusw3x40kbZsFoMuyohoGnkh7pX8ksFvcRJJ6YB3wdeDLwOl1mdeR80i/xwLQJVlRLQL+CngdsGPkOJLimQS+ALylLvNfxg4j3c0CEFhWVEPAS4C3A/eLHEdSc2wC/gU4oS7z22KHkSwAAWVF9Qzg3cBDY2eR1Fi3Af8IfLAu802xwyhdFoAAsqIaBT4EvCp2Fkl94yfAkXWZXxs7iNJkAehQVlSrgFNon+gnSfNxE/Dcusy/HzuI0uONgDqQFdXDgPNw5S9pYVYD386K6hWxgyg9FoAFyorq2cA5wAMjR5HU38aAj2dF9YHYQZQWDwEsQFZUjwTOBhbFziJpoLypLvN3xQ6hNFgA5ikrql2A84FdY2eRNHCmaZ8Y+LXYQTT4LADzkBXVBPBd4NGxs0gaWOuAQ+oyvzR2EA02zwGYn3/Dlb+k7loGfCUrqpWxg2iwWQDmKCuqlwAvip1DUhL2AD4cO4QGm4cA5iArqnHgCuABsbNISsYM8Oi6zC+IHUSDyT0Ac/MXuPKX1Fst4L2xQ2hwuQdgO7KiWkH7Gd8ej5MUw7PqMj89dggNnpHYAfrAG+jSyn/xeIvH7TPBIXuOszobZselwywea3VjUZJmbdg8zdp109xYb+GcKzZy7hWb2DjZ6A2hd2dFdUZd5tOxg2iwuAdgG7KiWgbcSOAb/oyNtPizpyzjeYcsYWzEFb4U06bJGf7j++v5xFnrmdrS2O/D59VlfkrsEBosngOwbc8g8Mp/v/uNceKrV/Gixy915S81wPhoi5cfvoxPH7sTe+8yGjvO1jwndgANHvcAbENWVJ8FXhhi1uhwi1c+aRkvfsJShqxdUiNNbZnhU99dzyfOWseWZu1wr4FVdZlPxg6iweGqaCuyohoFnhlq3nHPWM4xh7ryl5psZLjFK560jGOfujx2lHvLgMNjh9BgcXW0dYfR/tB17FG7j/O8g5eEGCWpB170uKXsf/+x2DHu7cjYATRYLABbd1SIIUvGWxz/nBW0PNwv9Y2hIXjrc1cwPtqoD+6RWVE1KpD6mwVg6w4OMeRvnpmx84rhEKMk9dADdhrh2Kcuix3jnnbFp5AqIAvA1uWdDth15TBHPHJxiCySInj+Y5ayYnGjviY7/l6S7taod3ZTZEU1DKzpdM7j95kIkEZSLEMteFyzPscWEJ56WQAACOJJREFUAAVjAbhvOxPg7+axezfqi0PSAjxm7/HYEe7JQwAKxgJw34K07F1Xeuxf6ne7rmzUHdPdA6BgLAD3LciHbPVyC4DU71Yvb9TXpAVAwTTqnd0gHV8A3Gq1byoiqb817Jbdjbs5gfqXBeC+3dDpgJkZWLtuS4gskiK6+Y5GfY47/m6S7mYBuG/XhxhyY92oLw5JC9Cwz3GQ7yYJLABbE6Rl/+jqTSHGSIrogqs3x45wT1XsABocFoD7UJf5RuDWTuecfZkFQOp3Z1+2MXaEe7IAKBgLwNZ1/EG79PrNXHRto7YeJM3DD67cxLVrp2LHuCcLgIKxAGzdzzodMDMDb/vi7WyanAmRR1IP3blphnd++fbYMe5pPXBd7BAaHBaArTs1xJBr107x4W/eEWKUpB76wOl1004APKMuc3cpKhgLwNadBkyGGHTSD+7kf3/h51bqF+deuYmv/GhD7Bj39uXYATRYLABbUZf57cB3Q8yamYG/P+U2Lr0+SJ+Q1EUXXruZd3yxUbv+ob0xclrsEBosFoBtC9a4b6y38PJ/vZmPfWsdk1s8J0Bqms1TM3zwjDt41cfXNvEmXt+d3SiRgrEAbNupQLC19fQ0fPKsdbz0o2u54gb3BkhNcfF1mzn6X27mP7+/nulm9vMvxQ6gwdOamWnmu70psqI6CXhe6Lkjwy0O2XOcJ+47waP3GGd1NsywdUzqiaktM/y63sIPf76J7/1sI+f9fFNTV/wAa4E96jL3bGIFZQHYjqyo9gIuBbr6TNChFqxcOsyS8d49eGTj5Aybp2bYNDXDZIMudR4agvGRFmMjLcZHW4xYjBZsaho2Tbb/jTdPzTA9HTvRb42NtB+0MzbSYmK0d+/79Runue3O6Sav8O/tuLrMPxQ7hAaPBWAOsqL6CHBs7BySknMVsG9d5h4zVHBuW83NPwB3xg4hKTl/58pf3WIBmIO6zG8E/jl2DklJOQ84OXYIDS4LwNy9G/hJ7BCSknAn8Mq6zD1Gq66xAMxRXeYbgD8EboydRdJAmwFeUpf5hbGDaLBZAOahLvPrgOcAPudXUrf8Q13mX4wdQoPPAjBPdZmfA7wqdg5JA+m/gLfFDqE0WAAWoC7zTwPviJ1D0kD5IXCMx/3VKxaABarL/HjglQR6YqCkpH0OOKwucy83Vs94I6AOZUX1RNq77XaKnUVS35kB3lKX+TtjB1F6LAABZEX1QOArwEMjR5HUP9YDR9dlfmrsIEqThwACqMv8GuCxwAfxkICk7fsOcIgrf8XkHoDAsqLaAzgB+BOgd084kdQPLgTeUJf5GbGDSBaALsmK6iDgPcBhkaNIiu864HjgxLrMG/RMRqXMAtBlWVEdDBwFHAnsGzmOpN65GTgNOBU4oy7zjZHzSL/DAtBDWVHtSbsIHAk8DMjiJpIU0Ebaj+89nfZK/1y39tVkFoCIsqJaDOT3ei2f55gWsBRYdo/XEn73/IOdgP06zfuSJy5lbKSz0xq+f9lGLqsac57kD2l/aQ+KR9J+LyzYAbuNcdAe4x2FuGvzDP/5/fUdzQjoRuCye/zvGdq38l53r9fUPOduAm4AqrtfdZnf2nFaqYdGYgdI2ewDhn4+++qarKiOAr7U6ZyXPHEpyyY6u3DklnXTTSoAL5i9gmMgZEX1E+CATmYcsNsYr3zSso5y3LJ+ukkF4Iy6zF8aO4TURF4GKElSgiwAkiQlyAIgSVKCLACSJCXIAiBJUoIsAJIkJcgCIElSgiwAkiQlyAIgSVKCLACSJCXIAiBJUoIsAJIkJcgCIElSgiwAkiQlyAIgSVKCLACSJCXIAiBJUoIsAJIkJcgCIElSgiwAkiQlyAIgSVKCLACSJCXIAiBJUoIsAJIkJcgCIElSgiwAkiQlyAIgSVKCLACSJCXIAiBJUoIsAJIkJcgCIElSgiwAkiQlyAIgSVKCLACSJCXIAiBJUoIsAJIkJcgCIElSgiwAkiQlyAIgSVKCLACSJCXIAiBJUoIsAJIkJcgCIElSgiwAkiQlyAIgSVKCLACSJCXIAiBJUoIsAJIkJcgCIElSgiwAkiQlyAIgSVKCLACSJCXIAiBJUoIsAJIkJcgCIElSgiwAkiQlyAIgSVKCLACSJCXIAiBJUoIsAJIkJcgCIElSgiwAkiQlyAIgSVKCLACSJCXIAiBJUoIsAJIkJcgCIElSgiwAkiQlyAIgSVKCLACSJCXIAiBJUoIsAJIkJcgCIElSgiwAkiQlyAIgSVKCLACSJCXIAiBJUoIsAJIkJcgCIElSgiwAkiQlyAIgSVKCLACSJCXIAiBJUoIsAJIkJcgCIElSgiwAkiQlyAIgSVKCLACSJCXIAiBJUoIsAJIkJcgCIElSgiwAkiQlyAIgSVKCLACSJCXIAiBJUoIsAJIkJcgCIElSgiwAkiQlyAIgSVKCLACSJCXIAiBJUoIsAJIkJWgkdgD1j7Mu2cjEaKujGdffOhUojbrhFzdNceaFd3U0Y/2m6UBpJHWTBUBz9o4v3R47grrs7Ms2cvZlG2PHkNQDHgKQJClBFgBJkhJkAZAkKUEWAEmSEmQBkCQpQRYASZISZAGQJClBFoA0rIsdoKEG7e9l0P48Ifh3Im2FBSANP44doIGuq8v8ltghAvPf+ff5dyJthQUgAXWZ3wpcHTtHw5wfO0AXDOKfqVP+nUhbYQFIxzmxAzTMIP59/ACYiR2iQWrg0tghpKayAKTjeGB97BANcSXwkdghQqvL/ErgY7FzNMhr6zLfEjuE1FQWgETUZX4N8LrYORpgGjimLvPOHnnXXK8HrokdogG+Xpf5v8cOITWZBSAhdZn/K5Dyl+IU8Lq6zM+NHaRb6jJfDxwN3BQ7S0QXAa+IHUJqOgtAYuoyfwVwJPDr2Fl67GLg4LrM3x87SLfVZf4/wEOAz8XO0mNTwAnAo+oyr2KHkZquNTPjOUMpyopqJfAC4FGzr4cAw1FDhbUR+ClwAXAe8Pm6zDfHjdR7WVEdDjyZ3/477xg3UXDX0f43vgD4Wl3mF0bOI/WN/w8ehofkV66cEwAAAABJRU5ErkJggg==;" parent="1" vertex="1">
          <mxGeometry x="540" y="794" width="100" height="100" as="geometry" />
        </mxCell>
        <mxCell id="fXykziFulP6B6n2YWWhN-11" value="&lt;span style=&quot;font-size: 22px&quot;&gt;Section 3&lt;/span&gt;&lt;span style=&quot;font-size: 20px&quot;&gt;&lt;br&gt;&lt;/span&gt;" style="rounded=1;whiteSpace=wrap;html=1;fillOpacity=100;align=center;arcSize=10;fillColor=#A9C4EB;" vertex="1" parent="1">
          <mxGeometry x="523.9399999999999" y="689.5" width="134.12" height="35" as="geometry" />
        </mxCell>
        <mxCell id="fXykziFulP6B6n2YWWhN-12" value="&lt;span style=&quot;font-size: 22px ; white-space: normal&quot;&gt;Section 4&lt;/span&gt;" style="rounded=1;whiteSpace=wrap;html=1;fillOpacity=100;align=center;arcSize=10;fillColor=#A9C4EB;" vertex="1" parent="1">
          <mxGeometry x="742.94" y="689.5" width="134.12" height="35" as="geometry" />
        </mxCell>
        <mxCell id="fXykziFulP6B6n2YWWhN-13" value="&lt;font style=&quot;font-size: 22px&quot;&gt;Section 2&lt;/font&gt;" style="rounded=1;whiteSpace=wrap;html=1;fillOpacity=100;align=center;arcSize=10;strokeOpacity=100;fillColor=#A9C4EB;" vertex="1" parent="1">
          <mxGeometry x="81" y="689.5" width="357.06" height="35" as="geometry" />
        </mxCell>
      </root>
    </mxGraphModel>
  </diagram>
</mxfile>
